<svg width="400" height="400" viewBox="0 0 400 400" fill="none" xmlns="http://www.w3.org/2000/svg">
<rect width="200" height="200" transform="matrix(1 0 0 -1 0 200)" fill="#C2DBFF"/>
<rect x="200" width="200" height="200" fill="#546EF3"/>
<path d="M200 0C200 26.2644 205.173 52.2716 215.224 76.5367C225.275 100.802 240.007 122.85 258.579 141.421C277.15 159.993 299.198 174.725 323.463 184.776C347.728 194.827 373.736 200 400 200L400 0H200Z" fill="#C2DBFF"/>
<rect width="200" height="200" transform="matrix(1 0 0 -1 0 400)" fill="#546EF3"/>
<path d="M200 200C200 226.264 194.827 252.272 184.776 276.537C174.725 300.802 159.993 322.85 141.421 341.421C122.85 359.993 100.802 374.725 76.5367 384.776C52.2716 394.827 26.2644 400 0 400L1.52588e-05 200H200Z" fill="#C2DBFF"/>
<rect x="200" y="200" width="200" height="200" fill="#546EF3"/>
<rect x="200" y="300" width="200" height="100" fill="#1D1F22"/>
<path d="M300 200C355.228 200 400 244.772 400 300H200C200 244.772 244.772 200 300 200Z" fill="#1D1F22"/>
</svg>
