<svg width="10000" height="10000" viewBox="0 0 10000 10000" fill="none" xmlns="http://www.w3.org/2000/svg">
<g clip-path="url(#clip0_1701_210)">
<rect width="10000" height="10000" fill="#EBE9FF"/>
<path d="M1667.16 8333.77C1667.16 9253.16 920.719 9998.54 0 9998.54V6669C920.719 6669 1667.16 7414.38 1667.16 8333.77Z" fill="#5E50FF"/>
<path d="M3344.57 8335.37C3344.57 9254.76 2598.14 10000.3 1677.42 10000.3V6670.6C2598.14 6670.6 3344.57 7415.97 3344.57 8335.37Z" fill="#C3BDFF"/>
<path d="M852.766 8332.7C852.766 7877.94 1221.99 7509.38 1677.42 7509.38V9156.16C1221.99 9156.03 852.766 8787.47 852.766 8332.7Z" fill="#D7D3FF"/>
<path d="M1672.22 9998.8C2595.76 9998.8 3344.44 9253.46 3344.44 8334.03C3344.44 7414.61 2595.76 6669.27 1672.22 6669.27C748.678 6669.27 0 7414.61 0 8334.03C0 9253.46 748.678 9998.8 1672.22 9998.8Z" stroke="#5E50FF" stroke-width="0.5" stroke-miterlimit="10"/>
<path d="M1697.42 4993.77C1697.42 5913.16 2443.85 6658.54 3364.57 6658.54V3329C2443.85 3329 1697.42 4074.38 1697.42 4993.77Z" fill="#D7D3FF"/>
<path d="M19.9991 4995.37C19.9991 5914.76 766.435 6660.27 1687.15 6660.27V3330.6C766.435 3330.6 19.9991 4075.97 19.9991 4995.37Z" fill="#C3BDFF"/>
<path d="M2511.8 4992.7C2511.8 4537.94 2142.58 4169.38 1687.15 4169.38V5816.16C2142.58 5816.03 2511.8 5447.47 2511.8 4992.7Z" fill="#5E50FF"/>
<path d="M6634.42 4991.77C6634.42 5911.16 7380.85 6656.54 8301.57 6656.54V3327C7380.85 3327 6634.42 4072.38 6634.42 4991.77Z" fill="#D7D3FF"/>
<path d="M8302.16 8331.77C8302.16 9251.16 7555.72 9996.54 6635 9996.54V6667C7555.72 6667 8302.16 7412.38 8302.16 8331.77Z" fill="#C3BDFF"/>
<path d="M9979.57 8333.37C9979.57 9252.76 9233.14 9998.27 8312.42 9998.27V6668.6C9233.14 6668.6 9979.57 7413.97 9979.57 8333.37Z" fill="#5E50FF"/>
<path d="M7487.77 8330.7C7487.77 7875.94 7856.99 7507.38 8312.42 7507.38V9154.16C7856.99 9154.03 7487.77 8785.47 7487.77 8330.7Z" fill="#7266FF"/>
<path d="M8307.22 9996.8C9230.76 9996.8 9979.44 9251.46 9979.44 8332.03C9979.44 7412.61 9230.76 6667.27 8307.22 6667.27C7383.68 6667.27 6635 7412.61 6635 8332.03C6635 9251.46 7383.68 9996.8 8307.22 9996.8Z" stroke="#5E50FF" stroke-width="0.5" stroke-miterlimit="10"/>
<path d="M2266.16 1667.77C2266.16 2587.16 1519.72 3332.54 599 3332.54V3C1519.72 3 2266.16 748.375 2266.16 1667.77Z" fill="#C3BDFF"/>
<path d="M3943.57 1669.37C3943.57 2588.76 3197.14 3334.27 2276.42 3334.27V4.599C3197.14 4.599 3943.57 749.974 3943.57 1669.37Z" fill="#C3BDFF"/>
<path d="M1451.77 1666.7C1451.77 1211.94 1820.99 843.379 2276.42 843.379V2490.16C1820.99 2490.03 1451.77 2121.47 1451.77 1666.7Z" fill="#7266FF"/>
<path d="M8332.42 1664.77C8332.42 2584.16 9078.85 3329.54 9999.57 3329.54V0C9078.85 0 8332.42 745.375 8332.42 1664.77Z" fill="#5E50FF"/>
<path d="M6655 1666.37C6655 2585.76 7401.43 3331.27 8322.15 3331.27V1.599C7401.43 1.599 6655 746.974 6655 1666.37Z" fill="#C3BDFF"/>
<path d="M9146.8 1663.7C9146.8 1208.94 8777.58 840.379 8322.15 840.379V2487.16C8777.58 2487.03 9146.8 2118.47 9146.8 1663.7Z" fill="#D7D3FF"/>
<path d="M4144.13 1663.9C4144.13 744.508 4890.57 -1.00012 5811.29 -1.00012V3328.67C4890.57 3328.67 4144.13 2583.43 4144.13 1663.9Z" fill="#C3BDFF"/>
<path d="M4978.64 2502.02C4517.75 2502.02 4144 2128.93 4144 1668.7H5813.15C5813.29 2128.93 5439.67 2502.02 4978.64 2502.02Z" fill="#5E50FF"/>
<path d="M6636.47 1663.9C6636.47 2118.67 6267.25 2487.22 5811.82 2487.22V840.445C6267.25 840.445 6636.47 1209.13 6636.47 1663.9Z" fill="#7266FF"/>
<path d="M5855.84 8335.9C5855.84 7416.51 5109.4 6671 4188.68 6671V10000.7C5109.4 10000.7 5855.84 9255.43 5855.84 8335.9Z" fill="#C3BDFF"/>
<path d="M5021.33 9174.02C5482.22 9174.02 5855.97 8800.93 5855.97 8340.7H4186.82C4186.68 8800.93 4560.3 9174.02 5021.33 9174.02Z" fill="#5E50FF"/>
<path d="M3363.5 8335.9C3363.5 8790.67 3732.72 9159.22 4188.15 9159.22V7512.44C3732.72 7512.44 3363.5 7881.13 3363.5 8335.9Z" fill="#7266FF"/>
<path d="M7273.65 8341.06C7273.65 8682.68 6996.7 8959.62 6655.07 8959.62C6313.44 8959.62 6036.5 8682.68 6036.5 8341.06C6036.5 7999.44 6313.44 7722.5 6655.07 7722.5C6996.7 7722.5 7273.65 7999.44 7273.65 8341.06Z" fill="#7266FF" stroke="white"/>
<path d="M6655.07 8801.08C6909.14 8801.08 7115.1 8595.13 7115.1 8341.06C7115.1 8087 6909.14 7881.04 6655.07 7881.04C6401.01 7881.04 6195.04 8087 6195.04 8341.06C6195.04 8595.13 6401.01 8801.08 6655.07 8801.08Z" fill="#7266FF" stroke="white" stroke-width="5" stroke-miterlimit="10"/>
<path d="M6938.58 8385.49C6963.18 8229.02 6856.27 8082.23 6699.8 8057.63C6543.32 8033.03 6396.54 8139.94 6371.94 8296.41C6347.34 8452.88 6454.25 8599.67 6610.72 8624.27C6767.2 8648.87 6913.99 8541.96 6938.58 8385.49Z" fill="#7266FF" stroke="white" stroke-width="5" stroke-miterlimit="10"/>
<path d="M6751.65 8437.75C6805.03 8384.37 6805.03 8297.84 6751.65 8244.46C6698.28 8191.09 6611.74 8191.09 6558.36 8244.46C6504.99 8297.84 6504.99 8384.37 6558.36 8437.75C6611.74 8491.12 6698.28 8491.12 6751.65 8437.75Z" fill="#7266FF" stroke="white" stroke-width="5" stroke-miterlimit="10"/>
<path d="M7273.65 5015.06C7273.65 5356.68 6996.7 5633.62 6655.07 5633.62C6313.44 5633.62 6036.5 5356.68 6036.5 5015.06C6036.5 4673.44 6313.44 4396.5 6655.07 4396.5C6996.7 4396.5 7273.65 4673.44 7273.65 5015.06Z" fill="#7266FF" stroke="white"/>
<path d="M6655.07 5475.08C6909.14 5475.08 7115.1 5269.13 7115.1 5015.06C7115.1 4761 6909.14 4555.04 6655.07 4555.04C6401.01 4555.04 6195.04 4761 6195.04 5015.06C6195.04 5269.13 6401.01 5475.08 6655.07 5475.08Z" fill="#7266FF" stroke="white" stroke-width="5" stroke-miterlimit="10"/>
<path d="M6938.58 5059.49C6963.18 4903.02 6856.27 4756.23 6699.8 4731.63C6543.32 4707.03 6396.54 4813.94 6371.94 4970.41C6347.34 5126.88 6454.25 5273.67 6610.72 5298.27C6767.2 5322.87 6913.99 5215.96 6938.58 5059.49Z" fill="#7266FF" stroke="white" stroke-width="5" stroke-miterlimit="10"/>
<path d="M6751.65 5111.75C6805.03 5058.37 6805.03 4971.84 6751.65 4918.46C6698.28 4865.09 6611.74 4865.09 6558.36 4918.46C6504.99 4971.84 6504.99 5058.37 6558.36 5111.75C6611.74 5165.12 6698.28 5165.12 6751.65 5111.75Z" fill="#7266FF" stroke="white" stroke-width="5" stroke-miterlimit="10"/>
<path d="M3943.65 4993.06C3943.65 5334.68 3666.7 5611.62 3325.07 5611.62C2983.44 5611.62 2706.5 5334.68 2706.5 4993.06C2706.5 4651.44 2983.44 4374.5 3325.07 4374.5C3666.7 4374.5 3943.65 4651.44 3943.65 4993.06Z" fill="#7266FF" stroke="white"/>
<path d="M3325.07 5453.08C3579.14 5453.08 3785.1 5247.13 3785.1 4993.06C3785.1 4739 3579.14 4533.04 3325.07 4533.04C3071.01 4533.04 2865.04 4739 2865.04 4993.06C2865.04 5247.13 3071.01 5453.08 3325.07 5453.08Z" fill="#7266FF" stroke="white" stroke-width="5" stroke-miterlimit="10"/>
<path d="M3608.58 5037.49C3633.18 4881.02 3526.27 4734.23 3369.8 4709.63C3213.32 4685.03 3066.54 4791.94 3041.94 4948.41C3017.34 5104.88 3124.25 5251.67 3280.72 5276.27C3437.2 5300.87 3583.99 5193.96 3608.58 5037.49Z" fill="#7266FF" stroke="white" stroke-width="5" stroke-miterlimit="10"/>
<path d="M3421.65 5089.75C3475.03 5036.37 3475.03 4949.84 3421.65 4896.46C3368.28 4843.09 3281.74 4843.09 3228.36 4896.46C3174.99 4949.84 3174.99 5036.37 3228.36 5089.75C3281.74 5143.12 3368.28 5143.12 3421.65 5089.75Z" fill="#7266FF" stroke="white" stroke-width="5" stroke-miterlimit="10"/>
<path d="M1237.65 1677.06C1237.65 2018.68 960.703 2295.62 619.074 2295.62C277.445 2295.62 0.5 2018.68 0.5 1677.06C0.5 1335.44 277.445 1058.5 619.074 1058.5C960.703 1058.5 1237.65 1335.44 1237.65 1677.06Z" fill="#7266FF" stroke="white"/>
<path d="M619.073 2137.08C873.141 2137.08 1079.1 1931.13 1079.1 1677.06C1079.1 1423 873.141 1217.04 619.073 1217.04C365.005 1217.04 159.043 1423 159.043 1677.06C159.043 1931.13 365.005 2137.08 619.073 2137.08Z" fill="#7266FF" stroke="white" stroke-width="5" stroke-miterlimit="10"/>
<path d="M902.584 1721.49C927.182 1565.02 820.275 1418.23 663.799 1393.63C507.324 1369.03 360.536 1475.94 335.937 1632.41C311.339 1788.88 418.246 1935.67 574.721 1960.27C731.197 1984.87 877.986 1877.96 902.584 1721.49Z" fill="#7266FF" stroke="white" stroke-width="5" stroke-miterlimit="10"/>
<path d="M715.651 1773.75C769.026 1720.37 769.026 1633.84 715.651 1580.46C662.276 1527.09 575.739 1527.09 522.364 1580.46C468.989 1633.84 468.989 1720.37 522.364 1773.75C575.739 1827.12 662.276 1827.12 715.651 1773.75Z" fill="#7266FF" stroke="white" stroke-width="5" stroke-miterlimit="10"/>
<path d="M4986.52 4186.32C4531.09 4186.32 4161.87 3817.63 4161.87 3363H5811.03C5811.17 3817.77 5441.95 4186.32 4986.52 4186.32Z" fill="#AFA7FF"/>
<path d="M4986.52 5014.71C4531.09 5014.71 4161.87 4646.02 4161.87 4191.39H5811.03C5811.17 4646.15 5441.95 5014.71 4986.52 5014.71Z" fill="#5E50FF"/>
<path d="M4988.51 5847.89C4533.08 5847.89 4163.86 6216.58 4163.86 6671.22H5813.03C5813.16 6216.58 5443.94 5847.89 4988.51 5847.89Z" fill="#AFA7FF"/>
<path d="M4986.52 5840.83C5442.99 5840.83 5813.03 5472.46 5813.03 5018.04C5813.03 4563.63 5442.99 4195.25 4986.52 4195.25C4530.04 4195.25 4160 4563.63 4160 5018.04C4160 5472.46 4530.04 5840.83 4986.52 5840.83Z" stroke="#867CFF" stroke-width="0.5" stroke-miterlimit="10"/>
<path d="M4984.52 5017.64C5439.95 5017.64 5809.17 5386.33 5809.17 5840.96H4160C4159.87 5386.33 4529.09 5017.64 4984.52 5017.64Z" fill="#867CFF"/>
<path d="M4986.52 6671.08C4530.04 6671.08 4160 6302.71 4160 5848.29C4160 5393.88 4530.04 5025.5 4986.52 5025.5C5442.99 5025.5 5813.03 5393.88 5813.03 5848.29C5813.03 6302.71 5442.99 6671.08 4986.52 6671.08Z" stroke="#867CFF" stroke-width="0.5" stroke-miterlimit="10"/>
<path d="M9173.52 4195.32C8718.09 4195.32 8348.87 3826.63 8348.87 3372H9998.03C9998.17 3826.77 9628.95 4195.32 9173.52 4195.32Z" fill="#AFA7FF"/>
<path d="M9173.52 5023.71C8718.09 5023.71 8348.87 4655.02 8348.87 4200.39H9998.03C9998.17 4655.15 9628.95 5023.71 9173.52 5023.71Z" fill="#5E50FF"/>
<path d="M9175.51 5026.64C8720.08 5026.64 8350.86 5395.33 8350.86 5849.96H10000C10000.2 5395.33 9630.94 5026.64 9175.51 5026.64Z" fill="#867CFF"/>
<path d="M9175.51 5856.89C8720.08 5856.89 8350.86 6225.58 8350.86 6680.22H10000C10000.2 6225.58 9630.94 5856.89 9175.51 5856.89Z" fill="#AFA7FF"/>
<path d="M8980.56 8318H8630V8668.55H8980.56V8318Z" fill="white"/>
<path d="M494.561 7021H144V7371.55H494.561V7021Z" fill="white"/>
<path d="M859.561 5027H509V5377.55H859.561V5027Z" fill="white"/>
<path d="M9494.56 2296H9144V2646.55H9494.56V2296Z" fill="white"/>
<path d="M4870.56 1304H4520V1654.55H4870.56V1304Z" fill="white"/>
<path d="M4873.56 7985H4523V8335.55H4873.56V7985Z" fill="white"/>
<path d="M2884.56 648H2534V998.554H2884.56V648Z" fill="white"/>
<path d="M9319.72 8668.45H8969.16V9019H9319.72V8668.45Z" fill="white"/>
<path d="M833.721 7371.45H483.16V7722H833.721V7371.45Z" fill="white"/>
<path d="M1198.72 5377.45H848.16V5728H1198.72V5377.45Z" fill="white"/>
<path d="M9833.72 2646.45H9483.16V2997H9833.72V2646.45Z" fill="white"/>
<path d="M5209.72 1654.45H4859.16V2005H5209.72V1654.45Z" fill="white"/>
<path d="M5212.72 8335.45H4862.16V8686H5212.72V8335.45Z" fill="white"/>
<path d="M3223.72 998.446H2873.16V1349H3223.72V998.446Z" fill="white"/>
<path d="M6634.27 6541.53C6740.46 6541.53 6826.54 6455.45 6826.54 6349.27C6826.54 6243.08 6740.46 6157 6634.27 6157C6528.08 6157 6442 6243.08 6442 6349.27C6442 6455.45 6528.08 6541.53 6634.27 6541.53Z" fill="#C3BDFF"/>
<path d="M6634.27 6157C6630.51 6157 6626.74 6157.32 6622.98 6157.54V6540.89C6626.74 6541.1 6630.51 6541.43 6634.27 6541.43C6740.41 6541.43 6826.54 6455.4 6826.54 6349.16C6826.43 6243.13 6740.41 6157 6634.27 6157Z" fill="#D7D3FF"/>
<path d="M3537.27 7205.53C3643.46 7205.53 3729.54 7119.45 3729.54 7013.27C3729.54 6907.08 3643.46 6821 3537.27 6821C3431.08 6821 3345 6907.08 3345 7013.27C3345 7119.45 3431.08 7205.53 3537.27 7205.53Z" fill="#C3BDFF"/>
<path d="M3537.27 6821C3533.51 6821 3529.74 6821.32 3525.98 6821.54V7204.89C3529.74 7205.1 3533.51 7205.43 3537.27 7205.43C3643.41 7205.43 3729.54 7119.4 3729.54 7013.16C3729.43 6907.13 3643.41 6821 3537.27 6821Z" fill="#D7D3FF"/>
<path d="M3944.27 3189.53C4050.46 3189.53 4136.54 3103.45 4136.54 2997.27C4136.54 2891.08 4050.46 2805 3944.27 2805C3838.08 2805 3752 2891.08 3752 2997.27C3752 3103.45 3838.08 3189.53 3944.27 3189.53Z" fill="#C3BDFF"/>
<path d="M3944.27 2805C3940.51 2805 3936.74 2805.32 3932.98 2805.54V3188.89C3936.74 3189.1 3940.51 3189.43 3944.27 3189.43C4050.41 3189.43 4136.54 3103.4 4136.54 2997.16C4136.43 2891.13 4050.41 2805 3944.27 2805Z" fill="#D7D3FF"/>
<path d="M6634.27 3206.53C6740.46 3206.53 6826.54 3120.45 6826.54 3014.27C6826.54 2908.08 6740.46 2822 6634.27 2822C6528.08 2822 6442 2908.08 6442 3014.27C6442 3120.45 6528.08 3206.53 6634.27 3206.53Z" fill="#C3BDFF"/>
<path d="M6634.27 2822C6630.51 2822 6626.74 2822.32 6622.98 2822.54V3205.89C6626.74 3206.1 6630.51 3206.43 6634.27 3206.43C6740.41 3206.43 6826.54 3120.4 6826.54 3014.16C6826.43 2908.13 6740.41 2822 6634.27 2822Z" fill="#D7D3FF"/>
</g>
<defs>
<clipPath id="clip0_1701_210">
<rect width="10000" height="10000" fill="white"/>
</clipPath>
</defs>
</svg>
