<svg width="10000" height="10000" viewBox="0 0 10000 10000" fill="none" xmlns="http://www.w3.org/2000/svg">
<g clip-path="url(#clip0_1702_269)">
<rect width="10000" height="10000" fill="white"/>
<path d="M8847.56 7H8497V357.554H8847.56V7Z" fill="#4A3AFF"/>
<path d="M9186.72 357.446H8836.16V708.001H9186.72V357.446Z" fill="#4A3AFF"/>
<path d="M2706 3173V3596.25H3140.12V3173.22L2706 3173Z" fill="#EBE9FF"/>
<path d="M3140.11 3596.46H2347.05V4049.82H3140.11V3596.46Z" fill="#EBE9FF"/>
<path d="M3140.12 4043.36H1891V4496.72H3140.12V4043.36Z" fill="#EBE9FF"/>
<path d="M3574 0H-11V2802H3574V0Z" fill="#D7D3FF"/>
<rect x="5346" y="6386" width="4654" height="1018" fill="#EBE9FF"/>
<rect x="3553" y="7" width="4654" height="989" fill="#EBE9FF"/>
<path d="M5351.89 6407H3585V10008.9H5351.89V6407Z" fill="#D7D3FF"/>
<path d="M9126.89 2813H9106C8623.86 2813 8233 3203.86 8233 3686V6414.89H9999.89V3686C9999.89 3203.86 9609.04 2813 9126.89 2813Z" fill="#4A3AFF"/>
<path d="M3585.29 6401H0V9999.99H3585.29V6401Z" fill="#D7D3FF"/>
<path d="M7164 2802H3585V5128H7164V2802Z" fill="#4A3AFF"/>
<path d="M1067.6 8780.16H0V9075.77H1067.6V8780.16Z" fill="#4A3AFF"/>
<path d="M1340.41 9075.77H0V9371.26H1340.41V9075.77Z" fill="#4A3AFF"/>
<path d="M1595.05 9371.37H0V9687.84H1595.05V9371.37Z" fill="#4A3AFF"/>
<path d="M1918.41 9683.43H0V9999.9H1918.41V9683.43Z" fill="#4A3AFF"/>
<path d="M6319.6 3251.16H5252V3546.77H6319.6V3251.16Z" fill="#D7D3FF"/>
<path d="M6592.41 3546.77H5252V3842.26H6592.41V3546.77Z" fill="#D7D3FF"/>
<path d="M6847.05 3842.37H5252V4158.84H6847.05V3842.37Z" fill="#D7D3FF"/>
<path d="M7170.41 4154.43H5252V4470.9H7170.41V4154.43Z" fill="#D7D3FF"/>
<path d="M9184.6 1406H8117V1701.61H9184.6V1406Z" fill="#D7D3FF"/>
<path d="M9457.41 1701.61H8117V1997.1H9457.41V1701.61Z" fill="#D7D3FF"/>
<path d="M9712.05 1997.21H8117V2313.68H9712.05V1997.21Z" fill="#D7D3FF"/>
<path d="M10035.4 2309.27H8117V2625.74H10035.4V2309.27Z" fill="#D7D3FF"/>
<path d="M1067.6 0H0V295.605H1067.6V0Z" fill="#4A3AFF"/>
<path d="M1340.41 295.606H0V591.104H1340.41V295.606Z" fill="#4A3AFF"/>
<path d="M1595.05 591.211H0V907.678H1595.05V591.211Z" fill="#4A3AFF"/>
<path d="M1918.41 903.269H0V1219.74H1918.41V903.269Z" fill="#4A3AFF"/>
<path d="M670.906 8331H218.617V8783.28H670.906V8331Z" fill="#4A3AFF"/>
<path d="M5922.91 2802H5470.62V3254.28H5922.91V2802Z" fill="#D7D3FF"/>
<path d="M9421.07 0C9421.07 0 9421.07 1134.14 9421.07 1158.01" stroke="#9A92FF" stroke-width="3.5328" stroke-miterlimit="10"/>
<path d="M10000 578.952C10000 578.952 8865.87 578.952 8842 578.952" stroke="#9A92FF" stroke-width="3.5328" stroke-miterlimit="10"/>
<path d="M9830.45 169.578C9830.45 169.578 9028.46 971.552 9011.58 988.435" stroke="#9A92FF" stroke-width="3.5328" stroke-miterlimit="10"/>
<path d="M9830.45 988.327C9830.45 988.327 9028.46 186.353 9011.58 169.47" stroke="#9A92FF" stroke-width="3.5328" stroke-miterlimit="10"/>
<path d="M9962.08 372.706C9962.08 372.706 8902.33 776.596 8879.96 785.091" stroke="#9A92FF" stroke-width="3.5328" stroke-miterlimit="10"/>
<path d="M9627.32 1119.95C9627.32 1119.95 9223.42 60.218 9214.93 37.8513" stroke="#9A92FF" stroke-width="3.5328" stroke-miterlimit="10"/>
<path d="M9949.5 815.738C9949.5 815.738 8914.48 351.952 8892.76 342.274" stroke="#9A92FF" stroke-width="3.5328" stroke-miterlimit="10"/>
<path d="M9184.28 1107.37C9184.28 1107.37 9648.08 72.3691 9657.75 50.6476" stroke="#9A92FF" stroke-width="3.5328" stroke-miterlimit="10"/>
<path d="M3246.01 7056.73V6740.16H2974.71V6401H2545V8097.1H2816.42V8119.68H3155.58H3246.01H3585.28V7056.73H3246.01Z" fill="white"/>
<path d="M3246.12 6401H2895.56V6751.55H3246.12V6401Z" fill="#4A3AFF"/>
<path d="M9660.56 7513H9310V7863.55H9660.56V7513Z" fill="#4A3AFF"/>
<path d="M6315.56 6576H5965V6926.55H6315.56V6576Z" fill="#4A3AFF"/>
<path d="M6474.56 7961H6124V8311.55H6474.56V7961Z" fill="#4A3AFF"/>
<path d="M1893.56 4149H1543V4499.55H1893.56V4149Z" fill="#4A3AFF"/>
<path d="M2407.56 1362H2057V1712.55H2407.56V1362Z" fill="#4A3AFF"/>
<path d="M5081.56 1427H4731V1777.55H5081.56V1427Z" fill="#4A3AFF"/>
<path d="M8816.56 1686H8466V2036.55H8816.56V1686Z" fill="#4A3AFF"/>
<path d="M3924.56 0H3574V350.554H3924.56V0Z" fill="#4A3AFF"/>
<path d="M3585.28 6751.45H3234.72V7102H3585.28V6751.45Z" fill="#4A3AFF"/>
<path d="M9999.72 7863.45H9649.16V8214H9999.72V7863.45Z" fill="#4A3AFF"/>
<path d="M6654.72 6926.45H6304.16V7277H6654.72V6926.45Z" fill="#4A3AFF"/>
<path d="M6813.72 8311.45H6463.16V8662H6813.72V8311.45Z" fill="#4A3AFF"/>
<path d="M2232.72 4499.45H1882.16V4850H2232.72V4499.45Z" fill="#4A3AFF"/>
<path d="M2746.72 1712.45H2396.16V2063H2746.72V1712.45Z" fill="#4A3AFF"/>
<path d="M5420.72 1777.45H5070.16V2128H5420.72V1777.45Z" fill="#4A3AFF"/>
<path d="M9155.72 2036.45H8805.16V2387H9155.72V2036.45Z" fill="#4A3AFF"/>
<path d="M4263.72 350.446H3913.16V701.001H4263.72V350.446Z" fill="#4A3AFF"/>
<path d="M2545.24 10000.4V7974.75C2545.24 7649.25 2283.07 7383 1962.62 7383C1642.17 7383 1380 7649.25 1380 7974.75V10000.4H2545.24Z" fill="#EBE9FF"/>
<path d="M1393.96 4146.81V3921.21C1393.96 3579.48 1114.38 3300 772.74 3300C430.997 3300 151.516 3579.58 151.516 3921.21V4146.81H0V6400.79H1545.37V4146.81H1393.96Z" fill="#4A3AFF"/>
<path d="M1393.96 4146.81V3921.21C1393.96 3580.77 1116.42 3302.15 776.504 3300V6400.69H1545.48V4146.81H1393.96Z" fill="#D7D3FF"/>
<path d="M4703.39 10008.8C4607.47 9478.38 4143.35 9076 3585.25 9076C3027.15 9076 2562.92 9478.38 2467 10008.8H4703.39Z" fill="#EBE9FF"/>
<path d="M8117 2635C8076.38 2409.82 7879.85 2239 7643.52 2239C7407.19 2239 7210.62 2409.82 7170 2635H8117Z" fill="#EBE9FF"/>
<path d="M10000 6430C9924.9 6014.89 9561.51 5700 9124.54 5700C8687.57 5700 8324.1 6014.89 8249 6430H10000Z" fill="#EBE9FF"/>
<path d="M3574 351C3158.89 426.102 2844 789.487 2844 1226.46C2844 1663.43 3158.89 2026.9 3574 2102V351Z" fill="#4A3AFF"/>
<path d="M9116.39 9023.84C9020.47 8493.38 8556.35 8091 7998.25 8091C7440.15 8091 6975.92 8493.38 6880 9023.84H9116.39Z" fill="#EBE9FF"/>
<path d="M3585.14 9076C3027.04 9076 2562.92 9478.38 2467 10008.8H3585.14V9076Z" fill="#C3BDFF"/>
<path d="M7643 2239C7406.91 2239 7210.58 2409.82 7170 2635H7643V2239Z" fill="#C3BDFF"/>
<path d="M2592 5445C2355.91 5445 2159.58 5615.82 2119 5841H2592V5445Z" fill="#C3BDFF"/>
<path d="M4939 2449C4730.86 2449 4557.77 2599.97 4522 2799H4939V2449Z" fill="#C3BDFF"/>
<path d="M6123.02 7801.97H5350.28V8556.74H6123.02V7801.97Z" fill="#EBE9FF"/>
<path d="M5921.28 7717.02C5921.28 7745.84 5919.45 7774.12 5916.01 7801.97H5345.65V8378.02C5315.76 8382.11 5285.11 8384.26 5254.14 8384.26C4885.73 8384.26 4587 8085.53 4587 7717.13C4587 7348.72 4885.73 7050 5254.14 7050C5622.55 7049.89 5921.28 7348.72 5921.28 7717.02Z" fill="#C3BDFF"/>
<path d="M4158.28 4777.02C4158.28 4805.84 4156.45 4834.12 4153.01 4861.97H3582.65V5438.02C3552.76 5442.11 3522.11 5444.26 3491.14 5444.26C3122.73 5444.26 2824 5145.53 2824 4777.13C2824 4408.72 3122.73 4110 3491.14 4110C3859.55 4109.89 4158.28 4408.72 4158.28 4777.02Z" fill="#C3BDFF"/>
<path d="M6790.28 1114.02C6790.28 1142.84 6788.45 1171.12 6785.01 1198.97H6214.65V1775.02C6184.76 1779.11 6154.11 1781.26 6123.14 1781.26C5754.73 1781.26 5456 1482.53 5456 1114.13C5456 745.724 5754.73 447 6123.14 447C6491.55 446.892 6790.28 745.724 6790.28 1114.02Z" fill="#C3BDFF"/>
<path d="M5916.01 7801.97C5878.05 8100.27 5643.09 8337.16 5345.65 8378.02V7801.97H5916.01Z" fill="#4A3AFF"/>
<path d="M4153.01 4861.97C4115.05 5160.27 3880.09 5397.16 3582.65 5438.02V4861.97H4153.01Z" fill="#4A3AFF"/>
<path d="M3585 5510.4L4489.58 6406.68" stroke="white" stroke-width="2.233" stroke-miterlimit="10"/>
<path d="M8408 7303.4L9312.58 8199.68" stroke="#4A3AFF" stroke-width="2.233" stroke-miterlimit="10"/>
<path d="M4347 3367.4L5251.58 4263.68" stroke="white" stroke-width="2.233" stroke-miterlimit="10"/>
<path d="M8732 4765.4L9636.58 5661.68" stroke="white" stroke-width="2.233" stroke-miterlimit="10"/>
<path d="M-7 1803.4L897.577 2699.68" stroke="#4A3AFF" stroke-width="2.233" stroke-miterlimit="10"/>
<path d="M2017 597.403L2921.58 1493.68" stroke="#4A3AFF" stroke-width="2.233" stroke-miterlimit="10"/>
<path d="M3585 5322.01L4489.58 6218.18" stroke="white" stroke-width="2.233" stroke-miterlimit="10"/>
<path d="M8408 7115.01L9312.58 8011.18" stroke="#4A3AFF" stroke-width="2.233" stroke-miterlimit="10"/>
<path d="M4347 3179.01L5251.58 4075.18" stroke="white" stroke-width="2.233" stroke-miterlimit="10"/>
<path d="M8732 4577.01L9636.58 5473.18" stroke="white" stroke-width="2.233" stroke-miterlimit="10"/>
<path d="M-7 1615.01L897.577 2511.18" stroke="#4A3AFF" stroke-width="2.233" stroke-miterlimit="10"/>
<path d="M2017 409.007L2921.58 1305.18" stroke="#4A3AFF" stroke-width="2.233" stroke-miterlimit="10"/>
<path d="M3585 5133.5L4489.58 6029.68" stroke="white" stroke-width="2.233" stroke-miterlimit="10"/>
<path d="M8408 6926.5L9312.58 7822.68" stroke="#4A3AFF" stroke-width="2.233" stroke-miterlimit="10"/>
<path d="M4347 2990.5L5251.58 3886.68" stroke="white" stroke-width="2.233" stroke-miterlimit="10"/>
<path d="M8732 4388.5L9636.58 5284.68" stroke="white" stroke-width="2.233" stroke-miterlimit="10"/>
<path d="M-7 1426.5L897.577 2322.68" stroke="#4A3AFF" stroke-width="2.233" stroke-miterlimit="10"/>
<path d="M2017 220.503L2921.58 1116.68" stroke="#4A3AFF" stroke-width="2.233" stroke-miterlimit="10"/>
<path d="M3585 4945L4489.58 5841.28" stroke="white" stroke-width="2.233" stroke-miterlimit="10"/>
<path d="M8408 6738L9312.58 7634.28" stroke="#4A3AFF" stroke-width="2.233" stroke-miterlimit="10"/>
<path d="M4347 2802L5251.58 3698.28" stroke="white" stroke-width="2.233" stroke-miterlimit="10"/>
<path d="M8732 4200L9636.58 5096.28" stroke="white" stroke-width="2.233" stroke-miterlimit="10"/>
<path d="M-7 1238L897.577 2134.28" stroke="#4A3AFF" stroke-width="2.233" stroke-miterlimit="10"/>
<path d="M2017 32L2921.58 928.28" stroke="#4A3AFF" stroke-width="2.233" stroke-miterlimit="10"/>
<path d="M445.271 7294.53C551.459 7294.53 637.542 7208.45 637.542 7102.27C637.542 6996.08 551.459 6910 445.271 6910C339.082 6910 253 6996.08 253 7102.27C253 7208.45 339.082 7294.53 445.271 7294.53Z" fill="white"/>
<path d="M445.271 6910C441.508 6910 437.744 6910.32 433.98 6910.54V7293.89C437.744 7294.1 441.508 7294.43 445.271 7294.43C551.408 7294.43 637.542 7208.4 637.542 7102.16C637.435 6996.13 551.408 6910 445.271 6910Z" fill="#D7D3FF"/>
<path d="M6607.27 5054.53C6713.46 5054.53 6799.54 4968.45 6799.54 4862.27C6799.54 4756.08 6713.46 4670 6607.27 4670C6501.08 4670 6415 4756.08 6415 4862.27C6415 4968.45 6501.08 5054.53 6607.27 5054.53Z" fill="white"/>
<path d="M6607.27 4670C6603.51 4670 6599.74 4670.32 6595.98 4670.54V5053.89C6599.74 5054.1 6603.51 5054.43 6607.27 5054.43C6713.41 5054.43 6799.54 4968.4 6799.54 4862.16C6799.43 4756.13 6713.41 4670 6607.27 4670Z" fill="#D7D3FF"/>
<path d="M765.272 4323.53C659.084 4323.53 573.001 4237.45 573.001 4131.27C573.001 4025.08 659.084 3939 765.272 3939C871.461 3939 957.543 4025.08 957.543 4131.27C957.543 4237.45 871.461 4323.53 765.272 4323.53Z" fill="white"/>
<path d="M765.272 3939C769.035 3939 772.799 3939.32 776.562 3939.54V4322.89C772.799 4323.1 769.035 4323.43 765.272 4323.43C659.135 4323.43 573.001 4237.4 573.001 4131.16C573.108 4025.13 659.135 3939 765.272 3939Z" fill="#D7D3FF"/>
<path d="M7866.27 4200.53C7972.46 4200.53 8058.54 4114.45 8058.54 4008.27C8058.54 3902.08 7972.46 3816 7866.27 3816C7760.08 3816 7674 3902.08 7674 4008.27C7674 4114.45 7760.08 4200.53 7866.27 4200.53Z" fill="#EBE9FF"/>
<path d="M7866.27 3816C7862.51 3816 7858.74 3816.32 7854.98 3816.54V4199.89C7858.74 4200.1 7862.51 4200.43 7866.27 4200.43C7972.41 4200.43 8058.54 4114.4 8058.54 4008.16C8058.43 3902.13 7972.41 3816 7866.27 3816Z" fill="#4A3AFF"/>
<path d="M9116.27 3684.53C9222.46 3684.53 9308.54 3598.45 9308.54 3492.27C9308.54 3386.08 9222.46 3300 9116.27 3300C9010.08 3300 8924 3386.08 8924 3492.27C8924 3598.45 9010.08 3684.53 9116.27 3684.53Z" fill="white"/>
<path d="M9116.27 3300C9112.51 3300 9108.74 3300.32 9104.98 3300.54V3683.89C9108.74 3684.1 9112.51 3684.43 9116.27 3684.43C9222.41 3684.43 9308.54 3598.4 9308.54 3492.16C9308.43 3386.13 9222.41 3300 9116.27 3300Z" fill="#D7D3FF"/>
<path d="M1545.07 6962C1545.07 6962 1545.07 8096.14 1545.07 8120.01" stroke="#9A92FF" stroke-width="3.5328" stroke-miterlimit="10"/>
<path d="M2124.03 7540.95C2124.03 7540.95 989.873 7540.95 966 7540.95" stroke="#9A92FF" stroke-width="3.5328" stroke-miterlimit="10"/>
<path d="M1954.45 7131.58C1954.45 7131.58 1152.46 7933.55 1135.58 7950.43" stroke="#9A92FF" stroke-width="3.5328" stroke-miterlimit="10"/>
<path d="M1954.45 7950.33C1954.45 7950.33 1152.46 7148.35 1135.58 7131.47" stroke="#9A92FF" stroke-width="3.5328" stroke-miterlimit="10"/>
<path d="M2086.08 7334.71C2086.08 7334.71 1026.33 7738.6 1003.96 7747.09" stroke="#9A92FF" stroke-width="3.5328" stroke-miterlimit="10"/>
<path d="M1751.32 8081.95C1751.32 8081.95 1347.42 7022.22 1338.93 6999.85" stroke="#9A92FF" stroke-width="3.5328" stroke-miterlimit="10"/>
<path d="M2073.5 7777.74C2073.5 7777.74 1038.48 7313.95 1016.76 7304.27" stroke="#9A92FF" stroke-width="3.5328" stroke-miterlimit="10"/>
<path d="M1308.28 8069.36C1308.28 8069.36 1772.08 7034.37 1781.75 7012.65" stroke="#9A92FF" stroke-width="3.5328" stroke-miterlimit="10"/>
<path d="M4203.65 8082.06C4203.65 8423.68 3926.7 8700.62 3585.07 8700.62C3243.44 8700.62 2966.5 8423.68 2966.5 8082.06C2966.5 7740.44 3243.44 7463.5 3585.07 7463.5C3926.7 7463.5 4203.65 7740.44 4203.65 8082.06Z" fill="#4A3AFF" stroke="white"/>
<path d="M3585.07 8542.08C3839.14 8542.08 4045.1 8336.13 4045.1 8082.06C4045.1 7828 3839.14 7622.04 3585.07 7622.04C3331.01 7622.04 3125.04 7828 3125.04 8082.06C3125.04 8336.13 3331.01 8542.08 3585.07 8542.08Z" fill="#4A3AFF" stroke="white" stroke-width="2.233" stroke-miterlimit="10"/>
<path d="M3868.58 8126.49C3893.18 7970.02 3786.27 7823.23 3629.8 7798.63C3473.32 7774.03 3326.54 7880.94 3301.94 8037.41C3277.34 8193.88 3384.25 8340.67 3540.72 8365.27C3697.2 8389.87 3843.99 8282.96 3868.58 8126.49Z" fill="#4A3AFF" stroke="white" stroke-width="2.233" stroke-miterlimit="10"/>
<path d="M3681.65 8178.75C3735.03 8125.37 3735.03 8038.84 3681.65 7985.46C3628.28 7932.09 3541.74 7932.09 3488.37 7985.46C3434.99 8038.84 3434.99 8125.37 3488.37 8178.75C3541.74 8232.12 3628.28 8232.12 3681.65 8178.75Z" fill="#4A3AFF" stroke="white" stroke-width="2.233" stroke-miterlimit="10"/>
<path d="M8407.65 619.062C8407.65 960.684 8130.7 1237.62 7789.07 1237.62C7447.44 1237.62 7170.5 960.684 7170.5 619.062C7170.5 277.44 7447.44 0.5 7789.07 0.5C8130.7 0.5 8407.65 277.44 8407.65 619.062Z" fill="#4A3AFF" stroke="white"/>
<path d="M7789.07 1079.08C8043.14 1079.08 8249.1 873.125 8249.1 619.062C8249.1 364.999 8043.14 159.04 7789.07 159.04C7535.01 159.04 7329.04 364.999 7329.04 619.062C7329.04 873.125 7535.01 1079.08 7789.07 1079.08Z" fill="#4A3AFF" stroke="white" stroke-width="2.233" stroke-miterlimit="10"/>
<path d="M8072.58 663.488C8097.18 507.016 7990.27 360.23 7833.8 335.632C7677.32 311.035 7530.54 417.94 7505.94 574.412C7481.34 730.884 7588.25 877.67 7744.72 902.268C7901.2 926.865 8047.99 819.96 8072.58 663.488Z" fill="#4A3AFF" stroke="white" stroke-width="2.233" stroke-miterlimit="10"/>
<path d="M7885.65 715.747C7939.03 662.374 7939.03 575.837 7885.65 522.464C7832.28 469.09 7745.74 469.09 7692.37 522.464C7638.99 575.838 7638.99 662.373 7692.37 715.747C7745.74 769.121 7832.28 769.121 7885.65 715.747Z" fill="#4A3AFF" stroke="white" stroke-width="2.233" stroke-miterlimit="10"/>
<path d="M2369.65 2802.06C2369.65 3143.68 2092.7 3420.62 1751.07 3420.62C1409.44 3420.62 1132.5 3143.68 1132.5 2802.06C1132.5 2460.44 1409.44 2183.5 1751.07 2183.5C2092.7 2183.5 2369.65 2460.44 2369.65 2802.06Z" fill="#4A3AFF" stroke="white"/>
<path d="M1751.07 3262.08C2005.14 3262.08 2211.1 3056.13 2211.1 2802.06C2211.1 2548 2005.14 2342.04 1751.07 2342.04C1497.01 2342.04 1291.04 2548 1291.04 2802.06C1291.04 3056.13 1497.01 3262.08 1751.07 3262.08Z" fill="#4A3AFF" stroke="white" stroke-width="2.233" stroke-miterlimit="10"/>
<path d="M2034.58 2846.49C2059.18 2690.02 1952.27 2543.23 1795.8 2518.63C1639.32 2494.03 1492.54 2600.94 1467.94 2757.41C1443.34 2913.88 1550.25 3060.67 1706.72 3085.27C1863.2 3109.87 2009.99 3002.96 2034.58 2846.49Z" fill="#4A3AFF" stroke="white" stroke-width="2.233" stroke-miterlimit="10"/>
<path d="M1847.65 2898.75C1901.03 2845.37 1901.03 2758.84 1847.65 2705.46C1794.28 2652.09 1707.74 2652.09 1654.37 2705.46C1600.99 2758.84 1600.99 2845.37 1654.37 2898.75C1707.74 2952.12 1794.28 2952.12 1847.65 2898.75Z" fill="#4A3AFF" stroke="white" stroke-width="2.233" stroke-miterlimit="10"/>
<path d="M7170.44 6386.23L6458.13 5673.83H7170.44V6386.23Z" fill="#EBE9FF"/>
<path d="M8117.31 3347.4L7405 2635H8117.31V3347.4Z" fill="#EBE9FF"/>
<path d="M4468.31 2139.4L3756 1427H4468.31V2139.4Z" fill="#EBE9FF"/>
<path d="M1558.31 1932.4L846 1220H1558.31V1932.4Z" fill="#EBE9FF"/>
<path d="M3584.5 2533.56L3750.01 2292L3741.91 2584.8L4017.76 2486.69L3839.11 2718.83L4120 2801.61L3839.11 2884.17L4017.76 3116.31L3741.91 3018.2L3750.01 3311L3584.5 3069.44L3418.99 3311L3427.09 3018.2L3151.24 3116.31L3329.89 2884.17L3049 2801.61L3329.89 2718.83L3151.24 2486.69L3427.09 2584.8L3418.99 2292L3584.5 2533.56Z" fill="#AFA7FF"/>
<path d="M7804.5 7135.56L7970.01 6894L7961.91 7186.8L8237.76 7088.69L8059.11 7320.83L8340 7403.61L8059.11 7486.17L8237.76 7718.31L7961.91 7620.2L7970.01 7913L7804.5 7671.44L7638.99 7913L7647.09 7620.2L7371.24 7718.31L7549.89 7486.17L7269 7403.61L7549.89 7320.83L7371.24 7088.69L7647.09 7186.8L7638.99 6894L7804.5 7135.56Z" fill="#4A3AFF"/>
<rect x="5352" y="9011" width="2886" height="989" fill="#EBE9FF"/>
<path d="M5471.08 5586C5921.08 5586 6286 5950.96 6286 6401H4656C4656 5950.96 5020.92 5586 5471.08 5586Z" fill="#D7D3FF"/>
<path d="M7164 2114H5421V2456H7164V2114Z" fill="#D7D3FF"/>
<path d="M7572 9312H5829V9654H7572V9312Z" fill="#D7D3FF"/>
<path d="M7165 1779H5842V2121H7165V1779Z" fill="#4A3AFF"/>
<path d="M7573 8977H6250V9319H7573V8977Z" fill="#4A3AFF"/>
<path d="M7165 1467H6199V1781H7165V1467Z" fill="#D7D3FF"/>
<path d="M7573 8665H6607V8979H7573V8665Z" fill="#D7D3FF"/>
<path d="M7164 2449H4935V2802H7164V2449Z" fill="#4A3AFF"/>
<path d="M7572 9647H5343V10000H7572V9647Z" fill="#4A3AFF"/>
<path d="M7499.05 3384H7170V6415.33H7499.05V3384Z" fill="#D7D3FF"/>
<path d="M7499.05 3384H7170V5580.56H7499.05V3384Z" fill="#EBE9FF"/>
<path d="M7499 4184H7164V5674H7499V4184Z" fill="#4A3AFF"/>
<path d="M8232 5711H7499V6423H8232V5711Z" fill="#D7D3FF"/>
<path d="M8232 6423L7499 5711H8232V6423Z" fill="white"/>
<path d="M8249 4950H7499V5674H8249V4950Z" fill="#4A3AFF"/>
<path d="M7866 5485C7967.07 5485 8049 5405.08 8049 5306.5C8049 5207.92 7967.07 5128 7866 5128C7764.93 5128 7683 5207.92 7683 5306.5C7683 5405.08 7764.93 5485 7866 5485Z" fill="#EBE9FF"/>
<path d="M2558.56 5840H1944V6064.96H2558.56V5840Z" fill="#4A3AFF"/>
<path d="M3071 6401V5846.58C3071 5798.46 3031.58 5759 2983.5 5759C2935.42 5759 2896 5798.46 2896 5846.58V6401H3071Z" fill="#4A3AFF"/>
<path d="M2119 5841V5286.58C2119 5238.46 2079.58 5199 2031.5 5199C1983.42 5199 1944 5238.46 1944 5286.58V5841H2119Z" fill="#4A3AFF"/>
<path d="M5332 992V437.576C5332 389.459 5292.58 350 5244.5 350C5196.42 350 5157 389.459 5157 437.576V992H5332Z" fill="#4A3AFF"/>
<path d="M9887 2309V1754.58C9887 1706.46 9847.58 1667 9799.5 1667C9751.42 1667 9712 1706.46 9712 1754.58V2309H9887Z" fill="#4A3AFF"/>
<path d="M9755.84 8191L9505.18 8440.47H8238V8191H9755.84Z" fill="#4A3AFF"/>
<path d="M9231.94 8712.53L8981.38 8962H8238V8712.53H9231.94Z" fill="#4A3AFF"/>
<path d="M8685.23 9256.86L8434.57 9506.22H8238V9256.86H8685.23Z" fill="#4A3AFF"/>
<path d="M9999.73 9010.95H8208V9260.43H9999.73V9010.95Z" fill="#EBE9FF"/>
<path d="M9999.73 9555.28H8208V9804.75H9999.73V9555.28Z" fill="#EBE9FF"/>
</g>
<defs>
<clipPath id="clip0_1702_269">
<rect width="10000" height="10000" fill="white"/>
</clipPath>
</defs>
</svg>
