<svg width="400" height="400" viewBox="0 0 400 400" fill="none" xmlns="http://www.w3.org/2000/svg">
<rect x="200" y="200" width="200" height="200" transform="rotate(180 200 200)" fill="#C2DBFF"/>
<rect x="200" y="200" width="200" height="100" transform="rotate(180 200 200)" fill="#1D1F22"/>
<path d="M100 0C44.7715 0 0 44.7715 0 100L200 100C200 44.7715 155.228 0 100 0Z" fill="#1D1F22"/>
<rect width="200" height="200" transform="matrix(-1 0 0 1 400 0)" fill="#546EF3"/>
<rect x="200" y="400" width="200" height="200" transform="rotate(180 200 400)" fill="#1D1F22"/>
<path d="M100 300C44.7715 300 0 344.772 0 400H200C200 344.772 155.228 300 100 300Z" fill="#546EF3"/>
<rect width="200" height="200" transform="matrix(-1 0 0 1 400 200)" fill="#546EF3"/>
</svg>
