<svg width="10000" height="10000" viewBox="0 0 10000 10000" fill="none" xmlns="http://www.w3.org/2000/svg">
<g clip-path="url(#clip0_1702_274)">
<rect width="10000" height="10000" fill="white"/>
<path d="M9999.9 7504H7508V9999.51H9999.9V7504Z" fill="#5E50FF"/>
<path d="M7507.9 7504H5016V9999.51H7507.9V7504Z" fill="#D7D3FF"/>
<path d="M10002 5008H7508V7504H10002V5008Z" fill="#D7D3FF"/>
<path d="M7507.9 5008H5016V7503.51H7507.9V5008Z" fill="#5E50FF"/>
<path d="M5017 2513H2524V5009H5017V2513Z" fill="#5E50FF"/>
<path d="M2524 4993H-4V7505H2524V4993Z" fill="#5E50FF"/>
<path d="M5016 7507H2522V10016H5016V7507Z" fill="#5E50FF"/>
<path d="M2522 10001V7507H5017L2522 10001Z" fill="#EBE9FF"/>
<path d="M3039.89 8247.13C3144.14 8247.13 3228.64 8162.56 3228.64 8058.23C3228.64 7953.9 3144.14 7869.32 3039.89 7869.32C2935.64 7869.32 2851.13 7953.9 2851.13 8058.23C2851.13 8162.56 2935.64 8247.13 3039.89 8247.13Z" fill="#5E50FF"/>
<path d="M2524 0H-4V2513H2524V0Z" fill="#5E50FF"/>
<path d="M10001.9 2512H7510V5007.51H10001.9V2512Z" fill="#5E50FF"/>
<path d="M7507.9 2513H5016V5008.51H7507.9V2513Z" fill="#D7D3FF"/>
<path d="M10000 0H7508V2509H10000V0Z" fill="#867CFF"/>
<path d="M7508 0H5016V2513H7508V0Z" fill="#5E50FF"/>
<path d="M5016 0H2524V2512H5016V0Z" fill="#D7D3FF"/>
<path d="M2524 2513H-4V4994H2524V2513Z" fill="#D7D3FF"/>
<path d="M825 3335C369.364 3335 0 3704.5 0 4160.29V4991H825V3335Z" fill="#EBE9FF"/>
<path d="M826 3335C1281.64 3335 1651 3704.5 1651 4160.29V4991H826V3335Z" fill="#EBE9FF"/>
<path d="M825.582 2524.01C825.582 2524.01 844.967 2919.77 619.736 3143C394.505 3366.24 9.4495 3346.56 9.4495 3346.56C9.4495 3346.56 -10.4625 2964.81 214.768 2741.44C439.999 2518.2 825.582 2524.01 825.582 2524.01Z" fill="#5E50FF"/>
<path d="M2522 7507H0V10016H2522V7507Z" fill="#D7D3FF"/>
<path d="M5016 4996H2524V7505H5016V4996Z" fill="#D7D3FF"/>
<path d="M6261.97 1258.55C6261.97 1258.55 6282.12 1669.43 6047.95 1901.2C5813.78 2132.97 5413.57 2112.53 5413.57 2112.53C5413.57 2112.53 5392.87 1716.19 5627.04 1484.28C5861.08 1252.51 6261.97 1258.55 6261.97 1258.55Z" fill="#EBE9FF"/>
<path d="M5413.43 404.015C5413.43 404.015 5393.28 814.893 5627.45 1046.66C5861.62 1278.57 6261.96 1258 6261.96 1258C6261.96 1258 6282.67 861.658 6048.5 629.751C5814.32 397.98 5413.43 404.015 5413.43 404.015Z" fill="#EBE9FF"/>
<path d="M6262.79 1258.55C6262.79 1258.55 6242.63 1669.43 6476.8 1901.2C6710.98 2133.1 7111.32 2112.53 7111.32 2112.53C7111.32 2112.53 7132.02 1716.19 6897.85 1484.28C6663.68 1252.51 6262.79 1258.55 6262.79 1258.55Z" fill="#EBE9FF"/>
<path d="M7111.32 404.015C7111.32 404.015 7131.47 814.893 6897.3 1046.66C6663.13 1278.57 6262.79 1258 6262.79 1258C6262.79 1258 6242.09 861.658 6476.26 629.751C6710.43 397.98 7111.32 404.015 7111.32 404.015Z" fill="#EBE9FF"/>
<path d="M9147.43 9947.08C9147.43 9964.62 9147.13 9982.31 9146.38 9999.7H7508V8396.7C7537.39 8394.9 7566.92 8394 7596.76 8394C8453.13 8394.15 9147.43 9089.35 9147.43 9947.08Z" fill="#D7D3FF"/>
<path d="M8396.16 9947.08C8396.16 9964.62 8395.71 9982.31 8394.51 9999.7H7508V9151.42C7537.09 9148.13 7566.77 9146.48 7596.76 9146.48C8038.14 9146.48 8396.16 9504.95 8396.16 9947.08Z" fill="#EBE9FF"/>
<path d="M5542.6 8251.1C5615.13 8251.03 5673.87 8192.1 5673.8 8119.48C5673.73 8046.87 5614.87 7988.06 5542.33 7988.13C5469.8 7988.2 5411.06 8047.13 5411.13 8119.75C5411.2 8192.36 5470.06 8251.17 5542.6 8251.1Z" fill="#5E50FF"/>
<path d="M5542.46 8875.54C5615 8875.54 5673.8 8816.67 5673.8 8744.05C5673.8 8671.44 5615 8612.57 5542.46 8612.57C5469.93 8612.57 5411.13 8671.44 5411.13 8744.05C5411.13 8816.67 5469.93 8875.54 5542.46 8875.54Z" fill="white"/>
<path d="M5542.46 9516.47C5615 9516.47 5673.8 9457.6 5673.8 9384.98C5673.8 9312.37 5615 9253.5 5542.46 9253.5C5469.93 9253.5 5411.13 9312.37 5411.13 9384.98C5411.13 9457.6 5469.93 9516.47 5542.46 9516.47Z" fill="#5E50FF"/>
<path d="M9843.53 7726.54C9880.07 7726.51 9909.67 7696.82 9909.63 7660.24C9909.59 7623.66 9879.94 7594.03 9843.4 7594.07C9806.86 7594.1 9777.27 7623.79 9777.3 7660.37C9777.34 7696.95 9806.99 7726.58 9843.53 7726.54Z" fill="white"/>
<path d="M9843.47 8041.12C9880.01 8041.12 9909.63 8011.46 9909.63 7974.88C9909.63 7938.3 9880.01 7908.64 9843.47 7908.64C9806.93 7908.64 9777.3 7938.3 9777.3 7974.88C9777.3 8011.46 9806.93 8041.12 9843.47 8041.12Z" fill="white"/>
<path d="M9843.47 8364C9880.01 8364 9909.63 8334.35 9909.63 8297.76C9909.63 8261.18 9880.01 8231.53 9843.47 8231.53C9806.93 8231.53 9777.3 8261.18 9777.3 8297.76C9777.3 8334.35 9806.93 8364 9843.47 8364Z" fill="white"/>
<path d="M7258.3 1006.54C7294.84 1006.51 7324.43 976.821 7324.39 940.238C7324.35 903.656 7294.7 874.03 7258.16 874.066C7221.62 874.103 7192.03 903.789 7192.07 940.371C7192.1 976.953 7221.75 1006.58 7258.3 1006.54Z" fill="white"/>
<path d="M7258.23 1321.12C7294.77 1321.12 7324.39 1291.46 7324.39 1254.88C7324.39 1218.3 7294.77 1188.64 7258.23 1188.64C7221.69 1188.64 7192.07 1218.3 7192.07 1254.88C7192.07 1291.46 7221.69 1321.12 7258.23 1321.12Z" fill="white"/>
<path d="M7258.23 1644C7294.77 1644 7324.39 1614.35 7324.39 1577.76C7324.39 1541.18 7294.77 1511.53 7258.23 1511.53C7221.69 1511.53 7192.07 1541.18 7192.07 1577.76C7192.07 1614.35 7221.69 1644 7258.23 1644Z" fill="white"/>
<path d="M2238.3 6019.54C2274.84 6019.51 2304.43 5989.82 2304.39 5953.24C2304.35 5916.66 2274.7 5887.03 2238.16 5887.07C2201.62 5887.1 2172.03 5916.79 2172.07 5953.37C2172.1 5989.95 2201.75 6019.58 2238.3 6019.54Z" fill="white"/>
<path d="M2238.23 6334.12C2274.77 6334.12 2304.39 6304.46 2304.39 6267.88C2304.39 6231.3 2274.77 6201.64 2238.23 6201.64C2201.69 6201.64 2172.07 6231.3 2172.07 6267.88C2172.07 6304.46 2201.69 6334.12 2238.23 6334.12Z" fill="white"/>
<path d="M2238.23 6657C2274.77 6657 2304.39 6627.35 2304.39 6590.76C2304.39 6554.18 2274.77 6524.53 2238.23 6524.53C2201.69 6524.53 2172.07 6554.18 2172.07 6590.76C2172.07 6627.35 2201.69 6657 2238.23 6657Z" fill="white"/>
<path d="M5265.3 1006.54C5301.84 1006.51 5331.43 976.821 5331.39 940.238C5331.35 903.656 5301.7 874.03 5265.16 874.066C5228.62 874.103 5199.03 903.789 5199.07 940.371C5199.1 976.953 5228.75 1006.58 5265.3 1006.54Z" fill="white"/>
<path d="M5265.23 1321.12C5301.77 1321.12 5331.39 1291.46 5331.39 1254.88C5331.39 1218.3 5301.77 1188.64 5265.23 1188.64C5228.69 1188.64 5199.07 1218.3 5199.07 1254.88C5199.07 1291.46 5228.69 1321.12 5265.23 1321.12Z" fill="white"/>
<path d="M5265.23 1644C5301.77 1644 5331.39 1614.35 5331.39 1577.76C5331.39 1541.18 5301.77 1511.53 5265.23 1511.53C5228.69 1511.53 5199.07 1541.18 5199.07 1577.76C5199.07 1614.35 5228.69 1644 5265.23 1644Z" fill="white"/>
<path d="M6295 7504V9998C6966.34 9985.69 7507 9432.38 7507 8751.07C7507 8069.62 6966.34 7516.31 6295 7504Z" fill="#EBE9FF"/>
<path d="M9689.47 6255.28V6255.43C9689.47 6260.98 9689.47 6266.53 9689.32 6272.07C9680.47 6781.52 9265.18 7191.87 8754.38 7191.87C8243.44 7191.87 7828.3 6781.52 7819.45 6272.07C7819.3 6266.53 7819.3 6260.98 7819.3 6255.43V6255.28C7819.45 5738.19 8238.04 5319.15 8754.23 5319H8754.53C9270.72 5319.15 9689.32 5738.19 9689.47 6255.28Z" fill="#5E50FF"/>
<path d="M8754.23 5332.19C8754.23 5842.09 8341.49 6255.43 7832.19 6255.43C7827.7 6255.43 7823.5 6255.43 7819 6255.28C7819.15 5738.19 8237.74 5319.15 8753.93 5319C8754.23 5323.35 8754.23 5327.7 8754.23 5332.19Z" fill="#EBE9FF"/>
<path d="M9689.46 6255.28C9684.97 6255.43 9680.77 6255.43 9676.27 6255.43C9166.97 6255.43 8754.23 5842.09 8754.23 5332.19C8754.23 5327.7 8754.23 5323.5 8754.38 5319C9270.72 5319.15 9689.31 5738.19 9689.46 6255.28Z" fill="#EBE9FF"/>
<path d="M8754.23 7192.02C8243.29 7192.02 7828.15 6781.67 7819.3 6272.22C7823.65 6272.07 7828 6272.07 7832.34 6272.07C8340.29 6271.92 8752.43 6683.47 8754.23 7192.02Z" fill="#EBE9FF"/>
<path d="M9689.32 6272.07C9680.47 6781.52 9265.18 7191.87 8754.38 7191.87C8756.18 6683.32 9168.33 6271.92 9676.42 6271.92C9680.47 6271.92 9684.97 6271.92 9689.32 6272.07Z" fill="#EBE9FF"/>
<path d="M5305 6259H5016V7504H6261V7215C6261 6687.02 5832.98 6259 5305 6259Z" fill="#EBE9FF"/>
<path d="M7510 5008H6262V5302C6262 5829.98 6690.02 6258 7218 6258H7510V5008Z" fill="#D7D3FF"/>
<path d="M7510 2512V5008C8181.88 4995.68 8723 4441.92 8723 3760.07C8723 3078.08 8182.03 2524.32 7510 2512Z" fill="#EBE9FF"/>
<path d="M8781 2512V5008C9453.45 4995.68 9995 4441.92 9995 3760.07C9995 3078.08 9453.45 2524.32 8781 2512Z" fill="#D7D3FF"/>
<path d="M5513.59 3301.08C5689.54 3301.08 5832.18 3158.24 5832.18 2982.04C5832.18 2805.84 5689.54 2663 5513.59 2663C5337.64 2663 5195 2805.84 5195 2982.04C5195 3158.24 5337.64 3301.08 5513.59 3301.08Z" fill="#5E50FF"/>
<path d="M6261.57 3301.08C6437.52 3301.08 6580.16 3158.24 6580.16 2982.04C6580.16 2805.84 6437.52 2663 6261.57 2663C6085.61 2663 5942.98 2805.84 5942.98 2982.04C5942.98 3158.24 6085.61 3301.08 6261.57 3301.08Z" fill="white"/>
<path d="M7009.69 3301.08C7185.65 3301.08 7328.28 3158.24 7328.28 2982.04C7328.28 2805.84 7185.65 2663 7009.69 2663C6833.74 2663 6691.1 2805.84 6691.1 2982.04C6691.1 3158.24 6833.74 3301.08 7009.69 3301.08Z" fill="#5E50FF"/>
<path d="M5513.59 4858.21C5689.54 4858.21 5832.18 4715.37 5832.18 4539.17C5832.18 4362.96 5689.54 4220.12 5513.59 4220.12C5337.64 4220.12 5195 4362.96 5195 4539.17C5195 4715.37 5337.64 4858.21 5513.59 4858.21Z" fill="#5E50FF"/>
<path d="M6261.57 4858.21C6437.52 4858.21 6580.16 4715.37 6580.16 4539.17C6580.16 4362.96 6437.52 4220.12 6261.57 4220.12C6085.61 4220.12 5942.98 4362.96 5942.98 4539.17C5942.98 4715.37 6085.61 4858.21 6261.57 4858.21Z" fill="#5E50FF"/>
<path d="M7009.69 4858.21C7185.65 4858.21 7328.28 4715.37 7328.28 4539.17C7328.28 4362.96 7185.65 4220.12 7009.69 4220.12C6833.74 4220.12 6691.1 4362.96 6691.1 4539.17C6691.1 4715.37 6833.74 4858.21 7009.69 4858.21Z" fill="white"/>
<path d="M7508 1243.63L8751.5 -1L9995 1243.63L9991.63 1247.01H7512.37V1248L7508 1243.63Z" fill="#C3BDFF"/>
<path d="M9014.46 1248.46C9014.61 1104.36 8898.07 987.427 8754.14 987.275C8610.22 987.123 8493.43 1103.81 8493.28 1247.91C8493.12 1392.01 8609.67 1508.94 8753.59 1509.09C8897.52 1509.24 9014.31 1392.56 9014.46 1248.46Z" fill="#AFA7FF"/>
<path d="M4891.43 190.042C4891.43 807.734 4396.97 1308.33 3786.93 1308.33C3781.53 1308.33 3776.43 1308.33 3771.19 1308.18C3771.34 681.947 4272.69 174.3 4891.28 174C4891.43 179.547 4891.43 184.645 4891.43 190.042Z" fill="#EBE9FF"/>
<path d="M2649 190.042C2649 807.734 3143.45 1308.33 3753.5 1308.33C3758.9 1308.33 3763.99 1308.33 3769.24 1308.18C3769.09 681.947 3267.74 174.3 2649.15 174C2649 179.547 2649 184.645 2649 190.042Z" fill="#EBE9FF"/>
<path d="M2649 1223.33C2649 1841.02 3143.46 2341.62 3753.5 2341.62C3758.9 2341.62 3763.99 2341.62 3769.24 2341.47C3769.09 1715.23 3267.74 1207.59 2649.15 1207.29C2649 1212.68 2649 1217.93 2649 1223.33Z" fill="#5E50FF"/>
<path d="M4891.43 1223.33C4891.43 1841.02 4396.98 2341.62 3786.93 2341.62C3781.53 2341.62 3776.44 2341.62 3771.19 2341.47C3771.34 1715.23 4272.69 1207.59 4891.28 1207.29C4891.43 1212.68 4891.43 1217.93 4891.43 1223.33Z" fill="#5E50FF"/>
<path d="M2524 5691.96L3076.86 6256.78H3773.73V5558.53L3220.87 4993.71L2524 5691.96Z" fill="#5E50FF"/>
<path d="M3230.43 4993.71H2524V5691.96H3230.43V4993.71Z" fill="white"/>
<path d="M5017.94 5533.62L4482.1 4993.71L3775.68 5691.96L4336.16 6256.78H5017.94V5533.62Z" fill="#EBE9FF"/>
<path d="M4482.1 4993.71H3775.68V5691.96H4482.1V4993.71Z" fill="white"/>
<path d="M2522 6948.51L3079.87 7506.53H3783.14V6816.7L3225.13 6258.54L2522 6948.51Z" fill="#EBE9FF"/>
<path d="M3225.27 6254.5H2522V6946.72H3225.27V6254.5Z" fill="white"/>
<path d="M5016.94 6800.26L4473.42 6251.36L3772.98 6945.22L4328.76 7506.53H5016.94V6800.26Z" fill="#5E50FF"/>
<path d="M4473.42 6251.36H3772.98V6945.22H4473.42V6251.36Z" fill="white"/>
<path d="M5016.98 3839.96V4995.83H3855.12C3858.65 4356.9 4377.49 3839.96 5016.98 3839.96Z" fill="#D7D3FF"/>
<path d="M5016.6 4421.61V4996.2H4436.05C4439.39 4678.23 4697.98 4421.61 5016.6 4421.61Z" fill="white"/>
<path d="M2524 2513C3215.5 2513 3776 3073.96 3776 3766.02V4996H2524V2513Z" fill="#AFA7FF"/>
<path d="M4696.21 3517.94C4839.88 3374.22 4839.88 3141.22 4696.21 2997.51C4552.54 2853.8 4319.61 2853.8 4175.94 2997.51C4032.27 3141.22 4032.27 3374.22 4175.94 3517.94C4319.61 3661.65 4552.54 3661.65 4696.21 3517.94Z" fill="#EBE9FF"/>
<path d="M1911.41 4021.63C2055.08 3877.92 2055.08 3644.92 1911.41 3501.21C1767.74 3357.5 1534.8 3357.5 1391.14 3501.21C1247.47 3644.92 1247.47 3877.92 1391.14 4021.63C1534.8 4165.34 1767.74 4165.34 1911.41 4021.63Z" fill="#5E50FF"/>
<path d="M1249.2 5624.02L624.738 5939.46L0.28125 6254.89V5624.02V4993L624.738 5308.44L1249.2 5624.02Z" fill="#EBE9FF"/>
<path d="M1249.2 6874.13L624.738 7189.56L0.28125 7505V6874.13V6243.11L624.738 6558.54L1249.2 6874.13Z" fill="#EBE9FF"/>
<path d="M1262 10000C1959.08 10000 2524 9434.95 2524 8738H1262V10000Z" fill="#EBE9FF"/>
<path d="M1262 10000C564.92 10000 0 9434.95 0 8738H1262V10000Z" fill="white"/>
<path d="M0 7476C697.08 7476 1262 8041.05 1262 8738H0V7476Z" fill="#EBE9FF"/>
<path d="M1843.75 8045.9C2142.35 8045.9 2384.49 7803.69 2384.49 7505H1303C1303 7803.69 1545.06 8045.9 1843.75 8045.9Z" fill="#5E50FF"/>
<path d="M1904.75 3052.9C2203.35 3052.9 2445.49 2810.69 2445.49 2512H1364C1364 2810.69 1606.06 3052.9 1904.75 3052.9Z" fill="#5E50FF"/>
<path d="M1256.5 1189C1912.79 1189 2445 656.569 2445 0H68C68 656.569 600.017 1189 1256.5 1189Z" fill="#EBE9FF"/>
<path d="M1256.5 1324C1912.79 1324 2445 1856.43 2445 2513H68C68 1856.43 600.017 1324 1256.5 1324Z" fill="#EBE9FF"/>
</g>
<defs>
<clipPath id="clip0_1702_274">
<rect width="10000" height="10000" fill="white"/>
</clipPath>
</defs>
</svg>
