<svg width="400" height="400" viewBox="0 0 400 400" fill="none" xmlns="http://www.w3.org/2000/svg">
<rect width="200" height="200" fill="#546EF3"/>
<path d="M-1.52588e-05 0C-1.52588e-05 26.2644 5.17313 52.2716 15.2241 76.5367C25.275 100.802 40.0069 122.85 58.5786 141.421C77.1503 159.993 99.1982 174.725 123.463 184.776C147.728 194.827 173.736 200 200 200L200 0H-1.52588e-05Z" fill="#C2DBFF"/>
<rect width="200" height="200" transform="matrix(-1 0 0 1 400 0)" fill="#C2DBFF"/>
<path d="M400 0C400 26.2644 394.827 52.2716 384.776 76.5367C374.725 100.802 359.993 122.85 341.421 141.421C322.85 159.993 300.802 174.725 276.537 184.776C252.272 194.827 226.264 200 200 200L200 0H400Z" fill="#1D1F22"/>
<rect y="200" width="200" height="200" fill="#546EF3"/>
<rect y="300" width="200" height="100" fill="#1D1F22"/>
<path d="M100 200C155.228 200 200 244.772 200 300H0C0 244.772 44.7715 200 100 200Z" fill="#1D1F22"/>
<rect width="200" height="200" transform="matrix(-1 0 0 1 400 200)" fill="#1D1F22"/>
<rect width="200" height="100" transform="matrix(-1 0 0 1 400 200)" fill="#C2DBFF"/>
<path d="M300 400C244.772 400 200 355.228 200 300H400C400 355.228 355.228 400 300 400Z" fill="#C2DBFF"/>
</svg>
