<svg width="10000" height="9669" viewBox="0 0 10000 9669" fill="none" xmlns="http://www.w3.org/2000/svg">
<g clip-path="url(#clip0_1702_273)">
<rect width="10000" height="9669" fill="#EBE9FF"/>
<rect x="4121" y="5523" width="2784" height="1382" fill="#867CFF"/>
<path d="M4122 6906H4533.55C4533.55 6369.34 4968.57 5934.43 5505.11 5934.43V6906H5506V5522C4741.7 5522 4122 6141.59 4122 6906Z" fill="#4A3AFF"/>
<rect x="4143" y="4147" width="2762" height="1382" fill="#AFA7FF"/>
<path d="M4139 5523.58V5528H3448.5H2758L3448.5 4147L4135.46 5523.58H4139Z" fill="#D7D3FF"/>
<path d="M4126 4823.91V5497.49H4122.53L3448 4146H4126V4823.91Z" fill="#AFA7FF"/>
<path d="M1384.11 6213.91V6904.82H2758V5523H1384.11V6213.91Z" fill="#867CFF"/>
<path d="M2736.24 6904.82H2758C2758 6142.83 2141.73 5523 1384.11 5523V5544.89C2129.64 5544.89 2736.24 6154.99 2736.24 6904.82Z" fill="white"/>
<path d="M2608.75 6904.82H2630.51C2630.62 6213.58 2071.39 5651.12 1384.12 5651.12V5673.01C2059.41 5673.12 2608.75 6225.63 2608.75 6904.82Z" fill="white"/>
<path d="M2481.35 6904.82H2503.11C2503.22 6284.22 2001.15 5779.25 1384.11 5779.25V5801.13C1989.17 5801.24 2481.35 6296.27 2481.35 6904.82Z" fill="white"/>
<path d="M2353.96 6904.82H2375.73C2375.73 6354.86 1930.92 5907.48 1384.11 5907.48V5929.37C1918.94 5929.37 2353.96 6366.91 2353.96 6904.82Z" fill="white"/>
<path d="M2226.58 6904.82H2248.34C2248.34 6425.5 1860.68 6035.6 1384.11 6035.6V6057.49C1848.59 6057.49 2226.58 6437.66 2226.58 6904.82Z" fill="white"/>
<path d="M2099.19 6904.82H2120.96C2120.96 6496.13 1790.45 6163.72 1384.11 6163.72V6185.61C1778.36 6185.61 2099.19 6508.3 2099.19 6904.82Z" fill="white"/>
<path d="M1971.7 6904.82H1993.46C1993.46 6566.88 1720.11 6291.85 1384 6291.85V6313.73C1708.13 6313.84 1971.7 6578.93 1971.7 6904.82Z" fill="white"/>
<path d="M1844.3 6904.82H1866.07C1866.07 6637.52 1649.87 6419.97 1384 6419.97V6441.86C1637.89 6441.97 1844.3 6649.57 1844.3 6904.82Z" fill="white"/>
<path d="M1716.93 6904.82H1738.69C1738.69 6708.16 1579.65 6548.2 1384.11 6548.2V6570.09C1567.67 6570.09 1716.93 6720.21 1716.93 6904.82Z" fill="white"/>
<path d="M1589.54 6904.82H1611.3C1611.3 6778.8 1509.41 6676.32 1384.11 6676.32V6698.21C1497.43 6698.21 1589.54 6790.96 1589.54 6904.82Z" fill="white"/>
<path d="M1462.15 6904.82H1483.91C1483.91 6849.44 1439.18 6804.45 1384.11 6804.45V6826.34C1427.09 6826.34 1462.15 6861.6 1462.15 6904.82Z" fill="white"/>
<path d="M2758 5523H4140C3758.35 5523 3449 5833.65 3449 6216.91C3449 6600.17 3758.35 6910.82 4140 6910.82H3449H2758V5523Z" fill="#5E50FF"/>
<path d="M6912 2072.91V2763.82H5530V1382H6912V2072.91Z" fill="#867CFF"/>
<path d="M5551.89 2763.82H5530C5530 2001.83 6149.91 1382 6912 1382V1403.89C6162.07 1403.89 5551.89 2013.99 5551.89 2763.82Z" fill="#C3BDFF"/>
<path d="M5679.89 2763.7H5658C5657.89 2072.46 6220.42 1510 6911.75 1510V1531.89C6232.47 1532 5679.89 2084.51 5679.89 2763.7Z" fill="#C3BDFF"/>
<path d="M5807.89 2763.58H5786C5785.89 2142.97 6290.93 1638 6911.61 1638V1659.89C6302.98 1660 5807.89 2155.02 5807.89 2763.58Z" fill="#C3BDFF"/>
<path d="M5936.42 2763.82H5914.53C5914.53 2213.86 6361.96 1766.48 6912 1766.48V1788.37C6374.01 1788.37 5936.42 2225.91 5936.42 2763.82Z" fill="#C3BDFF"/>
<path d="M6064.56 2763.82H6042.67C6042.67 2284.5 6432.61 1894.6 6912 1894.6V1916.49C6444.77 1916.49 6064.56 2296.66 6064.56 2763.82Z" fill="#C3BDFF"/>
<path d="M6192.7 2763.82H6170.8C6170.8 2355.14 6503.26 2022.72 6912 2022.72V2044.61C6515.42 2044.61 6192.7 2367.3 6192.7 2763.82Z" fill="#C3BDFF"/>
<path d="M6320.95 2763.82H6299.05C6299.05 2425.88 6574.02 2150.85 6912.11 2150.85V2172.73C6586.07 2172.84 6320.95 2437.93 6320.95 2763.82Z" fill="#C3BDFF"/>
<path d="M6449.09 2763.82H6427.2C6427.2 2496.52 6644.67 2278.97 6912.11 2278.97V2300.86C6656.72 2300.97 6449.09 2508.57 6449.09 2763.82Z" fill="#C3BDFF"/>
<path d="M6577.22 2763.82H6555.33C6555.33 2567.16 6715.31 2407.2 6912 2407.2V2429.09C6727.36 2429.09 6577.22 2579.21 6577.22 2763.82Z" fill="#C3BDFF"/>
<path d="M6705.36 2763.82H6683.47C6683.47 2637.8 6785.96 2535.32 6912 2535.32V2557.21C6798.01 2557.21 6705.36 2649.96 6705.36 2763.82Z" fill="#C3BDFF"/>
<path d="M6833.5 2763.82H6811.61C6811.61 2708.44 6856.61 2663.45 6912 2663.45V2685.34C6868.77 2685.34 6833.5 2720.6 6833.5 2763.82Z" fill="#C3BDFF"/>
<path d="M6912 8977.91V9668.82H5530V8287H6912V8977.91Z" fill="#867CFF"/>
<path d="M5551.89 9668.82H5530C5530 8906.83 6149.91 8287 6912 8287V8308.89C6162.07 8308.89 5551.89 8918.99 5551.89 9668.82Z" fill="#C3BDFF"/>
<path d="M5679.89 9668.7H5658C5657.89 8977.46 6220.42 8415 6911.75 8415V8436.89C6232.47 8437 5679.89 8989.51 5679.89 9668.7Z" fill="#C3BDFF"/>
<path d="M5807.89 9668.58H5786C5785.89 9047.97 6290.93 8543 6911.61 8543V8564.89C6302.98 8565 5807.89 9060.02 5807.89 9668.58Z" fill="#C3BDFF"/>
<path d="M5936.42 9668.82H5914.53C5914.53 9118.86 6361.96 8671.48 6912 8671.48V8693.37C6374.01 8693.37 5936.42 9130.91 5936.42 9668.82Z" fill="#C3BDFF"/>
<path d="M6064.56 9668.82H6042.67C6042.67 9189.5 6432.61 8799.6 6912 8799.6V8821.49C6444.77 8821.49 6064.56 9201.66 6064.56 9668.82Z" fill="#C3BDFF"/>
<path d="M6192.7 9668.82H6170.8C6170.8 9260.13 6503.26 8927.72 6912 8927.72V8949.61C6515.42 8949.61 6192.7 9272.3 6192.7 9668.82Z" fill="#C3BDFF"/>
<path d="M6320.95 9668.82H6299.05C6299.05 9330.88 6574.02 9055.85 6912.11 9055.85V9077.73C6586.07 9077.84 6320.95 9342.93 6320.95 9668.82Z" fill="#C3BDFF"/>
<path d="M6449.09 9668.82H6427.2C6427.2 9401.52 6644.67 9183.97 6912.11 9183.97V9205.86C6656.72 9205.97 6449.09 9413.57 6449.09 9668.82Z" fill="#C3BDFF"/>
<path d="M6577.22 9668.82H6555.33C6555.33 9472.16 6715.31 9312.2 6912 9312.2V9334.09C6727.36 9334.09 6577.22 9484.21 6577.22 9668.82Z" fill="#C3BDFF"/>
<path d="M6705.36 9668.82H6683.47C6683.47 9542.8 6785.96 9440.32 6912 9440.32V9462.21C6798.01 9462.21 6705.36 9554.96 6705.36 9668.82Z" fill="#C3BDFF"/>
<path d="M6833.5 9668.82H6811.61C6811.61 9613.44 6856.61 9568.45 6912 9568.45V9590.34C6868.77 9590.34 6833.5 9625.6 6833.5 9668.82Z" fill="#C3BDFF"/>
<path d="M6921.89 5528.82H6900C6900 4766.83 7519.91 4147 8282 4147V4168.89C7532.07 4168.89 6921.89 4778.99 6921.89 5528.82Z" fill="#9A92FF"/>
<path d="M7049.89 5528.7H7028C7027.89 4837.46 7590.42 4275 8281.75 4275V4296.89C7602.47 4297 7049.89 4849.51 7049.89 5528.7Z" fill="#9A92FF"/>
<path d="M7177.89 5528.58H7156C7155.89 4907.97 7660.93 4403 8281.61 4403V4424.89C7672.98 4425 7177.89 4920.02 7177.89 5528.58Z" fill="#9A92FF"/>
<path d="M7306.42 5528.82H7284.53C7284.53 4978.86 7731.96 4531.48 8282 4531.48V4553.37C7744.01 4553.37 7306.42 4990.91 7306.42 5528.82Z" fill="#9A92FF"/>
<path d="M7434.56 5528.82H7412.67C7412.67 5049.5 7802.61 4659.6 8282 4659.6V4681.49C7814.77 4681.49 7434.56 5061.66 7434.56 5528.82Z" fill="#9A92FF"/>
<path d="M7562.7 5528.82H7540.8C7540.8 5120.13 7873.26 4787.72 8282 4787.72V4809.61C7885.42 4809.61 7562.7 5132.3 7562.7 5528.82Z" fill="#9A92FF"/>
<path d="M7690.95 5528.82H7669.05C7669.05 5190.88 7944.02 4915.85 8282.11 4915.85V4937.73C7956.07 4937.85 7690.95 5202.93 7690.95 5528.82Z" fill="#9A92FF"/>
<path d="M7819.09 5528.82H7797.2C7797.2 5261.52 8014.67 5043.97 8282.11 5043.97V5065.86C8026.72 5065.97 7819.09 5273.57 7819.09 5528.82Z" fill="#9A92FF"/>
<path d="M7947.22 5528.82H7925.33C7925.33 5332.16 8085.31 5172.2 8281.99 5172.2V5194.09C8097.36 5194.09 7947.22 5344.21 7947.22 5528.82Z" fill="#9A92FF"/>
<path d="M8075.36 5528.82H8053.47C8053.47 5402.8 8155.96 5300.32 8282 5300.32V5322.21C8168.01 5322.21 8075.36 5414.96 8075.36 5528.82Z" fill="#9A92FF"/>
<path d="M8203.5 5528.82H8181.61C8181.61 5473.44 8226.61 5428.45 8282 5428.45V5450.34C8238.77 5450.34 8203.5 5485.6 8203.5 5528.82Z" fill="#9A92FF"/>
<path d="M5530 2072.91V2763.82C5148.35 2763.82 4839 2454.52 4839 2072.91C4839 1691.31 5148.35 1382 5530 1382V2072.91Z" fill="#D7D3FF"/>
<path d="M4140 1382H5530C5146.14 1382 4835 1691.35 4835 2073C4835 2454.65 5146.14 2764 5530 2764H4835H4140V1382Z" fill="#5E50FF"/>
<path d="M5530 8977.91V9668.82C5148.35 9668.82 4839 9359.52 4839 8977.91C4839 8596.31 5148.35 8287 5530 8287V8977.91Z" fill="#D7D3FF"/>
<path d="M4140 8287H5530C5146.14 8287 4835 8596.35 4835 8978C4835 9359.65 5146.14 9669 5530 9669H4835H4140V8287Z" fill="#AFA7FF"/>
<rect x="4143" width="2762" height="1382" fill="#867CFF"/>
<rect x="4122" y="6905" width="2783" height="1382" fill="#5E50FF"/>
<rect x="5530" y="2764" width="4470" height="1382" fill="#867CFF"/>
<path d="M3525 2022.91V2713.82C3143.35 2713.82 2834 2404.52 2834 2022.91C2834 1641.31 3143.35 1332 3525 1332V2022.91Z" fill="#D7D3FF"/>
<path d="M3525 8927.91V9618.82C3143.35 9618.82 2834 9309.52 2834 8927.91C2834 8546.31 3143.35 8237 3525 8237V8927.91Z" fill="#D7D3FF"/>
<path d="M6912 4145.82H6501.05C6501.05 3610.01 6066.66 3175.78 5530.88 3175.78V4145.82H5530V2764C6293.2 2764 6912 3382.61 6912 4145.82Z" fill="#5E50FF"/>
<rect x="8282" y="1382" width="1718" height="1382" fill="#5E50FF"/>
<rect x="8282" y="8287" width="1718" height="1382" fill="#4A3AFF"/>
<rect x="6905" width="3095" height="1382" fill="#867CFF"/>
<rect x="6905" y="6905" width="3095" height="1382" fill="#867CFF"/>
<path d="M1382.11 690.912V1381.82H2767V0H1382.11V690.912Z" fill="#867CFF"/>
<path d="M2745.06 1381.82H2767C2767 619.831 2145.79 0 1382.11 0V21.8881C2133.61 21.8881 2745.06 631.991 2745.06 1381.82Z" fill="white"/>
<path d="M2616.55 1381.82H2638.48C2638.6 690.58 2074.89 128.123 1382.11 128.123V150.011C2062.81 150.121 2616.55 702.63 2616.55 1381.82Z" fill="white"/>
<path d="M2488.14 1381.82H2510.07C2510.18 761.219 2004.09 256.245 1382.11 256.245V278.133C1992.01 278.244 2488.14 773.268 2488.14 1381.82Z" fill="white"/>
<path d="M2359.73 1381.82H2381.67C2381.67 831.858 1933.3 384.478 1382.11 384.478V406.367C1921.22 406.367 2359.73 843.907 2359.73 1381.82Z" fill="white"/>
<path d="M2231.32 1381.82H2253.26C2253.26 902.496 1862.5 512.601 1382.11 512.601V534.489C1850.31 534.489 2231.32 914.656 2231.32 1381.82Z" fill="white"/>
<path d="M2102.92 1381.82H2124.86C2124.86 973.135 1791.71 640.724 1382.11 640.724V662.612C1779.52 662.612 2102.92 985.295 2102.92 1381.82Z" fill="white"/>
<path d="M1974.4 1381.82H1996.34C1996.34 1043.88 1720.8 768.846 1382 768.846V790.734C1708.72 790.845 1974.4 1055.93 1974.4 1381.82Z" fill="white"/>
<path d="M1845.99 1381.82H1867.93C1867.93 1114.52 1650 896.969 1382 896.969V918.857C1637.92 918.968 1845.99 1126.57 1845.99 1381.82Z" fill="white"/>
<path d="M1717.59 1381.82H1739.52C1739.52 1185.16 1579.21 1025.2 1382.11 1025.2V1047.09C1567.13 1047.09 1717.59 1197.21 1717.59 1381.82Z" fill="white"/>
<path d="M1589.18 1381.82H1611.12C1611.12 1255.8 1508.41 1153.32 1382.11 1153.32V1175.21C1496.34 1175.21 1589.18 1267.96 1589.18 1381.82Z" fill="white"/>
<path d="M1460.77 1381.82H1482.71C1482.71 1326.44 1437.61 1281.45 1382.11 1281.45V1303.34C1425.43 1303.34 1460.77 1338.6 1460.77 1381.82Z" fill="white"/>
<path d="M2774 2072.91V2763.82H4140V1382H2774V2072.91Z" fill="#867CFF"/>
<path d="M2774 8977.91V9668.82H4140V8287H2774V8977.91Z" fill="#867CFF"/>
<path d="M4146 3454.91V4154.93H5530V2754.89H4146V3454.91Z" fill="#EBE9FF"/>
<path d="M0 690.912C381.653 690.912 691 1000.22 691 1381.82C309.347 1381.82 0 1072.52 0 690.912Z" fill="#D7D3FF"/>
<path d="M691 0C1072.65 0 1382 309.307 1382 690.912C1382 1072.52 1072.65 1381.82 691 1381.82C691 1000.22 381.653 690.912 0 690.912C0 309.307 309.347 0 691 0Z" fill="#4A3AFF"/>
<path d="M0 7595.91C381.653 7595.91 691 7905.22 691 8286.82C309.347 8286.82 0 7977.52 0 7595.91Z" fill="#D7D3FF"/>
<path d="M691 6905C1072.65 6905 1382 7214.31 1382 7595.91C1382 7977.52 1072.65 8286.82 691 8286.82C691 7905.22 381.653 7595.91 0 7595.91C0 7214.31 309.347 6905 691 6905Z" fill="#867CFF"/>
<path d="M8466 6219.91C8847.65 6219.91 9157 6529.22 9157 6910.82C8775.35 6910.82 8466 6601.52 8466 6219.91Z" fill="#D7D3FF"/>
<path d="M9157 5529C9538.65 5529 9848 5838.31 9848 6219.91C9848 6601.52 9538.65 6910.82 9157 6910.82C9157 6529.22 8847.65 6219.91 8466 6219.91C8466 5838.31 8775.35 5529 9157 5529Z" fill="#5E50FF"/>
<path d="M2783.67 2763.65L2762 2763.54L2765.54 0L2787.21 0.110546L2783.67 2763.65Z" fill="#9A92FF"/>
<path d="M2919.55 2763.65L2897.88 2763.54L2901.31 0L2923.09 0.110546L2919.55 2763.65Z" fill="#9A92FF"/>
<path d="M3055.43 2763.65L3033.76 2763.54L3037.19 0L3058.97 0.110546L3055.43 2763.65Z" fill="#9A92FF"/>
<path d="M3191.3 2763.65L3169.63 2763.54L3173.06 0L3194.84 0.110546L3191.3 2763.65Z" fill="#9A92FF"/>
<path d="M3327.18 2763.65L3305.51 2763.54L3308.94 0L3330.61 0.110546L3327.18 2763.65Z" fill="#9A92FF"/>
<path d="M3463.06 2763.65L3441.39 2763.54L3444.82 0L3466.49 0.110546L3463.06 2763.65Z" fill="#9A92FF"/>
<path d="M3598.94 2763.65L3577.16 2763.54L3580.7 0L3602.37 0.110546L3598.94 2763.65Z" fill="#9A92FF"/>
<path d="M3734.82 2763.65L3713.04 2763.54L3716.57 0L3738.24 0.110546L3734.82 2763.65Z" fill="#9A92FF"/>
<path d="M3870.69 2763.65L3848.91 2763.54L3852.45 0L3874.12 0.110546L3870.69 2763.65Z" fill="#9A92FF"/>
<path d="M4006.57 2763.65L3984.79 2763.54L3988.33 0L4010 0.110546L4006.57 2763.65Z" fill="#9A92FF"/>
<path d="M4142.45 2763.65L4120.67 2763.54L4124.21 0L4145.88 0.110546L4142.45 2763.65Z" fill="#9A92FF"/>
<path d="M2783.3 9668.65L2762 9668.54L2765.48 6905L2786.77 6905.11L2783.3 9668.65Z" fill="#9A92FF"/>
<path d="M2916.83 9668.65L2895.54 9668.54L2898.9 6905L2920.31 6905.11L2916.83 9668.65Z" fill="#9A92FF"/>
<path d="M3050.36 9668.65L3029.07 9668.54L3032.43 6905L3053.84 6905.11L3050.36 9668.65Z" fill="#9A92FF"/>
<path d="M3183.9 9668.65L3162.6 9668.54L3165.97 6905L3187.37 6905.11L3183.9 9668.65Z" fill="#9A92FF"/>
<path d="M3317.43 9668.65L3296.13 9668.54L3299.5 6905L3320.8 6905.11L3317.43 9668.65Z" fill="#9A92FF"/>
<path d="M3450.96 9668.65L3429.67 9668.54L3433.04 6905L3454.33 6905.11L3450.96 9668.65Z" fill="#9A92FF"/>
<path d="M3584.5 9668.65L3563.09 9668.54L3566.57 6905L3587.87 6905.11L3584.5 9668.65Z" fill="#9A92FF"/>
<path d="M3718.03 9668.65L3696.62 9668.54L3700.1 6905L3721.4 6905.11L3718.03 9668.65Z" fill="#9A92FF"/>
<path d="M3851.56 9668.65L3830.16 9668.54L3833.63 6905L3854.93 6905.11L3851.56 9668.65Z" fill="#9A92FF"/>
<path d="M3985.1 9668.65L3963.7 9668.54L3967.17 6905L3988.47 6905.11L3985.1 9668.65Z" fill="#9A92FF"/>
<path d="M4118.63 9668.65L4097.23 9668.54L4100.7 6905L4122 6905.11L4118.63 9668.65Z" fill="#9A92FF"/>
<path d="M4143.06 5529L4121 5528.89L4124.6 2754.92L4146.67 2755.03L4143.06 5529Z" fill="#9A92FF"/>
<path d="M4281.41 5529L4259.35 5528.89L4262.84 2754.92L4285.01 2755.03L4281.41 5529Z" fill="#9A92FF"/>
<path d="M4419.75 5529L4397.69 5528.89L4401.18 2754.92L4423.36 2755.03L4419.75 5529Z" fill="#9A92FF"/>
<path d="M4558.09 5529L4536.03 5528.89L4539.52 2754.92L4561.7 2755.03L4558.09 5529Z" fill="#9A92FF"/>
<path d="M4696.44 5529L4674.38 5528.89L4677.86 2754.92L4699.93 2755.03L4696.44 5529Z" fill="#9A92FF"/>
<path d="M4834.79 5529L4812.72 5528.89L4816.21 2754.92L4838.28 2755.03L4834.79 5529Z" fill="#9A92FF"/>
<path d="M4973.13 5529L4950.96 5528.89L4954.56 2754.92L4976.62 2755.03L4973.13 5529Z" fill="#9A92FF"/>
<path d="M5111.48 5529L5089.3 5528.89L5092.9 2754.92L5114.97 2755.03L5111.48 5529Z" fill="#9A92FF"/>
<path d="M5249.82 5529L5227.64 5528.89L5231.25 2754.92L5253.31 2755.03L5249.82 5529Z" fill="#9A92FF"/>
<path d="M5388.16 5529L5365.99 5528.89L5369.59 2754.92L5391.65 2755.03L5388.16 5529Z" fill="#9A92FF"/>
<path d="M5526.51 5529L5504.33 5528.89L5507.93 2754.92L5530 2755.03L5526.51 5529Z" fill="#9A92FF"/>
<path d="M6933.67 2763.65L6912 2763.54L6915.54 0L6937.21 0.110546L6933.67 2763.65Z" fill="#AFA7FF"/>
<path d="M7069.55 2763.65L7047.88 2763.54L7051.31 0L7073.09 0.110546L7069.55 2763.65Z" fill="#AFA7FF"/>
<path d="M7205.43 2763.65L7183.76 2763.54L7187.19 0L7208.97 0.110546L7205.43 2763.65Z" fill="#AFA7FF"/>
<path d="M7341.3 2763.65L7319.63 2763.54L7323.06 0L7344.84 0.110546L7341.3 2763.65Z" fill="#AFA7FF"/>
<path d="M7477.18 2763.65L7455.51 2763.54L7458.94 0L7480.61 0.110546L7477.18 2763.65Z" fill="#AFA7FF"/>
<path d="M7613.06 2763.65L7591.39 2763.54L7594.82 0L7616.49 0.110546L7613.06 2763.65Z" fill="#AFA7FF"/>
<path d="M7748.94 2763.65L7727.16 2763.54L7730.69 0L7752.36 0.110546L7748.94 2763.65Z" fill="#AFA7FF"/>
<path d="M7884.82 2763.65L7863.04 2763.54L7866.58 0L7888.25 0.110546L7884.82 2763.65Z" fill="#AFA7FF"/>
<path d="M8020.69 2763.65L7998.91 2763.54L8002.45 0L8024.12 0.110546L8020.69 2763.65Z" fill="#AFA7FF"/>
<path d="M8156.58 2763.65L8134.8 2763.54L8138.33 0L8160 0.110546L8156.58 2763.65Z" fill="#AFA7FF"/>
<path d="M8292.45 2763.65L8270.67 2763.54L8274.21 0L8295.88 0.110546L8292.45 2763.65Z" fill="#AFA7FF"/>
<path d="M6933.67 9668.65L6912 9668.54L6915.54 6905L6937.21 6905.11L6933.67 9668.65Z" fill="#AFA7FF"/>
<path d="M7069.55 9668.65L7047.88 9668.54L7051.31 6905L7073.09 6905.11L7069.55 9668.65Z" fill="#AFA7FF"/>
<path d="M7205.43 9668.65L7183.76 9668.54L7187.19 6905L7208.97 6905.11L7205.43 9668.65Z" fill="#AFA7FF"/>
<path d="M7341.3 9668.65L7319.63 9668.54L7323.06 6905L7344.84 6905.11L7341.3 9668.65Z" fill="#AFA7FF"/>
<path d="M7477.18 9668.65L7455.51 9668.54L7458.94 6905L7480.61 6905.11L7477.18 9668.65Z" fill="#AFA7FF"/>
<path d="M7613.06 9668.65L7591.39 9668.54L7594.82 6905L7616.49 6905.11L7613.06 9668.65Z" fill="#AFA7FF"/>
<path d="M7748.94 9668.65L7727.16 9668.54L7730.69 6905L7752.36 6905.11L7748.94 9668.65Z" fill="#AFA7FF"/>
<path d="M7884.82 9668.65L7863.04 9668.54L7866.58 6905L7888.25 6905.11L7884.82 9668.65Z" fill="#AFA7FF"/>
<path d="M8020.69 9668.65L7998.91 9668.54L8002.45 6905L8024.12 6905.11L8020.69 9668.65Z" fill="#AFA7FF"/>
<path d="M8156.58 9668.65L8134.8 9668.54L8138.33 6905L8160 6905.11L8156.58 9668.65Z" fill="#AFA7FF"/>
<path d="M8292.45 9668.65L8270.67 9668.54L8274.21 6905L8295.88 6905.11L8292.45 9668.65Z" fill="#AFA7FF"/>
<path d="M4292.91 691L4293.13 1382L3602.21 1382.22C3602.1 1000.56 3911.31 691.119 4292.91 691Z" fill="#C3BDFF"/>
<path d="M4292.91 7596L4293.13 8287L3602.21 8287.22C3602.1 7905.56 3911.31 7596.12 4292.91 7596Z" fill="#C3BDFF"/>
<path d="M5747.91 3455L5748.13 4146L5057.21 4146.22C5057.1 3764.56 5366.31 3455.12 5747.91 3455Z" fill="#C3BDFF"/>
<path d="M3602.21 1382.22L4293.13 1382L4293.34 2073C3911.74 2073.12 3602.33 1763.87 3602.21 1382.22Z" fill="#C3BDFF"/>
<path d="M3602.21 8287.22L4293.13 8287L4293.34 8978C3911.74 8978.12 3602.33 8668.87 3602.21 8287.22Z" fill="#C3BDFF"/>
<path d="M5057.21 4146.22L5748.13 4146L5748.34 4837C5366.74 4837.12 5057.33 4527.87 5057.21 4146.22Z" fill="#C3BDFF"/>
<path d="M5530 1381.82V0H6221C6221 381.604 6530.35 690.912 6912 690.912C6530.35 690.912 6221 1000.22 6221 1381.82H5530Z" fill="#EBE9FF"/>
<path d="M6912 6905V8286.82H6221C6221 7905.22 5911.65 7595.91 5530 7595.91C5911.65 7595.91 6221 7286.6 6221 6905H6912Z" fill="#EBE9FF"/>
<path d="M5506 6905V5527H6202C6202 5907.55 6513.59 6216 6898 6216C6513.59 6216 6202 6524.45 6202 6905H5506Z" fill="#EBE9FF"/>
<path d="M5529.71 746.295V724.517C5548.17 724.517 5563.21 709.483 5563.21 691.022C5563.21 672.561 5548.17 657.637 5529.71 657.637V635.86C5560.22 635.86 5584.99 660.622 5584.99 691.022C5584.99 721.533 5560.22 746.295 5529.71 746.295Z" fill="#4A3AFF"/>
<path d="M5529.71 873.423V851.645C5618.38 851.645 5690.35 779.68 5690.35 691.022C5690.35 602.475 5618.38 530.509 5529.71 530.509V508.732C5630.32 508.732 5712.13 590.536 5712.13 691.022C5712.13 791.619 5630.32 873.423 5529.71 873.423Z" fill="#4A3AFF"/>
<path d="M5529.71 1000.55V978.773C5688.47 978.773 5817.5 849.766 5817.5 691.022C5817.5 532.389 5688.47 403.382 5529.71 403.382V381.604C5700.41 381.604 5839.28 520.45 5839.28 691.022C5839.28 861.705 5700.41 1000.55 5529.71 1000.55Z" fill="#4A3AFF"/>
<path d="M6220.71 691.022C6220.71 1072.07 5910.81 1381.93 5529.71 1381.93V1360.27C5898.76 1360.27 6199.04 1060.02 6199.04 691.022C6199.04 322.13 5898.76 21.8879 5529.71 21.8879V0.110352C5910.81 0.110352 6220.71 310.081 6220.71 691.022Z" fill="#4A3AFF"/>
<path d="M5529.71 1127.68V1105.9C5758.57 1105.9 5944.64 919.852 5944.64 691.022C5944.64 462.302 5758.57 276.254 5529.71 276.254V254.476C5770.51 254.476 5966.42 450.253 5966.42 691.022C5966.42 931.791 5770.51 1127.68 5529.71 1127.68Z" fill="#4A3AFF"/>
<path d="M5529.71 1254.81V1233.14C5828.66 1233.14 6071.78 989.938 6071.78 691.022C6071.78 392.216 5828.66 149.016 5529.71 149.016V127.349C5840.71 127.349 6093.56 380.167 6093.56 691.022C6093.56 1001.99 5840.71 1254.81 5529.71 1254.81Z" fill="#4A3AFF"/>
<path d="M5503.95 6271.58V6249.88C5522.53 6249.88 5537.67 6234.9 5537.67 6216.5C5537.67 6198.1 5522.53 6183.23 5503.95 6183.23V6161.53C5534.66 6161.53 5559.59 6186.21 5559.59 6216.5C5559.59 6246.9 5534.66 6271.58 5503.95 6271.58Z" fill="#867CFF"/>
<path d="M5503.95 6398.26V6376.56C5593.2 6376.56 5665.65 6304.85 5665.65 6216.5C5665.65 6128.26 5593.2 6056.55 5503.95 6056.55V6034.85C5605.22 6034.85 5687.57 6116.36 5687.57 6216.5C5687.57 6316.75 5605.22 6398.26 5503.95 6398.26Z" fill="#867CFF"/>
<path d="M5503.95 6524.95V6503.25C5663.76 6503.25 5793.63 6374.69 5793.63 6216.5C5793.63 6058.42 5663.76 5929.86 5503.95 5929.86V5908.16C5675.77 5908.16 5815.55 6046.52 5815.55 6216.5C5815.55 6386.59 5675.77 6524.95 5503.95 6524.95Z" fill="#867CFF"/>
<path d="M6199.5 6216.5C6199.5 6596.22 5887.56 6905 5503.95 6905V6883.41C5875.43 6883.41 6177.68 6584.21 6177.68 6216.5C6177.68 5848.9 5875.43 5549.7 5503.95 5549.7V5528C5887.56 5528 6199.5 5836.89 6199.5 6216.5Z" fill="#867CFF"/>
<path d="M5503.95 6651.63V6629.93C5734.31 6629.93 5921.61 6444.53 5921.61 6216.5C5921.61 5988.58 5734.31 5803.18 5503.95 5803.18V5781.48C5746.33 5781.48 5943.53 5976.57 5943.53 6216.5C5943.53 6456.43 5746.33 6651.63 5503.95 6651.63Z" fill="#867CFF"/>
<path d="M5503.95 6778.32V6756.72C5804.87 6756.72 6049.59 6514.37 6049.59 6216.5C6049.59 5918.74 5804.87 5676.39 5503.95 5676.39V5654.79C5817 5654.79 6071.52 5906.73 6071.52 6216.5C6071.52 6526.38 5817 6778.32 5503.95 6778.32Z" fill="#867CFF"/>
<path d="M8271 690.912V0C8652.65 0 8962 309.307 8962 690.912C8962 1072.52 8652.65 1381.82 8271 1381.82V690.912Z" fill="#EBE9FF"/>
<path d="M8271 7595.91V6905C8652.65 6905 8962 7214.31 8962 7595.91C8962 7977.52 8652.65 8286.82 8271 8286.82V7595.91Z" fill="#EBE9FF"/>
<path d="M8282 3454.91V2764C8663.65 2764 8973 3073.31 8973 3454.91C8973 3836.52 8663.65 4145.82 8282 4145.82V3454.91Z" fill="#EBE9FF"/>
<path d="M10000 690.912V0C9618.35 0 9309 309.307 9309 690.912C9309 1072.52 9618.35 1381.82 10000 1381.82V690.912Z" fill="#EBE9FF"/>
<path d="M10000 7595.91V6905C9618.35 6905 9309 7214.31 9309 7595.91C9309 7977.52 9618.35 8286.82 10000 8286.82V7595.91Z" fill="#EBE9FF"/>
<path d="M10000 3454.91V2764C9618.35 2764 9309 3073.31 9309 3454.91C9309 3836.52 9618.35 4145.82 10000 4145.82V3454.91Z" fill="#EBE9FF"/>
<path d="M2764 2072.91V2763.82C2382.35 2763.82 2073 2454.52 2073 2072.91C2073 1691.31 2382.35 1382 2764 1382V2072.91Z" fill="#C3BDFF"/>
<path d="M1382 1382H2764C2382.35 1382 2073 1691.31 2073 2072.91C2073 2454.52 2382.35 2763.82 2764 2763.82H2073H1382V1382Z" fill="#AFA7FF"/>
<path d="M2764 8977.91V9668.82C2382.35 9668.82 2073 9359.52 2073 8977.91C2073 8596.31 2382.35 8287 2764 8287V8977.91Z" fill="#C3BDFF"/>
<path d="M1382 8287H2764C2382.35 8287 2073 8596.31 2073 8977.91C2073 9359.52 2382.35 9668.82 2764 9668.82H2073H1382V8287Z" fill="#5E50FF"/>
<path d="M2760.18 4834.5V5523C2379.86 5523 2071.59 5214.77 2071.59 4834.5C2071.59 4454.23 2379.86 4146 2760.18 4146V4834.5Z" fill="#C3BDFF"/>
<path d="M1383 4146H2760.18C2379.86 4146 2071.59 4454.23 2071.59 4834.5C2071.59 5214.77 2379.86 5523 2760.18 5523H2071.59H1383V4146Z" fill="#5E50FF"/>
<path d="M2758 2764H4140C3758.35 2764 3449 3073.31 3449 3454.91C3449 3836.52 3758.35 4145.82 4140 4145.82H3449H2758V2764Z" fill="#5E50FF"/>
<path d="M1382 2072.91V2763.82H691C691 2382.22 1000.35 2072.91 1382 2072.91Z" fill="#867CFF"/>
<path d="M1382 1382V2072.91C1000.35 2072.91 691 1763.6 691 1382H1382Z" fill="#867CFF"/>
<path d="M0 1382H691C691 1763.6 381.653 2072.91 0 2072.91V1382Z" fill="#867CFF"/>
<path d="M691 2763.82H0V2072.91C381.653 2072.91 691 2382.22 691 2763.82Z" fill="#867CFF"/>
<path d="M1382 8977.91V9668.82H691C691 9287.22 1000.35 8977.91 1382 8977.91Z" fill="#867CFF"/>
<path d="M1382 8287V8977.91C1000.35 8977.91 691 8668.6 691 8287H1382Z" fill="#867CFF"/>
<path d="M0 8287H691C691 8668.6 381.653 8977.91 0 8977.91V8287Z" fill="#867CFF"/>
<path d="M691 9668.82H0V8977.91C381.653 8977.91 691 9287.22 691 9668.82Z" fill="#867CFF"/>
<path d="M1382 4836.91V5527.82H691C691 5146.22 1000.35 4836.91 1382 4836.91Z" fill="#867CFF"/>
<path d="M1382 4146V4836.91C1000.35 4836.91 691 4527.6 691 4146H1382Z" fill="#867CFF"/>
<path d="M0 4146H691C691 4527.6 381.653 4836.91 0 4836.91V4146Z" fill="#867CFF"/>
<path d="M691 5527.82H0V4836.91C381.653 4836.91 691 5146.22 691 5527.82Z" fill="#867CFF"/>
<path d="M9140.5 2747C8763.54 2747 8458 2441.46 8458 2064.5C8458 1687.54 8763.54 1382 9140.5 1382C9140.5 1758.96 9446.04 2064.5 9823 2064.5C9823 2441.46 9517.46 2747 9140.5 2747Z" fill="#D7D3FF"/>
<path d="M9140.5 9652C8763.54 9652 8458 9346.46 8458 8969.5C8458 8592.54 8763.54 8287 9140.5 8287C9140.5 8663.96 9446.04 8969.5 9823 8969.5C9823 9346.46 9517.46 9652 9140.5 9652Z" fill="#D7D3FF"/>
<path d="M1382 2764V4145.82H691C691 3764.22 381.653 3454.91 0 3454.91C381.653 3454.91 691 3145.6 691 2764H1382Z" fill="#AFA7FF"/>
<path d="M10000 4141V5522.82H9309C9309 5141.22 8999.65 4831.91 8618 4831.91C8999.65 4831.91 9309 4522.6 9309 4141H10000Z" fill="#AFA7FF"/>
<path d="M2765.88 3454.91V4145.82H2074.88H1383.88V4141.4V3454.91V2764H2074.88H2765.88V3454.91Z" fill="#867CFF"/>
<path d="M1555.69 3318.39L1382.77 3591.44H1728.61L1555.69 3318.39Z" fill="#EBE9FF"/>
<path d="M1901.41 3318.39L1728.61 3591.44H2074.33L1901.41 3318.39Z" fill="#EBE9FF"/>
<path d="M2247.24 3318.39L2074.33 3591.44H2420.16L2247.24 3318.39Z" fill="#EBE9FF"/>
<path d="M2592.97 3318.39L2420.16 3591.44H2765.88L2592.97 3318.39Z" fill="#EBE9FF"/>
<path d="M1555.69 3037.05L1382.77 3309.99H1728.61L1555.69 3037.05Z" fill="#EBE9FF"/>
<path d="M1901.41 3037.05L1728.61 3309.99H2074.33L1901.41 3037.05Z" fill="#EBE9FF"/>
<path d="M2247.24 3037.05L2074.33 3309.99H2420.16L2247.24 3037.05Z" fill="#EBE9FF"/>
<path d="M2592.97 3037.05L2420.16 3309.99H2765.88L2592.97 3037.05Z" fill="#EBE9FF"/>
<path d="M1555.69 3872.77L1382.77 4145.82H1728.61L1555.69 3872.77Z" fill="#EBE9FF"/>
<path d="M1901.41 3872.77L1728.61 4145.82H2074.33L1901.41 3872.77Z" fill="#EBE9FF"/>
<path d="M2247.24 3872.77L2074.33 4145.82H2420.16L2247.24 3872.77Z" fill="#EBE9FF"/>
<path d="M2592.96 3872.77L2420.16 4145.82H2765.88L2592.96 3872.77Z" fill="#EBE9FF"/>
<path d="M1555.69 3591.44L1382.77 3864.37H1728.61L1555.69 3591.44Z" fill="#EBE9FF"/>
<path d="M1901.41 3591.44L1728.61 3864.37H2074.33L1901.41 3591.44Z" fill="#EBE9FF"/>
<path d="M2247.24 3591.44L2074.33 3864.37H2420.16L2247.24 3591.44Z" fill="#EBE9FF"/>
<path d="M2592.96 3591.44L2420.16 3864.37H2765.88L2592.96 3591.44Z" fill="#EBE9FF"/>
<path d="M1554.92 2764L1382 3037.05H1727.83L1554.92 2764Z" fill="#EBE9FF"/>
<path d="M1900.64 2764L1727.83 3037.05H2073.55L1900.64 2764Z" fill="#EBE9FF"/>
<path d="M2246.47 2764L2073.55 3037.05H2419.28L2246.47 2764Z" fill="#EBE9FF"/>
<path d="M2592.19 2764L2419.27 3037.05H2765.11L2592.19 2764Z" fill="#EBE9FF"/>
<path d="M2761.99 7595.91V8284.89H2072.93H1383.87V8280.48V7595.91V6906.94H2072.93H2761.99V7595.91Z" fill="#867CFF"/>
<path d="M1555.2 7459.77L1382.77 7732.05H1727.64L1555.2 7459.77Z" fill="#EBE9FF"/>
<path d="M1899.95 7459.77L1727.63 7732.05H2072.38L1899.95 7459.77Z" fill="#EBE9FF"/>
<path d="M2244.82 7459.77L2072.39 7732.05H2417.25L2244.82 7459.77Z" fill="#EBE9FF"/>
<path d="M2589.57 7459.77L2417.25 7732.05H2762L2589.57 7459.77Z" fill="#EBE9FF"/>
<path d="M1555.2 7179.22L1382.77 7451.39H1727.64L1555.2 7179.22Z" fill="#EBE9FF"/>
<path d="M1899.95 7179.22L1727.63 7451.39H2072.38L1899.95 7179.22Z" fill="#EBE9FF"/>
<path d="M2244.82 7179.22L2072.39 7451.39H2417.25L2244.82 7179.22Z" fill="#EBE9FF"/>
<path d="M2589.57 7179.22L2417.25 7451.39H2762L2589.57 7179.22Z" fill="#EBE9FF"/>
<path d="M1555.2 8012.6L1382.77 8284.89H1727.63L1555.2 8012.6Z" fill="#EBE9FF"/>
<path d="M1899.95 8012.6L1727.63 8284.89H2072.38L1899.95 8012.6Z" fill="#EBE9FF"/>
<path d="M2244.81 8012.6L2072.38 8284.89H2417.24L2244.81 8012.6Z" fill="#EBE9FF"/>
<path d="M2589.56 8012.6L2417.24 8284.89H2761.99L2589.56 8012.6Z" fill="#EBE9FF"/>
<path d="M1555.2 7732.05L1382.77 8004.22H1727.63L1555.2 7732.05Z" fill="#EBE9FF"/>
<path d="M1899.95 7732.05L1727.63 8004.22H2072.38L1899.95 7732.05Z" fill="#EBE9FF"/>
<path d="M2244.81 7732.05L2072.38 8004.22H2417.24L2244.81 7732.05Z" fill="#EBE9FF"/>
<path d="M2589.56 7732.05L2417.24 8004.22H2761.99L2589.56 7732.05Z" fill="#EBE9FF"/>
<path d="M1554.43 6906.94L1382 7179.22H1726.86L1554.43 6906.94Z" fill="#EBE9FF"/>
<path d="M1899.18 6906.94L1726.86 7179.22H2071.61L1899.18 6906.94Z" fill="#EBE9FF"/>
<path d="M2244.04 6906.94L2071.61 7179.22H2416.36L2244.04 6906.94Z" fill="#EBE9FF"/>
<path d="M2588.79 6906.94L2416.36 7179.22H2761.23L2588.79 6906.94Z" fill="#EBE9FF"/>
<path d="M8288.88 6213.91V6904.82H7597.88H6906.88V6900.4V6213.91V5523H7597.88H8288.88V6213.91Z" fill="#867CFF"/>
<path d="M7078.69 6077.39L6905.77 6350.44H7251.61L7078.69 6077.39Z" fill="#EBE9FF"/>
<path d="M7424.41 6077.39L7251.61 6350.44H7597.33L7424.41 6077.39Z" fill="#EBE9FF"/>
<path d="M7770.24 6077.39L7597.33 6350.44H7943.16L7770.24 6077.39Z" fill="#EBE9FF"/>
<path d="M8115.96 6077.39L7943.16 6350.44H8288.88L8115.96 6077.39Z" fill="#EBE9FF"/>
<path d="M7078.69 5796.05L6905.77 6068.99H7251.61L7078.69 5796.05Z" fill="#EBE9FF"/>
<path d="M7424.41 5796.05L7251.61 6068.99H7597.33L7424.41 5796.05Z" fill="#EBE9FF"/>
<path d="M7770.24 5796.05L7597.33 6068.99H7943.16L7770.24 5796.05Z" fill="#EBE9FF"/>
<path d="M8115.96 5796.05L7943.16 6068.99H8288.88L8115.96 5796.05Z" fill="#EBE9FF"/>
<path d="M7078.69 6631.77L6905.77 6904.82H7251.61L7078.69 6631.77Z" fill="#EBE9FF"/>
<path d="M7424.41 6631.77L7251.61 6904.82H7597.33L7424.41 6631.77Z" fill="#EBE9FF"/>
<path d="M7770.24 6631.77L7597.33 6904.82H7943.16L7770.24 6631.77Z" fill="#EBE9FF"/>
<path d="M8115.96 6631.77L7943.16 6904.82H8288.88L8115.96 6631.77Z" fill="#EBE9FF"/>
<path d="M7078.69 6350.44L6905.77 6623.37H7251.61L7078.69 6350.44Z" fill="#EBE9FF"/>
<path d="M7424.41 6350.44L7251.61 6623.37H7597.33L7424.41 6350.44Z" fill="#EBE9FF"/>
<path d="M7770.24 6350.44L7597.33 6623.37H7943.16L7770.24 6350.44Z" fill="#EBE9FF"/>
<path d="M8115.96 6350.44L7943.16 6623.37H8288.88L8115.96 6350.44Z" fill="#EBE9FF"/>
<path d="M7077.92 5523L6905 5796.05H7250.83L7077.92 5523Z" fill="#EBE9FF"/>
<path d="M7423.64 5523L7250.83 5796.05H7596.55L7423.64 5523Z" fill="#EBE9FF"/>
<path d="M7769.47 5523L7596.55 5796.05H7942.28L7769.47 5523Z" fill="#EBE9FF"/>
<path d="M8115.19 5523L7942.27 5796.05H8288.11L8115.19 5523Z" fill="#EBE9FF"/>
<path d="M8282 3454.91V4145.82C7900.35 4145.82 7591 3836.52 7591 3454.91C7591 3073.31 7900.35 2764 8282 2764V3454.91Z" fill="#D7D3FF"/>
<path d="M693 6910.82C1074.63 6910.82 1384 6601.49 1384 6219.91C1384 5838.33 1074.63 5529 693 5529C311.371 5529 2 5838.33 2 6219.91C2 6601.49 311.371 6910.82 693 6910.82Z" fill="#AFA7FF"/>
</g>
<defs>
<clipPath id="clip0_1702_273">
<rect width="10000" height="9669" fill="white"/>
</clipPath>
</defs>
</svg>
