<svg width="400" height="400" viewBox="0 0 400 400" fill="none" xmlns="http://www.w3.org/2000/svg">
<rect width="200" height="200" transform="matrix(-1 0 0 1 200 0)" fill="#546EF3"/>
<rect width="200" height="200" transform="matrix(1 0 0 -1 200 200)" fill="#C2DBFF"/>
<rect width="200" height="200" transform="matrix(-1 0 0 1 200 200)" fill="#1D1F22"/>
<path d="M-1.52588e-05 200C-1.52588e-05 226.264 5.17313 252.272 15.2241 276.537C25.275 300.802 40.0069 322.85 58.5786 341.421C77.1503 359.993 99.1982 374.725 123.463 384.776C147.728 394.827 173.736 400 200 400L200 200H-1.52588e-05Z" fill="#546EF3"/>
<rect width="200" height="200" transform="matrix(1 0 0 -1 200 400)" fill="#546EF3"/>
<path d="M400 200C400 226.264 394.827 252.272 384.776 276.537C374.725 300.802 359.993 322.85 341.421 341.421C322.85 359.993 300.802 374.725 276.537 384.776C252.272 394.827 226.264 400 200 400L200 200H400Z" fill="#C2DBFF"/>
</svg>
