<svg width="10000" height="10000" viewBox="0 0 10000 10000" fill="none" xmlns="http://www.w3.org/2000/svg">
<g clip-path="url(#clip0_1702_275)">
<rect width="10000" height="10000" fill="white"/>
<path d="M3333 0H0V5000H3333V0Z" fill="#EBE9FF"/>
<path d="M1954 5000H0V10000H3333V6379C3333 5617.4 2715.6 5000 1954 5000Z" fill="#D7D3FF"/>
<path d="M6667 0H3333V5000H6667V0Z" fill="#D7D3FF"/>
<path d="M791.595 796.014C791.595 796.014 810.389 1179.26 592.015 1395.45C373.641 1611.63 0.435819 1592.57 0.435819 1592.57C0.435819 1592.57 -18.87 1222.88 199.504 1006.57C417.75 790.385 791.595 796.014 791.595 796.014Z" fill="#4A3AFF"/>
<path d="M0.405265 0.0137711C0.405265 0.0137711 -18.3864 382.778 199.952 598.69C418.291 814.729 791.564 795.565 791.564 795.565C791.564 795.565 810.867 426.343 592.528 210.304C374.189 -5.6077 0.405265 0.0137711 0.405265 0.0137711Z" fill="#4A3AFF"/>
<path d="M792.405 796.014C792.405 796.014 773.637 1179.26 991.7 1395.44C1209.76 1611.75 1582.56 1592.56 1582.56 1592.56C1582.56 1592.56 1601.84 1222.88 1383.78 1006.57C1165.72 790.385 792.405 796.014 792.405 796.014Z" fill="#4A3AFF"/>
<path d="M1582.6 0.0137711C1582.6 0.0137711 1601.36 382.778 1383.3 598.69C1165.24 814.729 792.435 795.565 792.435 795.565C792.435 795.565 773.157 426.343 991.22 210.304C1209.28 -5.6077 1582.6 0.0137711 1582.6 0.0137711Z" fill="#4A3AFF"/>
<path d="M6667 5000H4575C3889.06 5000 3333 5556.06 3333 6242V10000H6667V5000Z" fill="#EBE9FF"/>
<path d="M10000 0H6667V5000H10000V0Z" fill="#EBE9FF"/>
<path d="M6667 2124H8104V3561C7915.33 3561.12 7728.49 3524.04 7554.15 3451.88C7379.81 3379.72 7221.39 3273.89 7087.94 3140.44C6954.49 3006.99 6848.63 2848.54 6776.4 2674.13C6704.18 2499.73 6667 2312.79 6667 2124Z" fill="#4A3AFF"/>
<path d="M2884 7124H1447V8561C1635.67 8561.12 1822.51 8524.04 1996.85 8451.88C2171.19 8379.72 2329.61 8273.89 2463.06 8140.44C2596.51 8006.99 2702.37 7848.54 2774.6 7674.13C2846.82 7499.73 2884 7312.79 2884 7124Z" fill="#EBE9FF"/>
<path d="M6667 3556H8104V4993C7915.33 4993.12 7728.49 4956.04 7554.15 4883.88C7379.81 4811.72 7221.39 4705.89 7087.94 4572.44C6954.49 4438.99 6848.63 4280.54 6776.4 4106.13C6704.18 3931.72 6667 3744.79 6667 3556Z" fill="#4A3AFF"/>
<path d="M2884 8556H1447V9993C1635.67 9993.12 1822.51 9956.04 1996.85 9883.88C2171.19 9811.72 2329.61 9705.89 2463.06 9572.44C2596.51 9438.99 2702.37 9280.54 2774.6 9106.13C2846.82 8931.72 2884 8744.79 2884 8556Z" fill="#4A3AFF"/>
<path d="M9541 4991C9160.24 4991.25 8794.96 4840.22 8525.49 4571.12C8256.02 4302.02 8104.41 3936.89 8104 3556H9541V4991Z" fill="#4A3AFF"/>
<path d="M10 9991C390.763 9991.25 756.038 9840.22 1025.51 9571.12C1294.98 9302.02 1446.59 8936.89 1447 8556H10V9991Z" fill="#EBE9FF"/>
<path d="M10000 5000H8311C7403.04 5000 6667 5736.04 6667 6644V10000H10000V5000Z" fill="#D7D3FF"/>
<path d="M6667 3750H0V5000H6667V3750Z" fill="white"/>
<path d="M10001 8966H6667V10000H10001V8966Z" fill="white"/>
<path d="M1140 1593H0V3750H2156V2609C2156 2047.88 1701.12 1593 1140 1593Z" fill="#D7D3FF"/>
<path d="M2951.21 1494.16L3333.08 1494.14L3333 0.000366211L1935.13 0.0752541L1935.16 478.216C1935.19 1039.34 2390.09 1494.19 2951.21 1494.16Z" fill="#C3BDFF"/>
<path d="M1456.57 1593H1446.62V3758.84H1456.57V1593Z" fill="#4A3AFF"/>
<path d="M1775.9 1593H1765.94V3758.84H1775.9V1593Z" fill="#4A3AFF"/>
<path d="M2095.22 1593H2085.27V3758.84H2095.22V1593Z" fill="#4A3AFF"/>
<path d="M2414.55 1593H2404.59V3758.84H2414.55V1593Z" fill="#4A3AFF"/>
<path d="M2733.72 1593H2723.77V3758.84H2733.72V1593Z" fill="#4A3AFF"/>
<path d="M3053.04 1593H3043.09V3758.84H3053.04V1593Z" fill="#4A3AFF"/>
<path d="M3332.84 1872.77H1167V1882.73H3332.84V1872.77Z" fill="#4A3AFF"/>
<path d="M3332.84 2192.08H1167V2202.04H3332.84V2192.08Z" fill="#4A3AFF"/>
<path d="M3332.84 2511.26H1167V2521.21H3332.84V2511.26Z" fill="#4A3AFF"/>
<path d="M3332.84 2830.62H1167V2840.57H3332.84V2830.62Z" fill="#4A3AFF"/>
<path d="M3332.84 3149.9H1167V3159.86H3332.84V3149.9Z" fill="#4A3AFF"/>
<path d="M3332.84 3469.27H1167V3479.22H3332.84V3469.27Z" fill="#4A3AFF"/>
<path d="M9580.93 10000L9733.5 9847.55L9885.99 10000H9926.75L9733.5 9806.78L9540.25 10000H9580.93Z" fill="#4A3AFF"/>
<path d="M9467 9829.06V9869.82L9733.49 9603.33L9999.99 9869.82V9829.06L9733.49 9562.64L9467 9829.06Z" fill="#4A3AFF"/>
<path d="M9467 9951.21V9991.89L9733.49 9725.4L9999.99 9991.89V9951.21L9733.49 9684.71L9467 9951.21Z" fill="#4A3AFF"/>
<path d="M9475.44 8966L9467 8974.52V9015.21L9516.21 8966H9475.44Z" fill="#4A3AFF"/>
<path d="M9597.58 8966L9467 9096.58V9137.27L9638.27 8966H9597.58Z" fill="#4A3AFF"/>
<path d="M9702.99 10000L9733.49 9969.62L9763.91 10000H9804.68L9733.49 9928.85L9662.3 10000H9702.99Z" fill="#4A3AFF"/>
<path d="M9719.65 8966L9467 9218.65V9259.42L9733.49 8992.92L9999.99 9259.42V9218.65L9747.34 8966H9719.65Z" fill="#4A3AFF"/>
<path d="M9828.64 8966L9999.99 9137.27V9096.58L9869.41 8966H9828.64Z" fill="#4A3AFF"/>
<path d="M9950.78 8966L9999.98 9015.21V8974.52L9991.46 8966H9950.78Z" fill="#4A3AFF"/>
<path d="M9467 9584.93V9625.62L9733.49 9359.2L9999.99 9625.62V9584.93L9733.49 9318.43L9467 9584.93Z" fill="#4A3AFF"/>
<path d="M9467 9707V9747.77L9733.49 9481.27L9999.99 9747.77V9707L9733.49 9440.51L9467 9707Z" fill="#4A3AFF"/>
<path d="M9467 9340.7V9381.47L9733.49 9114.98L9999.99 9381.47V9340.7L9733.49 9074.29L9467 9340.7Z" fill="#4A3AFF"/>
<path d="M9467 9462.85V9503.54L9733.49 9237.05L9999.99 9503.54V9462.85L9733.49 9196.36L9467 9462.85Z" fill="#4A3AFF"/>
<path d="M3735.11 2761.68L3612.41 2568.87L3490 2761.68H3735.11Z" fill="#4A3AFF"/>
<path d="M3735.11 3759L3612.41 3566.18L3490 3759H3735.11Z" fill="#4A3AFF"/>
<path d="M3735.11 415.101L3612.41 222L3490 415.101H3735.11Z" fill="#4A3AFF"/>
<path d="M3735.11 1412.53L3612.41 1219.43L3490 1412.53H3735.11Z" fill="#4A3AFF"/>
<path d="M3735.11 1834.96L3612.41 1642.15L3490 1834.96H3735.11Z" fill="#4A3AFF"/>
<circle cx="5161" cy="1101" r="1101" fill="#EBE9FF"/>
<mask id="mask0_1702_275" style="mask-type:alpha" maskUnits="userSpaceOnUse" x="6667" y="0" width="3333" height="5000">
<path d="M10000 0H6667V5000H10000V0Z" fill="#EBE9FF"/>
</mask>
<g mask="url(#mask0_1702_275)">
<circle cx="9180" cy="391" r="1482" fill="white"/>
</g>
<path d="M5486.86 3759.02L5916.51 3329.59L6345.94 3759.02H6460.74L5916.51 3214.79L5372.27 3759.02H5486.86Z" fill="#4A3AFF"/>
<path d="M5166 3277.52V3392.32L5916.49 2641.83L6666.98 3392.32V3277.52L5916.49 2527.24L5166 3277.52Z" fill="#4A3AFF"/>
<path d="M5166 3621.51V3736.1L5916.49 2985.61L6666.98 3736.1V3621.51L5916.49 2871.02L5166 3621.51Z" fill="#4A3AFF"/>
<path d="M5189.77 847L5166 870.988V985.575L5304.58 847H5189.77Z" fill="#4A3AFF"/>
<path d="M5533.75 847L5166 1214.75V1329.34L5648.34 847H5533.75Z" fill="#4A3AFF"/>
<path d="M5830.6 3759.04L5916.49 3673.37L6002.16 3759.04H6116.96L5916.49 3558.57L5716.01 3759.04H5830.6Z" fill="#4A3AFF"/>
<path d="M5877.51 847L5166 1558.51V1673.31L5916.49 922.82L6666.98 1673.31V1558.51L5955.47 847H5877.51Z" fill="#4A3AFF"/>
<path d="M6184.45 847L6667 1329.34V1214.75L6299.25 847H6184.45Z" fill="#4A3AFF"/>
<path d="M6528.39 847L6666.97 985.575V870.988L6642.98 847H6528.39Z" fill="#4A3AFF"/>
<path d="M5166 2590.01V2704.59L5916.49 1954.32L6666.98 2704.59V2590.01L5916.49 1839.52L5166 2590.01Z" fill="#4A3AFF"/>
<path d="M5166 2933.79V3048.59L5916.49 2298.1L6666.98 3048.59V2933.79L5916.49 2183.3L5166 2933.79Z" fill="#4A3AFF"/>
<path d="M5166 1902.23V2017.03L5916.49 1266.54L6666.98 2017.03V1902.23L5916.49 1151.96L5166 1902.23Z" fill="#4A3AFF"/>
<path d="M5166 2246.23V2360.81L5916.49 1610.32L6666.98 2360.81V2246.23L5916.49 1495.74L5166 2246.23Z" fill="#4A3AFF"/>
<path d="M3654.86 10000L4084.51 9570.59L4513.94 10000H4628.74L4084.51 9455.79L3540.27 10000H3654.86Z" fill="#4A3AFF"/>
<path d="M3334 9518.52V9633.32L4084.49 8882.83L4834.98 9633.32V9518.52L4084.49 8768.24L3334 9518.52Z" fill="#4A3AFF"/>
<path d="M3334 9862.51V9977.1L4084.49 9226.61L4834.98 9977.1V9862.51L4084.49 9112.02L3334 9862.51Z" fill="#4A3AFF"/>
<path d="M3357.77 7088L3334 7111.99V7226.58L3472.58 7088H3357.77Z" fill="#4A3AFF"/>
<path d="M3701.75 7088L3334 7455.75V7570.34L3816.34 7088H3701.75Z" fill="#4A3AFF"/>
<path d="M3998.6 10000L4084.49 9914.37L4170.16 10000H4284.96L4084.49 9799.57L3884.01 10000H3998.6Z" fill="#4A3AFF"/>
<path d="M4045.51 7088L3334 7799.51V7914.31L4084.49 7163.82L4834.98 7914.31V7799.51L4123.47 7088H4045.51Z" fill="#4A3AFF"/>
<path d="M4352.45 7088L4835 7570.34V7455.75L4467.25 7088H4352.45Z" fill="#4A3AFF"/>
<path d="M4696.39 7088L4834.97 7226.58V7111.99L4810.98 7088H4696.39Z" fill="#4A3AFF"/>
<path d="M3334 8831.01V8945.59L4084.49 8195.32L4834.98 8945.59V8831.01L4084.49 8080.52L3334 8831.01Z" fill="#4A3AFF"/>
<path d="M3334 9174.79V9289.59L4084.49 8539.1L4834.98 9289.59V9174.79L4084.49 8424.3L3334 9174.79Z" fill="#4A3AFF"/>
<path d="M3334 8143.23V8258.03L4084.49 7507.54L4834.98 8258.03V8143.23L4084.49 7392.96L3334 8143.23Z" fill="#4A3AFF"/>
<path d="M3334 8487.23V8601.81L4084.49 7851.32L4834.98 8601.81V8487.23L4084.49 7736.74L3334 8487.23Z" fill="#4A3AFF"/>
<path d="M9874.61 481.029C9883.12 473.938 9891.41 466.42 9899.43 458.407C10018 339.834 10034 163.606 9935.24 64.8185C9836.38 -34.0395 9660.16 -18.0123 9541.59 100.561C9533.57 108.574 9526.06 116.871 9518.96 125.381C9511.87 116.871 9504.36 108.574 9496.34 100.561C9377.84 -18.0123 9201.62 -34.0395 9102.83 64.8185C9003.97 163.606 9020 339.834 9138.57 458.407C9146.59 466.42 9154.88 473.938 9163.39 481.029C9154.88 488.121 9146.59 495.638 9138.57 503.652C9020 622.225 9003.97 798.453 9102.76 897.24C9201.55 996.027 9377.77 980 9496.34 861.427C9504.36 853.413 9511.87 845.116 9518.96 836.606C9526.06 845.116 9533.57 853.413 9541.59 861.427C9660.16 980 9836.38 996.027 9935.17 897.24C10034 798.453 10017.9 622.225 9899.36 503.652C9891.41 495.567 9883.12 488.05 9874.61 481.029ZM9519.04 665.98C9416.85 665.98 9334.02 583.149 9334.02 480.958C9334.02 378.767 9416.85 295.936 9519.04 295.936C9621.23 295.936 9704.05 378.767 9704.05 480.958C9703.98 583.149 9621.15 665.98 9519.04 665.98Z" fill="#4A3AFF"/>
<path d="M9519 798V2022" stroke="#4A3AFF" stroke-width="25"/>
<path d="M9327 1137V2361" stroke="#4A3AFF" stroke-width="25"/>
<path d="M9711 1152V2376" stroke="#4A3AFF" stroke-width="25"/>
<path d="M6942.99 247.072C6950.93 213.751 6930.36 180.306 6897.05 172.37C6863.73 164.434 6830.3 185.012 6822.37 218.332C6814.43 251.653 6835 285.098 6868.31 293.034C6901.62 300.97 6935.06 280.392 6942.99 247.072Z" fill="#4A3AFF"/>
<path d="M9858.99 3650.07C9866.93 3616.75 9846.36 3583.31 9813.05 3575.37C9779.73 3567.43 9746.3 3588.01 9738.37 3621.33C9730.43 3654.65 9751 3688.1 9784.31 3696.03C9817.62 3703.97 9851.06 3683.39 9858.99 3650.07Z" fill="#4A3AFF"/>
<path d="M6926.52 471.432C6950.73 447.212 6950.73 407.944 6926.52 383.725C6902.31 359.505 6863.05 359.505 6838.84 383.725C6814.63 407.944 6814.63 447.212 6838.84 471.432C6863.05 495.651 6902.31 495.651 6926.52 471.432Z" fill="#4A3AFF"/>
<path d="M9842.52 3874.43C9866.73 3850.21 9866.73 3810.94 9842.52 3786.72C9818.31 3762.51 9779.05 3762.51 9754.84 3786.72C9730.63 3810.94 9730.63 3850.21 9754.84 3874.43C9779.05 3898.65 9818.31 3898.65 9842.52 3874.43Z" fill="#4A3AFF"/>
<path d="M6943.02 636.712C6950.95 603.392 6930.38 569.947 6897.07 562.011C6863.76 554.074 6830.33 574.653 6822.39 607.973C6814.46 641.293 6835.03 674.738 6868.34 682.674C6901.65 690.611 6935.09 670.033 6943.02 636.712Z" fill="#4A3AFF"/>
<path d="M9859.02 4039.71C9866.95 4006.39 9846.38 3972.95 9813.07 3965.01C9779.76 3957.07 9746.33 3977.65 9738.39 4010.97C9730.46 4044.29 9751.03 4077.74 9784.34 4085.67C9817.65 4093.61 9851.09 4073.03 9859.02 4039.71Z" fill="#4A3AFF"/>
<path d="M6666.99 9567.7V10000H6234.66V9567.7H6666.99ZM6646.31 9979.35V9588.38H6255.34V9979.35H6646.31Z" fill="#4A3AFF"/>
<path d="M6255.34 9156.06V9588.39H5823.02V9156.06H6255.34ZM6234.67 9567.71V9176.74H5843.69V9567.71H6234.67Z" fill="#4A3AFF"/>
<path d="M6255.34 8744.63V9176.68H5823.02V8744.63H6255.34ZM6234.67 9156V8765.31H5843.69V9156.28H6234.67V9156Z" fill="#4A3AFF"/>
<path d="M5843.7 9156.06V9588.39H5411.64V9156.06H5843.7ZM5823.02 9567.71V9176.74H5432.32V9567.71H5823.02Z" fill="#4A3AFF"/>
<path d="M6666.99 9156.06V9588.39H6234.66V9156.06H6666.99ZM6646.31 9567.71V9176.74H6255.34V9567.71H6646.31Z" fill="#4A3AFF"/>
<path d="M6666.99 8744.63V9176.68H6234.66V8744.63H6666.99ZM6646.31 9156V8765.31H6255.34V9156.28H6646.31V9156Z" fill="#4A3AFF"/>
<path d="M6666.99 8332.98V8765.31H6234.66V8332.98H6666.99ZM6646.31 8744.63V8353.66H6255.34V8744.63H6646.31Z" fill="#4A3AFF"/>
<path d="M6255.34 9567.7V10000H5823.02V9567.7H6255.34ZM6234.67 9979.35V9588.38H5843.69V9979.35H6234.67Z" fill="#4A3AFF"/>
<path d="M5843.7 9567.7V10000H5411.64V9567.7H5843.7ZM5823.02 9979.35V9588.38H5432.32V9979.35H5823.02Z" fill="#4A3AFF"/>
<path d="M5432.33 9567.7V10000H5000V9567.7H5432.33ZM5411.65 9979.35V9588.38H5020.68V9979.35H5411.65Z" fill="#4A3AFF"/>
<path d="M10003 8532.71V8965.04H9570.66V8532.71H10003ZM9982.31 8944.37V8553.39H9591.34V8944.37H9982.31Z" fill="#4A3AFF"/>
<path d="M9591.34 8121.07V8553.4H9159.02V8121.07H9591.34ZM9570.67 8532.72V8141.75H9179.69V8532.72H9570.67Z" fill="#4A3AFF"/>
<path d="M9591.34 7709.64V8141.7H9159.02V7709.64H9591.34ZM9570.67 8121.02V7730.32H9179.69V8121.29H9570.67V8121.02Z" fill="#4A3AFF"/>
<path d="M9179.69 8121.07V8553.4H8747.64V8121.07H9179.69ZM9159.02 8532.72V8141.75H8768.32V8532.72H9159.02Z" fill="#4A3AFF"/>
<path d="M10003 8121.07V8553.4H9570.66V8121.07H10003ZM9982.31 8532.72V8141.75H9591.34V8532.72H9982.31Z" fill="#4A3AFF"/>
<path d="M10003 7709.64V8141.7H9570.66V7709.64H10003ZM9982.31 8121.02V7730.32H9591.34V8121.29H9982.31V8121.02Z" fill="#4A3AFF"/>
<path d="M10003 7298V7730.33H9570.66V7298H10003ZM9982.31 7709.65V7318.68H9591.34V7709.65H9982.31Z" fill="#4A3AFF"/>
<path d="M9591.34 8532.71V8965.04H9159.02V8532.71H9591.34ZM9570.67 8944.37V8553.39H9179.69V8944.37H9570.67Z" fill="#4A3AFF"/>
<path d="M9179.69 8532.71V8965.04H8747.64V8532.71H9179.69ZM9159.02 8944.37V8553.39H8768.32V8944.37H9159.02Z" fill="#4A3AFF"/>
<path d="M8768.33 8532.71V8965.04H8336V8532.71H8768.33ZM8747.65 8944.37V8553.39H8356.68V8944.37H8747.65Z" fill="#4A3AFF"/>
<path d="M4204.16 6197C4189.86 6196.69 4178.71 6184.75 4179.18 6170.61C4179.49 6156.32 4191.43 6145.17 4205.57 6145.49C4219.71 6145.8 4230.86 6157.74 4230.55 6172.03C4230.23 6185.85 4218.77 6197 4204.79 6197C4204.63 6197 4204.47 6197 4204.16 6197ZM4282.55 6170.46C4281.45 6156.32 4291.81 6143.92 4305.95 6142.66C4320.09 6141.4 4332.5 6151.93 4333.91 6166.06C4335.01 6180.2 4324.49 6192.6 4310.35 6194.02C4310.35 6194.02 4310.35 6194.02 4310.35 6193.86C4309.72 6194.02 4308.94 6194.02 4308.15 6194.02C4294.8 6194.02 4283.65 6183.96 4282.55 6170.46ZM4098.28 6188.2C4084.14 6186.16 4074.4 6173.13 4076.44 6159.15C4078.48 6145.02 4091.52 6135.28 4105.5 6137.32C4119.49 6139.2 4129.22 6152.24 4127.34 6166.37C4125.61 6179.25 4114.46 6188.52 4101.89 6188.52C4100.79 6188.36 4099.53 6188.2 4098.28 6188.2ZM4385.13 6158.84C4382.46 6145.02 4391.41 6131.35 4405.23 6128.68C4419.06 6125.85 4432.73 6134.81 4435.55 6148.78C4438.22 6162.61 4429.27 6176.27 4415.29 6179.1C4413.56 6179.41 4411.99 6179.57 4410.1 6179.57C4398.32 6179.57 4387.64 6171.09 4385.13 6158.84ZM3994.13 6167.16C3980.3 6163.55 3972.13 6149.57 3975.75 6135.75C3979.36 6121.93 3993.34 6113.76 4007.17 6117.37C4020.99 6120.99 4029.16 6134.96 4025.54 6148.78C4022.4 6160.41 4012.03 6168.1 4000.72 6168.1C3998.53 6168.1 3996.33 6167.63 3994.13 6167.16ZM4485.82 6135.43C4481.42 6121.93 4488.96 6107.48 4502.32 6103.08H4502.47C4515.98 6098.68 4530.44 6106.22 4534.83 6119.73C4539.23 6133.24 4531.69 6147.68 4518.18 6152.08C4515.67 6152.87 4512.84 6153.18 4510.17 6153.18C4499.33 6153.18 4489.44 6146.27 4485.82 6135.43ZM3892.96 6134.34C3879.92 6129.15 3873.32 6114.23 3878.35 6101.04C3883.69 6087.85 3898.46 6081.25 3911.81 6086.43H3911.65C3924.85 6091.62 3931.45 6106.54 3926.26 6119.73C3922.34 6129.94 3912.6 6136.22 3902.39 6136.22C3899.24 6136.22 3896.1 6135.59 3892.96 6134.34ZM4583.06 6100.73C4577.09 6087.69 4582.75 6072.61 4595.79 6066.64C4608.67 6060.68 4623.91 6066.33 4629.87 6079.21C4635.84 6092.24 4630.03 6107.32 4617.15 6113.45C4613.69 6115.02 4610.08 6115.8 4606.47 6115.8C4596.73 6115.8 4587.46 6110.15 4583.06 6100.73ZM3796.35 6090.36C3783.78 6083.61 3778.91 6068.06 3785.51 6055.65C3792.26 6043.09 3807.82 6038.22 3820.23 6044.81C3832.79 6051.57 3837.66 6067.12 3831.07 6079.52C3826.51 6088.32 3817.4 6093.34 3808.29 6093.34C3804.2 6093.19 3800.12 6092.4 3796.35 6090.36ZM4675.75 6055.02C4668.36 6042.77 4672.45 6027.07 4684.54 6019.69C4696.8 6012.3 4712.5 6016.23 4719.89 6028.32C4727.27 6040.57 4723.19 6056.28 4711.09 6063.66C4707.01 6066.17 4702.29 6067.43 4697.9 6067.43C4689.1 6067.43 4680.62 6063.03 4675.75 6055.02ZM3705.39 6035.39C3693.77 6027.38 3690.78 6011.36 3698.64 5999.58C3706.65 5987.8 3722.67 5984.98 3734.45 5992.83C3746.24 6000.84 3749.06 6016.86 3741.21 6028.64C3736.18 6035.86 3728.17 6039.79 3720 6039.79C3714.82 6039.95 3709.79 6038.53 3705.39 6035.39ZM4762.62 5998.95C4753.82 5987.8 4755.86 5971.63 4767.17 5962.99C4778.33 5954.19 4794.51 5956.24 4803.15 5967.7C4811.94 5978.85 4809.9 5995.03 4798.59 6003.67C4794.03 6007.44 4788.38 6009.01 4782.88 6009.01C4775.18 6009.01 4767.64 6005.55 4762.62 5998.95ZM3621.19 5970.68C3610.35 5961.26 3609.25 5945.08 3618.68 5934.25C3627.95 5923.57 3644.13 5922.47 3654.97 5931.74C3665.65 5941 3666.75 5957.34 3657.48 5968.01C3652.3 5973.98 3645.23 5976.97 3638 5976.97C3632.03 5976.81 3626.22 5974.77 3621.19 5970.68ZM4842.42 5933.62C4832.52 5923.41 4832.84 5907.08 4842.89 5897.18C4853.1 5887.29 4869.44 5887.6 4879.34 5897.65C4889.23 5907.86 4888.92 5924.2 4878.86 5934.09C4873.84 5938.96 4867.4 5941.47 4860.96 5941.47C4854.36 5941.47 4847.6 5938.8 4842.42 5933.62ZM3545 5896.56C3535.42 5886.19 3536.21 5869.86 3546.57 5860.12C3556.94 5850.54 3573.28 5851.32 3582.86 5861.85C3592.44 5872.21 3591.82 5888.39 3581.45 5898.13C3576.42 5902.68 3570.29 5904.88 3564.01 5904.88C3556.94 5904.88 3550.19 5902.05 3545 5896.56ZM4914.52 5859.49C4903.53 5850.54 4901.96 5834.36 4910.91 5823.21C4919.86 5812.22 4936.05 5810.65 4947.2 5819.6C4958.2 5828.55 4959.77 5844.73 4950.81 5855.88C4945.63 5862 4938.4 5865.3 4930.86 5865.3C4925.21 5865.3 4919.39 5863.42 4914.52 5859.49ZM3477.77 5814.42C3469.44 5802.95 3471.8 5786.93 3483.27 5778.61C3494.89 5770.28 3510.91 5772.64 3519.24 5784.26C3527.57 5795.73 3525.05 5811.75 3513.58 5820.07C3508.87 5823.37 3503.69 5824.94 3498.35 5824.94C3490.65 5824.94 3482.79 5821.33 3477.77 5814.42ZM4977.67 5777.67C4965.74 5769.97 4962.44 5754.11 4970.13 5742.17C4977.67 5730.23 4993.7 5726.78 5005.64 5734.48C5017.58 5742.17 5021.03 5758.19 5013.33 5769.97C5008.46 5777.67 5000.14 5781.75 4991.66 5781.75C4986.79 5781.75 4982.07 5780.49 4977.67 5777.67ZM3420.12 5725.21C3413.05 5712.8 3417.44 5697.1 3429.85 5690.19C3442.27 5683.12 3457.82 5687.52 3464.89 5699.77C3471.8 5712.17 3467.4 5727.72 3455.3 5734.79C3451.22 5737.15 3446.82 5738.24 3442.58 5738.24C3433.47 5738.24 3424.99 5733.53 3420.12 5725.21ZM5031.09 5689.24C5018.36 5682.96 5013.02 5667.73 5019.3 5654.85C5025.59 5642.13 5040.98 5636.94 5053.71 5643.23C5066.43 5649.51 5071.77 5664.9 5065.49 5677.62C5060.93 5686.73 5051.82 5692.07 5042.4 5692.07C5038.78 5691.91 5034.86 5690.97 5031.09 5689.24ZM3373.14 5630.03C3367.65 5616.84 3373.77 5601.92 3386.81 5596.27C3399.85 5590.93 3414.93 5596.9 3420.59 5610.09C3426.08 5623.12 3419.96 5638.2 3406.76 5643.7C3403.62 5645.11 3400.01 5645.74 3396.71 5645.74C3386.81 5645.74 3377.39 5639.77 3373.14 5630.03ZM5074.13 5595.17C5060.78 5590.46 5053.86 5575.69 5058.58 5562.19C5063.29 5548.84 5078.06 5541.93 5091.57 5546.64C5104.92 5551.35 5111.83 5566.11 5107.12 5579.62C5103.35 5590.14 5093.45 5596.74 5082.93 5596.74C5079.78 5596.74 5076.96 5596.27 5074.13 5595.17ZM3337.33 5529.99C3333.4 5516.33 3341.1 5502.03 3354.61 5498.11C3368.28 5494.03 3382.57 5501.88 3386.65 5515.54C3390.58 5529.21 3382.73 5543.5 3369.22 5547.42C3366.7 5548.21 3364.35 5548.52 3361.99 5548.52C3350.84 5548.37 3340.63 5541.3 3337.33 5529.99ZM5106.02 5496.85C5092.19 5493.71 5083.71 5479.89 5086.85 5466.07C5089.99 5452.25 5103.82 5443.77 5117.64 5446.91C5131.47 5450.05 5139.95 5463.87 5136.81 5477.69C5134.14 5489.47 5123.61 5497.48 5111.83 5497.48C5109.95 5497.48 5108.06 5497.32 5106.02 5496.85ZM3313.29 5426.49C3310.78 5412.51 3320.21 5399.16 3334.19 5396.81C3348.17 5394.3 3361.52 5403.72 3363.88 5417.7C3366.39 5431.67 3356.96 5445.02 3342.98 5447.38C3341.41 5447.69 3340 5447.69 3338.58 5447.69C3326.33 5447.85 3315.34 5439.06 3313.29 5426.49ZM5126.44 5395.55C5112.3 5393.98 5102.09 5381.26 5103.82 5367.13C5105.39 5352.99 5118.11 5342.94 5132.25 5344.51C5146.39 5346.08 5156.6 5358.96 5154.87 5372.94C5153.46 5385.97 5142.31 5395.87 5129.42 5395.87C5128.32 5395.87 5127.38 5395.71 5126.44 5395.55ZM3301.04 5320.95C3300.25 5306.82 3311.09 5294.72 3325.39 5293.78C3339.53 5293 3351.62 5303.83 3352.57 5318.12C3353.35 5332.26 3342.51 5344.35 3328.37 5345.29C3327.9 5345.29 3327.27 5345.29 3326.8 5345.29C3313.29 5345.29 3301.98 5334.77 3301.04 5320.95ZM5109.47 5267.08C5109.47 5266.77 5109.47 5266.45 5109.47 5265.98C5109.47 5265.67 5109.47 5265.51 5109.47 5265.04C5109.32 5250.91 5120.94 5239.28 5135.08 5239.28C5149.38 5239.28 5160.84 5250.75 5161 5265.04C5161 5265.35 5161 5265.67 5161 5265.98C5161 5266.3 5161 5266.61 5161 5267.08C5161 5281.22 5149.38 5292.84 5135.24 5292.84C5120.94 5292.68 5109.47 5281.22 5109.47 5267.08ZM3325.23 5242.11C3311.09 5241.17 3300.25 5229.07 3301.04 5214.94C3301.83 5200.65 3313.92 5189.81 3328.06 5190.6C3342.36 5191.38 3353.19 5203.63 3352.41 5217.77C3351.62 5231.43 3340.31 5242.11 3326.65 5242.11C3326.33 5242.11 3325.7 5242.11 3325.23 5242.11ZM5103.5 5165C5101.78 5150.86 5111.99 5138.14 5126.13 5136.41C5140.26 5134.84 5152.99 5144.89 5154.56 5159.03C5156.29 5173.16 5146.23 5185.88 5132.1 5187.46C5131 5187.61 5130.05 5187.77 5129.11 5187.77C5116.07 5187.77 5105.08 5178.03 5103.5 5165ZM3334.03 5139.08C3320.05 5136.57 3310.62 5123.38 3312.98 5109.4C3315.49 5095.42 3328.69 5086 3342.67 5088.35C3356.65 5090.87 3366.08 5104.06 3363.56 5118.04C3361.52 5130.6 3350.52 5139.55 3338.27 5139.55C3336.86 5139.55 3335.44 5139.4 3334.03 5139.08ZM5086.22 5066.05C5083.08 5052.23 5091.57 5038.41 5105.55 5035.27C5119.37 5032.13 5133.19 5040.61 5136.34 5054.43C5139.48 5068.25 5131 5082.07 5117.17 5085.21C5115.13 5085.68 5113.24 5086 5111.2 5086C5099.73 5086 5089.05 5077.83 5086.22 5066.05ZM3354.14 5037.78C3340.47 5033.86 3332.77 5019.56 3336.7 5005.9C3340.78 4992.24 3355.08 4984.38 3368.59 4988.47C3382.41 4992.39 3390.11 5006.69 3386.18 5020.35C3382.88 5031.5 3372.52 5038.88 3361.36 5038.88C3359.01 5038.88 3356.65 5038.41 3354.14 5037.78ZM5057.79 4969.94C5053.08 4956.59 5059.99 4941.82 5073.34 4936.95C5086.7 4932.24 5101.31 4939.15 5106.33 4952.5C5111.04 4965.85 5104.13 4980.46 5090.78 4985.33C5087.95 4986.43 5084.97 4986.9 5081.98 4986.9C5071.46 4986.9 5061.72 4980.3 5057.79 4969.94ZM3386.03 4939.47C3372.99 4933.97 3366.7 4918.89 3372.2 4905.86C3377.7 4892.82 3392.94 4886.54 3405.82 4892.04C3418.86 4897.53 3425.14 4912.77 3419.64 4925.65C3415.56 4935.54 3405.98 4941.51 3395.92 4941.51C3392.78 4941.51 3389.33 4940.88 3386.03 4939.47ZM5018.68 4877.59C5012.39 4864.87 5017.58 4849.47 5030.3 4843.19C5043.02 4836.91 5058.42 4842.09 5064.7 4854.81C5064.7 4854.81 5064.7 4854.81 5064.7 4854.97C5070.99 4867.69 5065.8 4882.93 5053.08 4889.37C5049.31 4891.25 5045.54 4892.04 5041.61 4892.04C5032.34 4891.88 5023.07 4886.54 5018.68 4877.59ZM3428.91 4845.39C3416.5 4838.32 3412.26 4822.62 3419.33 4810.21C3426.24 4797.8 3441.95 4793.56 3454.36 4800.47C3466.77 4807.38 3471.01 4823.09 3464.1 4835.5V4835.65C3459.39 4843.98 3450.59 4848.69 3441.64 4848.69C3437.24 4848.69 3432.84 4847.59 3428.91 4845.39ZM4969.03 4790.27C4961.34 4778.49 4964.79 4762.47 4976.73 4754.77C4988.67 4747.08 5004.54 4750.53 5012.23 4762.31C5019.93 4774.25 5016.63 4790.27 5004.69 4797.96C5000.3 4800.79 4995.58 4802.04 4990.87 4802.04C4982.23 4802.2 4974.06 4797.96 4969.03 4790.27ZM3482.32 4756.97C3470.7 4748.65 3468.19 4732.47 3476.51 4721.16C3484.84 4709.54 3501.02 4707.18 3512.48 4715.35C3523.95 4723.67 3526.47 4739.69 3518.14 4751.32C3513.11 4758.23 3505.26 4761.84 3497.25 4761.84C3492.22 4761.84 3486.88 4760.27 3482.32 4756.97ZM4909.81 4709.38C4900.86 4698.39 4902.43 4682.21 4913.42 4673.26C4924.42 4664.31 4940.6 4665.88 4949.56 4676.71C4958.51 4687.71 4956.94 4704.04 4946.1 4712.99C4941.23 4716.92 4935.42 4718.81 4929.76 4718.81C4922.38 4718.65 4915 4715.51 4909.81 4709.38ZM3545.47 4674.99C3535.11 4665.41 3534.32 4649.07 3543.9 4638.71C3553.49 4628.19 3569.82 4627.56 3580.19 4636.98C3590.72 4646.56 3591.34 4662.89 3581.92 4673.42C3576.74 4678.91 3569.82 4681.74 3562.91 4681.74C3556.63 4681.74 3550.34 4679.54 3545.47 4674.99ZM4841.79 4635.57C4831.58 4625.83 4831.42 4609.5 4841.32 4599.29C4851.06 4589.08 4867.4 4588.76 4877.61 4598.66C4887.82 4608.55 4888.13 4624.89 4878.24 4635.1C4873.21 4640.28 4866.45 4642.95 4859.7 4642.95C4853.26 4642.79 4846.82 4640.44 4841.79 4635.57ZM3617.42 4601.01C3608 4590.18 3609.25 4574 3619.94 4564.58C3619.94 4564.58 3619.94 4564.58 3619.94 4564.74C3630.77 4555.31 3646.95 4556.57 3656.22 4567.25C3665.65 4577.93 3664.39 4594.1 3653.71 4603.53C3648.84 4607.77 3642.71 4609.81 3636.9 4609.81C3629.67 4609.65 3622.45 4606.67 3617.42 4601.01ZM4765.92 4569.92C4754.76 4561.28 4752.56 4545.1 4761.36 4533.95C4770 4522.64 4786.18 4520.6 4797.33 4529.24C4808.64 4537.88 4810.69 4554.06 4802.05 4565.21C4796.86 4571.96 4789.32 4575.26 4781.62 4575.26C4776.13 4575.26 4770.63 4573.53 4765.92 4569.92ZM3697.22 4535.37C3689.06 4523.59 3692.04 4507.57 3703.82 4499.56C3715.45 4491.39 3731.63 4494.37 3739.64 4506.15C3747.65 4517.78 3744.67 4533.95 3732.88 4541.96C3728.33 4545.1 3723.3 4546.67 3718.27 4546.67C3710.26 4546.52 3702.25 4542.59 3697.22 4535.37ZM4682.97 4513.38C4670.72 4506 4666.79 4490.29 4674.17 4478.04C4681.56 4465.95 4697.27 4462.02 4709.52 4469.25C4721.62 4476.63 4725.54 4492.33 4718.32 4504.58C4713.6 4512.59 4704.96 4516.99 4696.17 4516.99C4691.61 4517.15 4687.21 4515.89 4682.97 4513.38ZM3784.1 4479.3C3777.34 4466.73 3782.21 4451.18 3794.78 4444.59C3807.19 4437.84 3822.74 4442.7 3829.49 4455.11C3836.25 4467.68 3831.38 4483.22 3818.81 4489.98C3814.89 4492.02 3810.8 4492.96 3806.87 4492.96C3797.61 4492.96 3788.65 4488.09 3784.1 4479.3ZM4594.21 4466.58C4581.18 4460.61 4575.52 4445.53 4581.49 4432.5C4587.46 4419.62 4602.54 4413.81 4615.42 4419.77C4615.42 4419.77 4615.42 4419.77 4615.58 4419.77C4628.46 4425.74 4634.27 4440.82 4628.3 4453.85C4623.91 4463.44 4614.48 4468.93 4604.9 4468.93C4601.28 4468.93 4597.67 4468.15 4594.21 4466.58ZM3876.62 4433.59C3871.44 4420.4 3878.04 4405.48 3891.23 4400.3C3904.43 4395.12 3919.19 4401.56 3924.54 4414.75C3929.72 4427.94 3923.12 4442.86 3909.93 4448.04C3906.78 4449.3 3903.8 4449.77 3900.5 4449.77C3890.29 4449.93 3880.71 4443.65 3876.62 4433.59ZM4500.59 4430.3C4487.08 4425.9 4479.7 4411.45 4483.94 4397.94C4488.34 4384.44 4502.79 4377.06 4516.3 4381.3C4529.81 4385.69 4537.19 4400.14 4532.95 4413.65C4529.34 4424.64 4519.28 4431.55 4508.44 4431.55C4505.77 4431.55 4503.1 4431.24 4500.59 4430.3ZM3974.02 4398.73C3970.41 4384.91 3978.57 4370.93 3992.24 4367.32C4006.07 4363.55 4020.05 4371.87 4023.82 4385.54C4027.43 4399.36 4019.26 4413.33 4005.44 4416.95C4003.24 4417.58 4001.04 4417.89 3998.84 4417.89C3987.37 4417.89 3977 4410.19 3974.02 4398.73ZM4403.35 4405.01C4389.53 4402.34 4380.41 4388.68 4383.08 4374.86C4385.91 4361.04 4399.42 4351.77 4413.4 4354.75C4427.23 4357.58 4436.34 4371.09 4433.51 4384.91C4431 4397.16 4420.31 4405.64 4408.38 4405.64C4406.81 4405.48 4405.08 4405.33 4403.35 4405.01ZM4074.56 4375.33C4072.67 4361.19 4082.25 4348.16 4096.39 4346.12C4110.37 4344.07 4123.57 4353.81 4125.45 4367.95C4127.5 4381.92 4117.76 4394.96 4103.78 4397C4102.52 4397.16 4101.26 4397.32 4100.01 4397.32C4087.44 4397.32 4076.44 4388.05 4074.56 4375.33ZM4304.07 4391.19C4289.93 4389.93 4279.4 4377.53 4280.5 4363.39C4281.6 4349.1 4294.17 4338.73 4308.31 4339.83C4322.45 4340.93 4332.97 4353.5 4331.87 4367.63C4330.77 4380.98 4319.46 4391.19 4306.11 4391.19C4305.48 4391.19 4304.7 4391.19 4304.07 4391.19ZM4177.14 4363.55C4176.82 4349.26 4187.98 4337.32 4202.12 4337.01C4216.41 4336.69 4228.19 4347.69 4228.66 4361.98C4229.13 4376.11 4217.98 4387.89 4203.69 4388.52C4203.37 4388.52 4203.21 4388.52 4202.9 4388.52C4188.92 4388.36 4177.61 4377.37 4177.14 4363.55Z" fill="#4A3AFF"/>
<path d="M1118.05 4565.32C1113.42 4561.62 1108.79 4557.92 1103.98 4554.4L322.4 5336.16C325.919 5340.79 329.622 5345.61 333.325 5350.23L1118.05 4565.32Z" fill="#AFA7FF"/>
<path d="M927.127 4464.95C920.646 4463.1 914.165 4461.24 907.499 4459.58L227.576 5139.5C229.243 5145.98 231.094 5152.46 232.946 5159.13L927.127 4464.95Z" fill="#AFA7FF"/>
<path d="M1061.21 4524.96C1056.02 4521.82 1050.84 4518.67 1045.65 4515.71L283.703 5277.66C286.666 5282.84 289.814 5288.03 292.961 5293.21L1061.21 4524.96Z" fill="#AFA7FF"/>
<path d="M997.874 4491.25C992.134 4488.66 986.394 4486.07 980.469 4483.66L251.662 5212.47C254.069 5218.21 256.662 5224.13 259.254 5229.87L997.874 4491.25Z" fill="#AFA7FF"/>
<path d="M847.343 4447.53C839.936 4446.42 832.53 4445.68 825.123 4444.75L212.785 5057.27C213.526 5064.68 214.452 5072.09 215.563 5079.49L847.343 4447.53Z" fill="#AFA7FF"/>
<path d="M1162.67 4605.28C1160.64 4603.24 1158.42 4601.21 1156.38 4599.17L367.209 5388.34C369.246 5390.38 371.283 5392.6 373.319 5394.64C375.356 5396.67 377.578 5398.71 379.615 5400.75L1168.79 4611.58C1166.75 4609.54 1164.71 4607.32 1162.67 4605.28Z" fill="#AFA7FF"/>
<path d="M755.864 4442C747.161 4442.19 738.459 4442.56 729.756 4443.11L211.296 4961.57C210.555 4970.46 210.185 4979.16 210 4987.86L755.864 4442Z" fill="#AFA7FF"/>
<path d="M223.525 4877.15L645.144 4455.53C633.849 4458.12 622.739 4460.9 611.63 4464.23L232.043 4843.82C228.895 4854.74 225.933 4866.04 223.525 4877.15Z" fill="#AFA7FF"/>
<path d="M1324.89 5038.43C1325.44 5029.72 1325.81 5021.02 1326 5012.32L780.32 5558C789.023 5557.81 797.726 5557.44 806.428 5556.89L1324.89 5038.43Z" fill="#AFA7FF"/>
<path d="M1323.2 4942.9C1322.46 4935.49 1321.53 4928.08 1320.42 4920.68L688.642 5552.64C696.048 5553.75 703.455 5554.49 710.861 5555.42L1323.2 4942.9Z" fill="#AFA7FF"/>
<path d="M484.598 4519.03C444.973 4542.55 407.57 4571.25 373.499 4605.32C339.429 4639.39 310.729 4676.79 287.213 4716.42L484.598 4519.03Z" fill="#AFA7FF"/>
<path d="M1303.94 5156.35C1307.09 5145.24 1310.05 5134.13 1312.64 5122.84L890.839 5544.46C902.134 5541.87 913.244 5539.09 924.354 5535.76L1303.94 5156.35Z" fill="#AFA7FF"/>
<path d="M1051.56 5480.94C1091.18 5457.42 1128.58 5428.72 1162.66 5394.65C1196.73 5360.58 1225.43 5323.18 1248.94 5283.55L1051.56 5480.94Z" fill="#AFA7FF"/>
<path d="M1252.3 4722.35C1249.34 4717.17 1246.19 4711.98 1243.05 4706.8L474.8 5475.04C479.984 5478.19 485.169 5481.34 490.354 5484.3L1252.3 4722.35Z" fill="#AFA7FF"/>
<path d="M1213.78 4664.02C1210.27 4659.39 1206.56 4654.58 1202.86 4649.95L417.948 5434.86C422.577 5438.56 427.206 5442.27 432.021 5445.78L1213.78 4664.02Z" fill="#AFA7FF"/>
<path d="M1308.56 4860.46C1306.9 4853.97 1305.04 4847.49 1303.19 4840.83L608.826 5535.19C615.307 5537.05 621.788 5538.9 628.454 5540.56L1308.56 4860.46Z" fill="#AFA7FF"/>
<path d="M1284.34 4787.49C1281.93 4781.75 1279.34 4775.83 1276.74 4770.09L538.124 5508.71C543.864 5511.3 549.604 5513.89 555.529 5516.3L1284.34 4787.49Z" fill="#AFA7FF"/>
<circle cx="5753.5" cy="7744.5" r="160.5" fill="white"/>
<circle cx="6074.5" cy="7904.5" r="160.5" fill="white"/>
<path d="M7195 8963.8C6909.49 8963.8 6677 9196.29 6677 9481.8C6677 9767.51 6909.49 10000 7195 10000C7480.51 10000 7713 9767.51 7713 9481.8C7713.19 9196.29 7480.71 8963.8 7195 8963.8ZM7195 9960.77C6931.05 9960.77 6716.23 9745.95 6716.23 9481.8C6716.23 9217.85 6931.05 9003.04 7195 9003.04C7458.95 9003.04 7673.77 9217.85 7673.77 9481.8C7673.96 9745.95 7459.15 9960.77 7195 9960.77Z" fill="#4A3AFF"/>
<path d="M7195.01 9245.05C7064.3 9245.05 6958.06 9351.29 6958.06 9482C6958.06 9612.72 7064.3 9718.96 7195.01 9718.96C7325.73 9718.96 7431.97 9612.72 7431.97 9482C7431.97 9351.29 7325.73 9245.05 7195.01 9245.05ZM7195.01 9679.53C7086.05 9679.53 6997.29 9590.77 6997.29 9481.81C6997.29 9372.85 7086.05 9284.28 7195.01 9284.28C7303.97 9284.28 7392.73 9373.04 7392.73 9482C7392.73 9590.96 7304.17 9679.53 7195.01 9679.53Z" fill="#4A3AFF"/>
<path d="M2724 5951.12L3235.37 6462.49V6433.37L2724 5922V5951.12Z" fill="white"/>
<path d="M2724 6215.86L3235.37 6727.23V6697.9L2724 6186.54V6215.86Z" fill="white"/>
<path d="M2724 6480.43L3235.37 6991.79V6962.67L2724 6451.31V6480.43Z" fill="white"/>
<path d="M2724 6745.04L3235.37 7256.41V7227.29L2724 6715.92V6745.04Z" fill="white"/>
<path d="M2724 7009.79L3235.37 7521.15V7491.82L2724 6980.46V7009.79Z" fill="white"/>
<path d="M2724 7274.36L3235.37 7785.72V7756.6L2724 7245.24V7274.36Z" fill="white"/>
<path d="M2724 7538.89L3235.37 8050.25V8021.13L2724 7509.77V7538.89Z" fill="white"/>
<path d="M2724 7803.72L3235.37 8315.08V8285.75L2724 7774.39V7803.72Z" fill="white"/>
<path d="M2724 8068.24L3235.37 8579.61V8550.28L2724 8038.92V8068.24Z" fill="white"/>
<path d="M2724 8332.82L3235.37 8844.18V8815.06L2724 8303.7V8332.82Z" fill="white"/>
<path d="M2724 8597.35L3235.37 9108.72V9079.6L2724 8568.23V8597.35Z" fill="white"/>
<path d="M2724 8862.17L3235.37 9373.54V9344.21L2724 8832.85V8862.17Z" fill="white"/>
<path d="M2724 9126.74L3235.37 9638.1V9608.98L2724 9097.62V9126.74Z" fill="white"/>
<path d="M2724 9391.28L3235.37 9902.64V9873.52L2724 9362.16V9391.28Z" fill="white"/>
<path d="M8670 8966V10000C8947.5 9994.9 9171 9765.49 9171 9483.03C9171 9200.51 8947.56 8971.1 8670 8966Z" fill="#EBE9FF"/>
<path d="M8964 8966V10000C9242.62 9994.9 9467 9765.49 9467 9483.03C9467 9200.51 9242.62 8971.1 8964 8966Z" fill="#C3BDFF"/>
<path d="M5914 6848.47L6340.55 7149.17L6767.1 6848.47L7193.8 7149.17L7620.35 6848.47L8047.05 7149.17L8473.6 6848.47L8900.3 7149.17L9327 6848.47" stroke="#4A3AFF" stroke-width="25" stroke-miterlimit="10" stroke-linecap="round" stroke-linejoin="round"/>
<path d="M5914 6577.83L6340.55 6878.54L6767.1 6577.83L7193.8 6878.54L7620.35 6577.83L8047.05 6878.54L8473.6 6577.83L8900.3 6878.54L9327 6577.83" stroke="#867CFF" stroke-width="25" stroke-miterlimit="10" stroke-linecap="round" stroke-linejoin="round"/>
<path d="M1 4030.64L427.55 4331.34L854.1 4030.64L1280.8 4331.34L1707.35 4030.64L2134.05 4331.34L2560.6 4030.64L2987.3 4331.34L3414 4030.64" stroke="#4A3AFF" stroke-width="25" stroke-miterlimit="10" stroke-linecap="round" stroke-linejoin="round"/>
<path d="M1 3760L427.55 4060.7L854.1 3760L1280.8 4060.7L1707.35 3760L2134.05 4060.7L2560.6 3760L2987.3 4060.7L3414 3760" stroke="#867CFF" stroke-width="25" stroke-miterlimit="10" stroke-linecap="round" stroke-linejoin="round"/>
<path d="M8144 8961V9762" stroke="#4A3AFF" stroke-width="25"/>
<path d="M7952 9199V10000" stroke="#4A3AFF" stroke-width="25"/>
<path d="M8336 9199V10000" stroke="#4A3AFF" stroke-width="25"/>
</g>
<defs>
<clipPath id="clip0_1702_275">
<rect width="10000" height="10000" fill="white"/>
</clipPath>
</defs>
</svg>
