<svg width="10000" height="10000" viewBox="0 0 10000 10000" fill="none" xmlns="http://www.w3.org/2000/svg">
<g clip-path="url(#clip0_1702_277)">
<rect width="10000" height="10000" fill="white"/>
<path d="M5024 7489H2518V10000H5024V7489Z" fill="#EBE9FF"/>
<path d="M2495 2532V1247C2495 558.301 1936.7 0 1248 0C559.301 0 1 558.301 1 1247V2532H2495Z" fill="#D7D3FF"/>
<path d="M2494 2497H0V3746C0 4434.7 558.301 4993 1247 4993C1935.7 4993 2494 4434.7 2494 3746V2497Z" fill="#4A3AFF"/>
<path d="M2518 4993H0V7489H2518V4993Z" fill="#EBE9FF"/>
<path d="M9998 7489H7518V10000H9998V7489Z" fill="#D7D3FF"/>
<path d="M5036 0H2494V2496H5036V0Z" fill="#EBE9FF"/>
<path d="M5024 2496H2494V4993H5024V2496Z" fill="#D7D3FF"/>
<path d="M5024 4993H2518V7489H5024V4993Z" fill="#D7D3FF"/>
<path d="M7506 0H5024V2496H7506V0Z" fill="#D7D3FF"/>
<path d="M5860 2496C5404.92 2496 5036 2126.06 5036 1669.71V838H5860V2496Z" fill="#AFA7FF"/>
<path d="M5846 2496C6301.08 2496 6670 2126.06 6670 1669.71V838H5846V2496Z" fill="#AFA7FF"/>
<path d="M6324 2497H5024V4993H6324V2497Z" fill="#EBE9FF"/>
<path d="M7530 4993H5024V6257H7530V4993Z" fill="#D7D3FF"/>
<path d="M7530 8752H5026V10000H7530V8752Z" fill="#EBE9FF"/>
<path d="M10000 0H7506V2496H10000V0Z" fill="#EBE9FF"/>
<path d="M10012 2497H6324V4993H10012V2497Z" fill="#4A3AFF"/>
<path d="M10004 4993H7530V7504H10004V4993Z" fill="#EBE9FF"/>
<path d="M7525 7504H8767V8752L7525 7504Z" fill="#4A3AFF"/>
<path d="M7530 4993H8767V6256L7530 4993Z" fill="#4A3AFF"/>
<path d="M8765 8751H9998V9999L8765 8751Z" fill="#4A3AFF"/>
<path d="M8767 6257H9998V7509L8767 6257Z" fill="#4A3AFF"/>
<path d="M8765 8751H9998V7504L8765 8751Z" fill="#4A3AFF"/>
<path d="M8765 6257H9998V4993L8765 6257Z" fill="#4A3AFF"/>
<path d="M7518 10000H8767V8752L7518 10000Z" fill="#4A3AFF"/>
<path d="M7519 7504H8767V6256L7519 7504Z" fill="#4A3AFF"/>
<mask id="mask0_1702_277" style="mask-type:alpha" maskUnits="userSpaceOnUse" x="5026" y="8740" width="2504" height="1260">
<path d="M7530 8740.84H5026V10000H7530V8740.84Z" fill="#EBE9FF"/>
</mask>
<g mask="url(#mask0_1702_277)">
<ellipse cx="6276.86" cy="10000" rx="1252" ry="1258.15" fill="#9A92FF"/>
</g>
<mask id="mask1_1702_277" style="mask-type:alpha" maskUnits="userSpaceOnUse" x="2530" y="7505" width="2497" height="1256">
<path d="M5026.4 7505.41H2530V8760.75H5026.4V7505.41Z" fill="#EBE9FF"/>
</mask>
<g mask="url(#mask1_1702_277)">
<ellipse cx="3777.06" cy="8760.75" rx="1248.2" ry="1254.33" fill="#9A92FF"/>
</g>
<mask id="mask2_1702_277" style="mask-type:alpha" maskUnits="userSpaceOnUse" x="5024" y="4993" width="2506" height="1264">
<path d="M7530 4993H5024V6257H7530V4993Z" fill="#D7D3FF"/>
</mask>
<g mask="url(#mask2_1702_277)">
<circle cx="6283" cy="4992" r="1247" fill="#9A92FF"/>
</g>
<circle cx="6282.5" cy="7504.5" r="1205" stroke="#4A3AFF" stroke-width="15"/>
<circle cx="6282.5" cy="7504.5" r="1205" stroke="#4A3AFF" stroke-width="15"/>
<path d="M7312.5 7504.5C7312.5 8072.8 6851.58 8533.5 6283 8533.5C5714.42 8533.5 5253.5 8072.8 5253.5 7504.5C5253.5 6936.2 5714.42 6475.5 6283 6475.5C6851.58 6475.5 7312.5 6936.2 7312.5 7504.5Z" stroke="#4A3AFF" stroke-width="15"/>
<path d="M7092.5 7504.5C7092.5 7951.29 6730.08 8313.5 6283 8313.5C5835.92 8313.5 5473.5 7951.29 5473.5 7504.5C5473.5 7057.71 5835.92 6695.5 6283 6695.5C6730.08 6695.5 7092.5 7057.71 7092.5 7504.5Z" stroke="#4A3AFF" stroke-width="15"/>
<path d="M6881.5 7505C6881.5 7835.54 6613.32 8103.5 6282.5 8103.5C5951.68 8103.5 5683.5 7835.54 5683.5 7505C5683.5 7174.46 5951.68 6906.5 6282.5 6906.5C6613.32 6906.5 6881.5 7174.46 6881.5 7505Z" stroke="#4A3AFF" stroke-width="15"/>
<path d="M6682.5 7504.5C6682.5 7725.42 6503.63 7904.5 6283 7904.5C6062.37 7904.5 5883.5 7725.42 5883.5 7504.5C5883.5 7283.58 6062.37 7104.5 6283 7104.5C6503.63 7104.5 6682.5 7283.58 6682.5 7504.5Z" stroke="#4A3AFF" stroke-width="15"/>
<path d="M6494.5 7504.5C6494.5 7621.02 6399.82 7715.5 6283 7715.5C6166.18 7715.5 6071.5 7621.02 6071.5 7504.5C6071.5 7387.98 6166.18 7293.5 6283 7293.5C6399.82 7293.5 6494.5 7387.98 6494.5 7504.5Z" stroke="#4A3AFF" stroke-width="15"/>
<path d="M9948.37 3751.88H8086.41H8086.2L8086.31 3751.99L9017.29 4999.89L9017.39 4999.99L9017.5 4999.89L9948.48 3751.99L9948.58 3751.88H9948.37Z" fill="#EBE9FF"/>
<path d="M9016.98 2504L8086.1 3751.69L8086 3751.9H8086.21H9947.96L9016.98 2504Z" fill="#EBE9FF"/>
<path d="M9136.37 3751.88H7274.41H7274.2L7274.31 3751.99L8205.29 4999.89L8205.39 4999.99L8205.5 4999.89L9136.48 3751.99L9136.58 3751.88H9136.37Z" fill="#D7D3FF"/>
<path d="M8204.98 2504L7274.1 3751.69L7274 3751.9H7274.21H9135.96L8204.98 2504Z" fill="#D7D3FF"/>
<path d="M8248.37 3743.88H6386.41H6386.2L6386.31 3743.99L7317.29 4991.89L7317.39 4991.99L7317.5 4991.89L8248.48 3743.99L8248.58 3743.88H8248.37Z" fill="#C3BDFF"/>
<path d="M7316.98 2496L6386.1 3743.69L6386 3743.9H6386.21H8247.96L7316.98 2496Z" fill="#C3BDFF"/>
<path d="M5245.3 2953.46C5280.02 2945.26 5314.81 2966.76 5323.01 3001.47C5331.21 3036.18 5309.71 3070.96 5274.99 3079.16C5240.27 3087.36 5205.47 3065.86 5197.27 3031.15C5189.07 2996.44 5210.58 2961.65 5245.3 2953.46Z" fill="white"/>
<path d="M5195.58 2812.39C5196.14 2776.73 5225.51 2748.27 5261.19 2748.83C5296.86 2749.38 5325.33 2778.75 5324.77 2814.41C5324.22 2850.07 5294.85 2878.53 5259.17 2877.98C5223.5 2877.42 5195.03 2848.06 5195.58 2812.39Z" fill="white"/>
<path d="M5245.62 2547.57C5280.37 2539.52 5315.08 2561.17 5323.13 2595.91C5331.18 2630.66 5309.54 2665.36 5274.78 2673.41C5240.02 2681.46 5205.32 2659.81 5197.26 2625.07C5189.21 2590.32 5210.86 2555.62 5245.62 2547.57Z" fill="white"/>
<path d="M5520.73 2953.46C5555.45 2945.26 5590.24 2966.76 5598.44 3001.47C5606.64 3036.18 5585.14 3070.96 5550.42 3079.16C5515.7 3087.36 5480.9 3065.86 5472.7 3031.15C5464.5 2996.44 5486.01 2961.65 5520.73 2953.46Z" fill="white"/>
<path d="M5471.01 2812.39C5471.57 2776.73 5500.94 2748.27 5536.62 2748.83C5572.29 2749.38 5600.76 2778.75 5600.2 2814.41C5599.65 2850.07 5570.28 2878.53 5534.6 2877.98C5498.93 2877.42 5470.46 2848.06 5471.01 2812.39Z" fill="white"/>
<path d="M5521.05 2547.57C5555.8 2539.52 5590.51 2561.17 5598.56 2595.91C5606.61 2630.66 5584.97 2665.36 5550.21 2673.41C5515.45 2681.46 5480.75 2659.81 5472.69 2625.07C5464.64 2590.32 5486.29 2555.62 5521.05 2547.57Z" fill="white"/>
<path d="M5796.73 2952.46C5831.45 2944.26 5866.24 2965.76 5874.44 3000.47C5882.64 3035.18 5861.14 3069.96 5826.42 3078.16C5791.7 3086.36 5756.9 3064.86 5748.7 3030.15C5740.5 2995.44 5762.01 2960.65 5796.73 2952.46Z" fill="white"/>
<path d="M5747.01 2811.39C5747.57 2775.73 5776.94 2747.27 5812.62 2747.83C5848.29 2748.38 5876.76 2777.75 5876.2 2813.41C5875.65 2849.07 5846.28 2877.53 5810.6 2876.98C5774.93 2876.42 5746.46 2847.06 5747.01 2811.39Z" fill="white"/>
<path d="M5797.05 2546.57C5831.8 2538.52 5866.51 2560.17 5874.56 2594.91C5882.61 2629.66 5860.97 2664.36 5826.21 2672.41C5791.45 2680.46 5756.75 2658.81 5748.69 2624.07C5740.64 2589.32 5762.29 2554.62 5797.05 2546.57Z" fill="white"/>
<path d="M6072.73 2952.46C6107.45 2944.26 6142.24 2965.76 6150.44 3000.47C6158.64 3035.18 6137.14 3069.96 6102.42 3078.16C6067.7 3086.36 6032.9 3064.86 6024.7 3030.15C6016.5 2995.44 6038.01 2960.65 6072.73 2952.46Z" fill="white"/>
<path d="M6023.01 2811.39C6023.57 2775.73 6052.94 2747.27 6088.62 2747.83C6124.29 2748.38 6152.76 2777.75 6152.2 2813.41C6151.65 2849.07 6122.28 2877.53 6086.6 2876.98C6050.93 2876.42 6022.46 2847.06 6023.01 2811.39Z" fill="white"/>
<path d="M6073.05 2546.57C6107.8 2538.52 6142.51 2560.17 6150.56 2594.91C6158.61 2629.66 6136.97 2664.36 6102.21 2672.41C6067.45 2680.46 6032.75 2658.81 6024.69 2624.07C6016.64 2589.32 6038.29 2554.62 6073.05 2546.57Z" fill="white"/>
<path d="M5244.87 3574.46C5279.59 3566.26 5314.38 3587.76 5322.58 3622.47C5330.78 3657.18 5309.28 3691.96 5274.56 3700.16C5239.84 3708.36 5205.04 3686.86 5196.84 3652.15C5188.65 3617.44 5210.15 3582.65 5244.87 3574.46Z" fill="white"/>
<path d="M5195.15 3433.39C5195.71 3397.73 5225.08 3369.27 5260.76 3369.83C5296.43 3370.38 5324.9 3399.75 5324.34 3435.41C5323.79 3471.07 5294.42 3499.53 5258.74 3498.98C5223.07 3498.42 5194.6 3469.06 5195.15 3433.39Z" fill="white"/>
<path d="M5245.19 3168.57C5279.95 3160.52 5314.65 3182.17 5322.7 3216.91C5330.75 3251.66 5309.11 3286.36 5274.35 3294.41C5239.59 3302.46 5204.89 3280.81 5196.83 3246.07C5188.78 3211.32 5210.43 3176.62 5245.19 3168.57Z" fill="white"/>
<path d="M5520.3 3574.46C5555.02 3566.26 5589.81 3587.76 5598.01 3622.47C5606.21 3657.18 5584.71 3691.96 5549.99 3700.16C5515.27 3708.36 5480.47 3686.86 5472.27 3652.15C5464.07 3617.44 5485.58 3582.65 5520.3 3574.46Z" fill="white"/>
<path d="M5470.58 3433.39C5471.14 3397.73 5500.51 3369.27 5536.19 3369.83C5571.86 3370.38 5600.33 3399.75 5599.77 3435.41C5599.22 3471.07 5569.85 3499.53 5534.17 3498.98C5498.5 3498.42 5470.03 3469.06 5470.58 3433.39Z" fill="white"/>
<path d="M5520.62 3168.57C5555.37 3160.52 5590.08 3182.17 5598.13 3216.91C5606.18 3251.66 5584.54 3286.36 5549.78 3294.41C5515.02 3302.46 5480.32 3280.81 5472.26 3246.07C5464.21 3211.32 5485.86 3176.62 5520.62 3168.57Z" fill="white"/>
<path d="M5796.3 3573.46C5831.02 3565.26 5865.81 3586.76 5874.01 3621.47C5882.21 3656.18 5860.71 3690.96 5825.99 3699.16C5791.27 3707.36 5756.47 3685.86 5748.27 3651.15C5740.07 3616.44 5761.58 3581.65 5796.3 3573.46Z" fill="white"/>
<path d="M5746.58 3432.39C5747.14 3396.73 5776.51 3368.27 5812.19 3368.83C5847.86 3369.38 5876.33 3398.75 5875.77 3434.41C5875.22 3470.07 5845.85 3498.53 5810.17 3497.98C5774.5 3497.42 5746.03 3468.06 5746.58 3432.39Z" fill="white"/>
<path d="M5796.62 3167.57C5831.37 3159.52 5866.08 3181.17 5874.13 3215.91C5882.18 3250.66 5860.54 3285.36 5825.78 3293.41C5791.02 3301.46 5756.32 3279.81 5748.26 3245.07C5740.21 3210.32 5761.86 3175.62 5796.62 3167.57Z" fill="white"/>
<path d="M6072.3 3573.46C6107.02 3565.26 6141.81 3586.76 6150.01 3621.47C6158.21 3656.18 6136.71 3690.96 6101.99 3699.16C6067.27 3707.36 6032.47 3685.86 6024.27 3651.15C6016.07 3616.44 6037.58 3581.65 6072.3 3573.46Z" fill="white"/>
<path d="M6022.58 3432.39C6023.14 3396.73 6052.51 3368.27 6088.19 3368.83C6123.86 3369.38 6152.33 3398.75 6151.77 3434.41C6151.22 3470.07 6121.85 3498.53 6086.17 3497.98C6050.5 3497.42 6022.03 3468.06 6022.58 3432.39Z" fill="white"/>
<path d="M6072.62 3167.57C6107.37 3159.52 6142.08 3181.17 6150.13 3215.91C6158.18 3250.66 6136.54 3285.36 6101.78 3293.41C6067.02 3301.46 6032.32 3279.81 6024.26 3245.07C6016.21 3210.32 6037.86 3175.62 6072.62 3167.57Z" fill="white"/>
<path d="M5244.87 4195.46C5279.59 4187.26 5314.38 4208.76 5322.58 4243.47C5330.78 4278.18 5309.28 4312.96 5274.56 4321.16C5239.84 4329.36 5205.04 4307.86 5196.84 4273.15C5188.65 4238.44 5210.15 4203.65 5244.87 4195.46Z" fill="white"/>
<path d="M5195.15 4054.4C5195.71 4018.73 5225.08 3990.27 5260.76 3990.83C5296.43 3991.38 5324.9 4020.75 5324.34 4056.41C5323.79 4092.07 5294.42 4120.54 5258.74 4119.98C5223.07 4119.42 5194.6 4090.06 5195.15 4054.4Z" fill="white"/>
<path d="M5245.19 3789.57C5279.95 3781.52 5314.65 3803.17 5322.7 3837.91C5330.75 3872.66 5309.11 3907.36 5274.35 3915.41C5239.59 3923.46 5204.89 3901.81 5196.83 3867.07C5188.78 3832.32 5210.43 3797.62 5245.19 3789.57Z" fill="white"/>
<path d="M5520.3 4195.46C5555.02 4187.26 5589.81 4208.76 5598.01 4243.47C5606.21 4278.18 5584.71 4312.96 5549.99 4321.16C5515.27 4329.36 5480.47 4307.86 5472.27 4273.15C5464.07 4238.44 5485.58 4203.65 5520.3 4195.46Z" fill="white"/>
<path d="M5470.58 4054.4C5471.14 4018.73 5500.51 3990.27 5536.19 3990.83C5571.86 3991.38 5600.33 4020.75 5599.77 4056.41C5599.22 4092.07 5569.85 4120.54 5534.17 4119.98C5498.5 4119.42 5470.03 4090.06 5470.58 4054.4Z" fill="white"/>
<path d="M5520.62 3789.57C5555.37 3781.52 5590.08 3803.17 5598.13 3837.91C5606.18 3872.66 5584.54 3907.36 5549.78 3915.41C5515.02 3923.46 5480.32 3901.81 5472.26 3867.07C5464.21 3832.32 5485.86 3797.62 5520.62 3789.57Z" fill="white"/>
<path d="M5796.3 4194.46C5831.02 4186.26 5865.81 4207.76 5874.01 4242.47C5882.21 4277.18 5860.71 4311.96 5825.99 4320.16C5791.27 4328.36 5756.47 4306.86 5748.27 4272.15C5740.07 4237.44 5761.58 4202.65 5796.3 4194.46Z" fill="white"/>
<path d="M5746.58 4053.4C5747.14 4017.73 5776.51 3989.27 5812.19 3989.83C5847.86 3990.38 5876.33 4019.75 5875.77 4055.41C5875.22 4091.07 5845.85 4119.54 5810.17 4118.98C5774.5 4118.42 5746.03 4089.06 5746.58 4053.4Z" fill="white"/>
<path d="M5796.62 3788.57C5831.37 3780.52 5866.08 3802.17 5874.13 3836.91C5882.18 3871.66 5860.54 3906.36 5825.78 3914.41C5791.02 3922.46 5756.32 3900.81 5748.26 3866.07C5740.21 3831.32 5761.86 3796.62 5796.62 3788.57Z" fill="white"/>
<path d="M6072.3 4194.46C6107.02 4186.26 6141.81 4207.76 6150.01 4242.47C6158.21 4277.18 6136.71 4311.96 6101.99 4320.16C6067.27 4328.36 6032.47 4306.86 6024.27 4272.15C6016.07 4237.44 6037.58 4202.65 6072.3 4194.46Z" fill="white"/>
<path d="M6022.58 4053.4C6023.14 4017.73 6052.51 3989.27 6088.19 3989.83C6123.86 3990.38 6152.33 4019.75 6151.77 4055.41C6151.22 4091.07 6121.85 4119.54 6086.17 4118.98C6050.5 4118.42 6022.03 4089.06 6022.58 4053.4Z" fill="white"/>
<path d="M6072.62 3788.57C6107.37 3780.52 6142.08 3802.17 6150.13 3836.91C6158.18 3871.66 6136.54 3906.36 6101.78 3914.41C6067.02 3922.46 6032.32 3900.81 6024.26 3866.07C6016.21 3831.32 6037.86 3796.62 6072.62 3788.57Z" fill="white"/>
<path d="M5244.87 4816.46C5279.59 4808.26 5314.38 4829.76 5322.58 4864.47C5330.78 4899.18 5309.28 4933.96 5274.56 4942.16C5239.84 4950.36 5205.04 4928.86 5196.84 4894.15C5188.65 4859.44 5210.15 4824.65 5244.87 4816.46Z" fill="white"/>
<path d="M5195.15 4675.4C5195.71 4639.73 5225.08 4611.27 5260.76 4611.83C5296.43 4612.38 5324.9 4641.75 5324.34 4677.41C5323.79 4713.07 5294.42 4741.54 5258.74 4740.98C5223.07 4740.42 5194.6 4711.06 5195.15 4675.4Z" fill="white"/>
<path d="M5245.19 4410.57C5279.95 4402.52 5314.65 4424.17 5322.7 4458.91C5330.75 4493.66 5309.11 4528.36 5274.35 4536.41C5239.59 4544.46 5204.89 4522.81 5196.83 4488.07C5188.78 4453.32 5210.43 4418.62 5245.19 4410.57Z" fill="white"/>
<path d="M5520.3 4816.46C5555.02 4808.26 5589.81 4829.76 5598.01 4864.47C5606.21 4899.18 5584.71 4933.96 5549.99 4942.16C5515.27 4950.36 5480.47 4928.86 5472.27 4894.15C5464.07 4859.44 5485.58 4824.65 5520.3 4816.46Z" fill="white"/>
<path d="M5470.58 4675.4C5471.14 4639.73 5500.51 4611.27 5536.19 4611.83C5571.86 4612.38 5600.33 4641.75 5599.77 4677.41C5599.22 4713.07 5569.85 4741.54 5534.17 4740.98C5498.5 4740.42 5470.03 4711.06 5470.58 4675.4Z" fill="white"/>
<path d="M5520.62 4410.57C5555.37 4402.52 5590.08 4424.17 5598.13 4458.91C5606.18 4493.66 5584.54 4528.36 5549.78 4536.41C5515.02 4544.46 5480.32 4522.81 5472.26 4488.07C5464.21 4453.32 5485.86 4418.62 5520.62 4410.57Z" fill="white"/>
<path d="M5796.3 4815.46C5831.02 4807.26 5865.81 4828.76 5874.01 4863.47C5882.21 4898.18 5860.71 4932.96 5825.99 4941.16C5791.27 4949.36 5756.47 4927.86 5748.27 4893.15C5740.07 4858.44 5761.58 4823.65 5796.3 4815.46Z" fill="white"/>
<path d="M5746.58 4674.4C5747.14 4638.73 5776.51 4610.27 5812.19 4610.83C5847.86 4611.38 5876.33 4640.75 5875.77 4676.41C5875.22 4712.07 5845.85 4740.54 5810.17 4739.98C5774.5 4739.42 5746.03 4710.06 5746.58 4674.4Z" fill="white"/>
<path d="M5796.62 4409.57C5831.37 4401.52 5866.08 4423.17 5874.13 4457.91C5882.18 4492.66 5860.54 4527.36 5825.78 4535.41C5791.02 4543.46 5756.32 4521.81 5748.26 4487.07C5740.21 4452.32 5761.86 4417.62 5796.62 4409.57Z" fill="white"/>
<path d="M6072.3 4815.46C6107.02 4807.26 6141.81 4828.76 6150.01 4863.47C6158.21 4898.18 6136.71 4932.96 6101.99 4941.16C6067.27 4949.36 6032.47 4927.86 6024.27 4893.15C6016.07 4858.44 6037.58 4823.65 6072.3 4815.46Z" fill="white"/>
<path d="M6022.58 4674.4C6023.14 4638.73 6052.51 4610.27 6088.19 4610.83C6123.86 4611.38 6152.33 4640.75 6151.77 4676.41C6151.22 4712.07 6121.85 4740.54 6086.17 4739.98C6050.5 4739.42 6022.03 4710.06 6022.58 4674.4Z" fill="white"/>
<path d="M6072.62 4409.57C6107.37 4401.52 6142.08 4423.17 6150.13 4457.91C6158.18 4492.66 6136.54 4527.36 6101.78 4535.41C6067.02 4543.46 6032.32 4521.81 6024.26 4487.07C6016.21 4452.32 6037.86 4417.62 6072.62 4409.57Z" fill="white"/>
<path d="M8752.5 667.409L9111.18 144L9093.63 778.45L9691.43 565.86L9304.28 1068.86L9913 1248.24L9304.28 1427.14L9691.43 1930.14L9093.63 1717.55L9111.18 2352L8752.5 1828.59L8393.82 2352L8411.37 1717.55L7813.57 1930.14L8200.72 1427.14L7592 1248.24L8200.72 1068.86L7813.57 565.86L8411.37 778.45L8393.82 144L8752.5 667.409Z" fill="#AFA7FF"/>
<path d="M1270.5 5660.41L1629.18 5137L1611.63 5771.45L2209.43 5558.86L1822.28 6061.86L2431 6241.24L1822.28 6420.14L2209.43 6923.14L1611.63 6710.55L1629.18 7345L1270.5 6821.59L911.818 7345L929.372 6710.55L331.569 6923.14L718.717 6420.14L110 6241.24L718.717 6061.86L331.569 5558.86L929.372 5771.45L911.818 5137L1270.5 5660.41Z" fill="#AFA7FF"/>
<path d="M7499.86 0H6670.15V2496H7499.86V0Z" fill="white"/>
<path d="M7341.28 480.669C7375.02 339.002 7287.55 196.804 7145.93 163.062C7004.3 129.32 6862.15 216.811 6828.41 358.478C6794.68 500.146 6882.15 642.343 7023.77 676.085C7165.4 709.827 7307.55 622.336 7341.28 480.669Z" fill="#D7D3FF"/>
<path d="M7271.25 1434.58C7374.2 1331.61 7374.2 1164.65 7271.25 1061.68C7168.31 958.703 7001.41 958.704 6898.46 1061.68C6795.52 1164.65 6795.52 1331.6 6898.46 1434.58C7001.41 1537.55 7168.31 1537.55 7271.25 1434.58Z" fill="#D7D3FF"/>
<path d="M7341.4 2137.28C7375.14 1995.62 7287.67 1853.42 7146.05 1819.68C7004.42 1785.93 6862.26 1873.43 6828.53 2015.09C6794.8 2156.76 6882.27 2298.96 7023.89 2332.7C7165.52 2366.44 7307.67 2278.95 7341.4 2137.28Z" fill="#D7D3FF"/>
<path d="M6227.44 1930V837.559" stroke="#5E50FF" stroke-width="10" stroke-miterlimit="10"/>
<path d="M6128.05 1930V837.559" stroke="#5E50FF" stroke-width="10" stroke-miterlimit="10"/>
<path d="M6028.81 1930V837.559" stroke="#5E50FF" stroke-width="10" stroke-miterlimit="10"/>
<path d="M5929.41 1930V837.559" stroke="#5E50FF" stroke-width="10" stroke-miterlimit="10"/>
<path d="M5830.16 1930V837.559" stroke="#5E50FF" stroke-width="10" stroke-miterlimit="10"/>
<path d="M5730.93 1930V837.559" stroke="#5E50FF" stroke-width="10" stroke-miterlimit="10"/>
<path d="M5631.51 1930V837.559" stroke="#5E50FF" stroke-width="10" stroke-miterlimit="10"/>
<path d="M5532.27 1930V837.559" stroke="#5E50FF" stroke-width="10" stroke-miterlimit="10"/>
<path d="M5432.89 1930V837.559" stroke="#5E50FF" stroke-width="10" stroke-miterlimit="10"/>
<path d="M5333.65 1930V837.559" stroke="#5E50FF" stroke-width="10" stroke-miterlimit="10"/>
<path d="M5234.24 1930V837.559" stroke="#5E50FF" stroke-width="10" stroke-miterlimit="10"/>
<path d="M5135 1930V837.559" stroke="#5E50FF" stroke-width="10" stroke-miterlimit="10"/>
<path d="M6624.44 648.444V0" stroke="#5E50FF" stroke-width="10" stroke-miterlimit="10"/>
<path d="M6525.05 648.444V0" stroke="#5E50FF" stroke-width="10" stroke-miterlimit="10"/>
<path d="M6425.81 648.444V0" stroke="#5E50FF" stroke-width="10" stroke-miterlimit="10"/>
<path d="M6326.41 648.444V0" stroke="#5E50FF" stroke-width="10" stroke-miterlimit="10"/>
<path d="M6227.16 648.444V0" stroke="#5E50FF" stroke-width="10" stroke-miterlimit="10"/>
<path d="M6127.93 648.444V0" stroke="#5E50FF" stroke-width="10" stroke-miterlimit="10"/>
<path d="M6028.51 648.444V0" stroke="#5E50FF" stroke-width="10" stroke-miterlimit="10"/>
<path d="M5929.27 648.444V0" stroke="#5E50FF" stroke-width="10" stroke-miterlimit="10"/>
<path d="M5829.89 648.444V0" stroke="#5E50FF" stroke-width="10" stroke-miterlimit="10"/>
<path d="M5730.65 648.444V0" stroke="#5E50FF" stroke-width="10" stroke-miterlimit="10"/>
<path d="M5631.24 648.444V0" stroke="#5E50FF" stroke-width="10" stroke-miterlimit="10"/>
<path d="M5532 648.444V0" stroke="#5E50FF" stroke-width="10" stroke-miterlimit="10"/>
<mask id="mask3_1702_277" style="mask-type:alpha" maskUnits="userSpaceOnUse" x="2494" y="0" width="2518" height="2496">
<path d="M2494.5 2495.5V0.5H5011.5V2495.5H2494.5Z" fill="#EBE9FF" stroke="#4A3AFF"/>
</mask>
<g mask="url(#mask3_1702_277)">
<path d="M5002.04 2441.27C4862.74 2441.27 4862.74 2289.52 4723.44 2289.52C4584.13 2289.52 4584.13 2441.27 4444.83 2441.27C4305.53 2441.27 4305.53 2289.52 4166.23 2289.52C4026.92 2289.52 4026.92 2441.27 3887.62 2441.27C3748.32 2441.27 3748.32 2289.52 3609.02 2289.52C3469.71 2289.52 3469.71 2441.27 3330.41 2441.27C3191.11 2441.27 3191.11 2289.52 3051.81 2289.52C2912.5 2289.52 2912.5 2441.27 2772.9 2441.27C2633.6 2441.27 2633.6 2289.52 2494 2289.52" stroke="#4A3AFF" stroke-width="25" stroke-miterlimit="10" stroke-linecap="round"/>
<path d="M5002.04 2185.21C4862.74 2185.21 4862.74 2033.46 4723.44 2033.46C4584.13 2033.46 4584.13 2185.21 4444.83 2185.21C4305.53 2185.21 4305.53 2033.46 4166.23 2033.46C4026.92 2033.46 4026.92 2185.21 3887.62 2185.21C3748.32 2185.21 3748.32 2033.46 3609.02 2033.46C3469.71 2033.46 3469.71 2185.21 3330.41 2185.21C3191.11 2185.21 3191.11 2033.46 3051.81 2033.46C2912.5 2033.46 2912.5 2185.21 2772.9 2185.21C2633.6 2185.21 2633.6 2033.46 2494 2033.46" stroke="#4A3AFF" stroke-width="25" stroke-miterlimit="10" stroke-linecap="round"/>
<path d="M5002.03 1929.22C4862.73 1929.22 4862.73 1777.47 4723.43 1777.47C4584.12 1777.47 4584.12 1929.22 4444.82 1929.22C4305.52 1929.22 4305.52 1777.47 4166.22 1777.47C4026.91 1777.47 4026.91 1929.22 3887.61 1929.22C3748.31 1929.22 3748.31 1777.47 3609.01 1777.47C3469.7 1777.47 3469.7 1929.22 3330.4 1929.22C3191.1 1929.22 3191.1 1777.47 3051.79 1777.47C2912.49 1777.47 2912.49 1929.22 2772.89 1929.22C2633.89 1929.22 2633.89 1777.47 2494.58 1777.47" stroke="#4A3AFF" stroke-width="25" stroke-miterlimit="10" stroke-linecap="round"/>
<path d="M5012 748.589C4872.14 748.589 4872.14 596.238 4732.29 596.238C4592.43 596.238 4592.43 748.589 4452.58 748.589C4312.72 748.589 4312.72 596.238 4172.87 596.238C4033.01 596.238 4033.01 748.589 3893.15 748.589C3753.3 748.589 3753.3 596.238 3613.44 596.238C3473.59 596.238 3473.59 748.589 3333.73 748.589C3193.88 748.589 3193.88 596.238 3054.02 596.238C2914.16 596.238 2914.16 748.589 2774.01 748.589C2634.15 748.589 2634.15 596.238 2494 596.238" stroke="#4A3AFF" stroke-width="25" stroke-miterlimit="10" stroke-linecap="round"/>
<path d="M5012 491.519C4872.14 491.519 4872.14 339.168 4732.29 339.168C4592.43 339.168 4592.43 491.519 4452.58 491.519C4312.72 491.519 4312.72 339.168 4172.87 339.168C4033.01 339.168 4033.01 491.519 3893.15 491.519C3753.3 491.519 3753.3 339.168 3613.44 339.168C3473.59 339.168 3473.59 491.519 3333.73 491.519C3193.88 491.519 3193.88 339.168 3054.02 339.168C2914.16 339.168 2914.16 491.519 2774.01 491.519C2634.15 491.519 2634.15 339.168 2494 339.168" stroke="#4A3AFF" stroke-width="25" stroke-miterlimit="10" stroke-linecap="round"/>
<path d="M5011.99 234.511C4872.13 234.511 4872.13 82.1602 4732.28 82.1602C4592.42 82.1602 4592.42 234.511 4452.57 234.511C4312.71 234.511 4312.71 82.1602 4172.86 82.1602C4033 82.1602 4033 234.511 3893.14 234.511C3753.29 234.511 3753.29 82.1602 3613.43 82.1602C3473.58 82.1602 3473.58 234.511 3333.72 234.511C3193.87 234.511 3193.87 82.1602 3054.01 82.1602C2914.15 82.1602 2914.16 234.511 2774 234.511C2634.44 234.511 2634.44 82.1602 2494.59 82.1602" stroke="#4A3AFF" stroke-width="25" stroke-miterlimit="10" stroke-linecap="round"/>
<path d="M5012 1595.53C4872.14 1595.53 4872.14 1443.18 4732.29 1443.18C4592.43 1443.18 4592.43 1595.53 4452.58 1595.53C4312.72 1595.53 4312.72 1443.18 4172.87 1443.18C4033.01 1443.18 4033.01 1595.53 3893.15 1595.53C3753.3 1595.53 3753.3 1443.18 3613.44 1443.18C3473.59 1443.18 3473.59 1595.53 3333.73 1595.53C3193.88 1595.53 3193.88 1443.18 3054.02 1443.18C2914.16 1443.18 2914.16 1595.53 2774.01 1595.53C2634.15 1595.53 2634.15 1443.18 2494 1443.18" stroke="#4A3AFF" stroke-width="25" stroke-miterlimit="10" stroke-linecap="round"/>
<path d="M5012 1338.45C4872.14 1338.45 4872.14 1186.1 4732.29 1186.1C4592.43 1186.1 4592.43 1338.45 4452.58 1338.45C4312.72 1338.45 4312.72 1186.1 4172.87 1186.1C4033.01 1186.1 4033.01 1338.45 3893.15 1338.45C3753.3 1338.45 3753.3 1186.1 3613.44 1186.1C3473.59 1186.1 3473.59 1338.45 3333.73 1338.45C3193.88 1338.45 3193.88 1186.1 3054.02 1186.1C2914.16 1186.1 2914.16 1338.45 2774.01 1338.45C2634.15 1338.45 2634.15 1186.1 2494 1186.1" stroke="#4A3AFF" stroke-width="25" stroke-miterlimit="10" stroke-linecap="round"/>
<path d="M5011.99 1081.44C4872.13 1081.44 4872.13 929.094 4732.28 929.094C4592.42 929.094 4592.42 1081.44 4452.57 1081.44C4312.71 1081.44 4312.71 929.094 4172.86 929.094C4033 929.094 4033 1081.44 3893.14 1081.44C3753.29 1081.44 3753.29 929.094 3613.43 929.094C3473.58 929.094 3473.58 1081.44 3333.72 1081.44C3193.87 1081.44 3193.87 929.094 3054.01 929.094C2914.15 929.094 2914.16 1081.44 2774 1081.44C2634.44 1081.44 2634.44 929.094 2494.59 929.094" stroke="#4A3AFF" stroke-width="25" stroke-miterlimit="10" stroke-linecap="round"/>
</g>
<path d="M2638 4569.55V4974.71" stroke="white" stroke-width="25" stroke-miterlimit="10"/>
<path d="M2841.7 4229.98V4974.73" stroke="white" stroke-width="25" stroke-miterlimit="10"/>
<path d="M3045.75 3853.77V4974.73" stroke="white" stroke-width="25" stroke-miterlimit="10"/>
<path d="M3249.38 3461.41V4974.71" stroke="white" stroke-width="25" stroke-miterlimit="10"/>
<path d="M3453.08 3137.15V4974.65" stroke="white" stroke-width="25" stroke-miterlimit="10"/>
<path d="M3656.77 2876V4974.69" stroke="white" stroke-width="25" stroke-miterlimit="10"/>
<path d="M3860.82 2876V4974.69" stroke="white" stroke-width="25" stroke-miterlimit="10"/>
<path d="M4064.46 3137.15V4974.65" stroke="white" stroke-width="25" stroke-miterlimit="10"/>
<path d="M4268.15 3461.41V4974.71" stroke="white" stroke-width="25" stroke-miterlimit="10"/>
<path d="M4471.85 3853.77V4974.73" stroke="white" stroke-width="25" stroke-miterlimit="10"/>
<path d="M4675.9 4229.98V4974.73" stroke="white" stroke-width="25" stroke-miterlimit="10"/>
<path d="M4879.53 4569.55V4974.71" stroke="white" stroke-width="25" stroke-miterlimit="10"/>
<path d="M2722 5539.27V5256L2953.05 5397.72L2722 5539.27Z" fill="#4A3AFF"/>
<path d="M3191.67 5539.27V5256L3422.89 5397.72L3191.67 5539.27Z" fill="#4A3AFF"/>
<path d="M3661.48 5539.27V5256L3892.52 5397.72L3661.48 5539.27Z" fill="#4A3AFF"/>
<path d="M4131.15 5539.27V5256L4362.37 5397.72L4131.15 5539.27Z" fill="#4A3AFF"/>
<path d="M4600.96 5539.27V5256L4832 5397.72L4600.96 5539.27Z" fill="#4A3AFF"/>
<path d="M4942.89 7371.27V7088L4711.85 7229.72L4942.89 7371.27Z" fill="#4A3AFF"/>
<path d="M4473.22 7371.27V7088L4242 7229.72L4473.22 7371.27Z" fill="#4A3AFF"/>
<path d="M1258.98 10020.1C1954.19 10020.1 2517.96 9453.5 2517.96 8754.77H0C0 9453.5 563.566 10020.1 1258.98 10020.1Z" fill="#EBE9FF"/>
<path d="M2518 8754.82L2518 7488.86L0.0412598 7488.86L0.0412598 8754.82H2518Z" fill="#4A3AFF"/>
<path d="M1959.62 8751.34C1959.62 9141.81 1644.67 9458.35 1256.16 9458.35C867.658 9458.35 552.711 9141.81 552.711 8751.34" stroke="#4A3AFF" stroke-width="10"/>
<path d="M1771.56 8755C1771.56 9041.08 1540.74 9273 1256.01 9273C971.287 9273 740.471 9041.08 740.471 8755" stroke="#4A3AFF" stroke-width="10"/>
<path d="M2154.73 8755C2154.73 9253.71 1752.36 9658 1256.01 9658C759.666 9658 357.297 9253.71 357.297 8755" stroke="#4A3AFF" stroke-width="10"/>
<path d="M5024 9916H2530V10000H5024V9916Z" fill="#C3BDFF"/>
<path d="M5024 9650H2530V9734H5024V9650Z" fill="#AFA7FF"/>
<path d="M5024 9383H2530V9467H5024V9383Z" fill="#9A92FF"/>
<path d="M5024 9117H2530V9201H5024V9117Z" fill="#867CFF"/>
<path d="M5024 8850H2530V8934H5024V8850Z" fill="#867CFF"/>
<path d="M5024 9783H2530V9867H5024V9783Z" fill="#AFA7FF"/>
<path d="M5024 9516H2530V9600H5024V9516Z" fill="#9A92FF"/>
<path d="M5024 9250H2530V9334H5024V9250Z" fill="#9A92FF"/>
<path d="M5024 8983H2530V9067H5024V8983Z" fill="#867CFF"/>
<path d="M5024 8717H2530V8801H5024V8717Z" fill="#7266FF"/>
<path d="M2793.53 3485.22C2793.53 3474.94 2801.83 3466.63 2812.12 3466.63C2822.4 3466.63 2830.7 3474.94 2830.7 3485.22C2830.7 3495.5 2822.4 3503.81 2812.12 3503.81C2801.83 3503.81 2793.53 3495.5 2793.53 3485.22Z" fill="white" stroke="white" stroke-width="15"/>
<path d="M2385.01 3485.22C2385.01 3474.94 2393.31 3466.63 2403.59 3466.63C2413.88 3466.63 2422.18 3474.94 2422.18 3485.22C2422.18 3495.5 2413.88 3503.81 2403.59 3503.81C2393.31 3503.81 2385.01 3495.5 2385.01 3485.22Z" fill="white" stroke="white" stroke-width="15"/>
<path d="M1976.49 3485.22C1976.49 3474.94 1984.79 3466.63 1995.07 3466.63C2005.36 3466.63 2013.66 3474.94 2013.66 3485.22C2013.66 3495.5 2005.36 3503.81 1995.07 3503.81C1984.79 3503.81 1976.49 3495.5 1976.49 3485.22Z" fill="white" stroke="white" stroke-width="15"/>
<path d="M1568.02 3485.22C1568.02 3474.94 1576.32 3466.63 1586.61 3466.63C1596.89 3466.63 1605.2 3474.94 1605.2 3485.22C1605.2 3495.5 1596.89 3503.81 1586.61 3503.81C1576.32 3503.81 1568.02 3495.5 1568.02 3485.22Z" fill="white" stroke="white" stroke-width="15"/>
<path d="M1159.5 3485.22C1159.5 3474.94 1167.8 3466.63 1178.09 3466.63C1188.37 3466.63 1196.68 3474.94 1196.68 3485.22C1196.68 3495.5 1188.37 3503.81 1178.09 3503.81C1167.8 3503.81 1159.5 3495.5 1159.5 3485.22Z" fill="white" stroke="white" stroke-width="15"/>
<path d="M2793.53 3120.04C2793.53 3109.76 2801.83 3101.46 2812.12 3101.46C2822.4 3101.46 2830.7 3109.76 2830.7 3120.04C2830.7 3130.33 2822.4 3138.63 2812.12 3138.63C2801.83 3138.63 2793.53 3130.33 2793.53 3120.04Z" fill="white" stroke="white" stroke-width="15"/>
<path d="M2385.01 3120.04C2385.01 3109.76 2393.31 3101.46 2403.59 3101.46C2413.88 3101.46 2422.18 3109.76 2422.18 3120.04C2422.18 3130.33 2413.88 3138.63 2403.59 3138.63C2393.31 3138.63 2385.01 3130.33 2385.01 3120.04Z" fill="white" stroke="white" stroke-width="15"/>
<path d="M1976.49 3120.04C1976.49 3109.76 1984.79 3101.46 1995.07 3101.46C2005.36 3101.46 2013.66 3109.76 2013.66 3120.04C2013.66 3130.33 2005.36 3138.63 1995.07 3138.63C1984.79 3138.63 1976.49 3130.33 1976.49 3120.04Z" fill="white" stroke="white" stroke-width="15"/>
<path d="M1568.02 3120.04C1568.02 3109.76 1576.32 3101.46 1586.61 3101.46C1596.89 3101.46 1605.2 3109.76 1605.2 3120.04C1605.2 3130.33 1596.89 3138.63 1586.61 3138.63C1576.32 3138.63 1568.02 3130.33 1568.02 3120.04Z" fill="white" stroke="white" stroke-width="15"/>
<path d="M1159.5 3120.04C1159.5 3109.76 1167.8 3101.46 1178.09 3101.46C1188.37 3101.46 1196.68 3109.76 1196.68 3120.04C1196.68 3130.33 1188.37 3138.63 1178.09 3138.63C1167.8 3138.63 1159.5 3130.33 1159.5 3120.04Z" fill="white" stroke="white" stroke-width="15"/>
<path d="M2793.53 2755.09C2793.53 2744.8 2801.83 2736.5 2812.12 2736.5C2822.4 2736.5 2830.7 2744.8 2830.7 2755.09C2830.7 2765.37 2822.4 2773.68 2812.12 2773.68C2801.83 2773.68 2793.53 2765.37 2793.53 2755.09Z" fill="white" stroke="white" stroke-width="15"/>
<path d="M2422.18 2755.09C2422.18 2765.35 2413.86 2773.68 2403.59 2773.68C2393.33 2773.68 2385.01 2765.35 2385.01 2755.09C2385.01 2744.82 2393.33 2736.5 2403.59 2736.5C2413.86 2736.5 2422.18 2744.82 2422.18 2755.09Z" fill="white" stroke="white" stroke-width="15"/>
<path d="M2013.66 2755.09C2013.66 2765.35 2005.34 2773.68 1995.07 2773.68C1984.81 2773.68 1976.49 2765.35 1976.49 2755.09C1976.49 2744.82 1984.81 2736.5 1995.07 2736.5C2005.34 2736.5 2013.66 2744.82 2013.66 2755.09Z" fill="white" stroke="white" stroke-width="15"/>
<path d="M1568.02 2755.09C1568.02 2744.8 1576.32 2736.5 1586.61 2736.5C1596.89 2736.5 1605.2 2744.8 1605.2 2755.09C1605.2 2765.37 1596.89 2773.68 1586.61 2773.68C1576.32 2773.68 1568.02 2765.37 1568.02 2755.09Z" fill="white" stroke="white" stroke-width="15"/>
<path d="M1159.5 2755.09C1159.5 2744.8 1167.8 2736.5 1178.09 2736.5C1188.37 2736.5 1196.68 2744.8 1196.68 2755.09C1196.68 2765.37 1188.37 2773.68 1178.09 2773.68C1167.8 2773.68 1159.5 2765.37 1159.5 2755.09Z" fill="white" stroke="white" stroke-width="15"/>
<path d="M4196.47 7488.83L2518 5810V7488.83H4196.47Z" fill="#867CFF"/>
<path d="M3193.35 7109.35C3216.92 6965.03 3119.06 6828.93 2974.79 6805.36C2830.51 6781.78 2694.45 6879.66 2670.89 7023.98C2647.32 7168.3 2745.18 7304.4 2889.45 7327.97C3033.72 7351.54 3169.78 7253.66 3193.35 7109.35Z" fill="#EBE9FF"/>
<path d="M2518.52 8565.77L2518.02 7488.11L1251.66 7488.56L2518.52 8565.77Z" fill="white"/>
</g>
<defs>
<clipPath id="clip0_1702_277">
<rect width="10000" height="10000" fill="white"/>
</clipPath>
</defs>
</svg>
