<svg width="10000" height="10000" viewBox="0 0 10000 10000" fill="none" xmlns="http://www.w3.org/2000/svg">
<g clip-path="url(#clip0_1702_272)">
<rect width="10000" height="10000" fill="white"/>
<path d="M0.118042 720.137V1440.27H1428.59V0H0.118042V720.137Z" fill="#867CFF"/>
<path d="M0.121948 3595.36V4313.72H1428.59V2877H0.121948V3595.36Z" fill="#867CFF"/>
<path d="M911.421 3398H516.996V3792.45H911.421V3398Z" fill="#EBE9FF"/>
<path d="M0.118042 6468.36V7186.72H1428.59V5750H0.118042V6468.36Z" fill="#EBE9FF"/>
<path d="M9999.88 2158.36V2876.72H8582V1440H9999.88V2158.36Z" fill="#AFA7FF"/>
<path d="M9999.88 5031.81V5750.17H8571.41V4313.45H9999.88V5031.81Z" fill="#D7D3FF"/>
<path d="M9482.42 4834H9088V5228.45H9482.42V4834Z" fill="#4A3AFF"/>
<path d="M9999.88 7904.81V8623.17H8571.41V7186.45H9999.88V7904.81Z" fill="#AFA7FF"/>
<path d="M9999.88 9311.5V10000H8571.41V8623H9999.88V9311.5Z" fill="#C3BDFF"/>
<path d="M2857.18 720.137V1440.27H4285.65V0H2857.18V720.137Z" fill="#EBE9FF"/>
<path d="M2857.18 3595.36V4313.72H4285.65V2877H2857.18V3595.36Z" fill="#867CFF"/>
<path d="M3912.25 3922.51C4082.7 3752.05 4082.7 3475.68 3912.25 3305.22C3741.79 3134.76 3465.42 3134.76 3294.97 3305.22C3124.51 3475.68 3124.51 3752.05 3294.97 3922.51C3465.42 4092.97 3741.79 4092.97 3912.25 3922.51Z" fill="#EBE9FF"/>
<path d="M2857.18 6468.36V7186.72H4285.65V5750H2857.18V6468.36Z" fill="#867CFF"/>
<path d="M7142.82 2158.37V2876.73H5714.35V1440H7142.82V2158.37Z" fill="#AFA7FF"/>
<path d="M6937.13 2153.17L6429.04 1645.06L5920.94 2153.17L6429.04 2661.27L6937.13 2153.17Z" fill="#7266FF"/>
<path d="M7142.82 5031.81V5750.17H5714.35V4313.45H7142.82V5031.81Z" fill="#AFA7FF"/>
<path d="M6400.55 5297.49C6466.57 5281.9 6532.73 5322.77 6548.32 5388.78C6563.91 5454.78 6523.02 5520.92 6457 5536.51C6390.98 5552.09 6324.82 5511.22 6309.23 5445.22C6293.64 5379.21 6334.52 5313.07 6400.55 5297.49Z" fill="#EBE9FF"/>
<path d="M6306.02 5029.26C6307.08 4961.45 6362.92 4907.33 6430.76 4908.39C6498.59 4909.45 6552.72 4965.28 6551.67 5033.09C6550.61 5100.91 6494.76 5155.03 6426.93 5153.97C6359.09 5152.91 6304.96 5097.08 6306.02 5029.26Z" fill="#EBE9FF"/>
<path d="M6401.15 4525.72C6467.24 4510.41 6533.23 4551.56 6548.55 4617.63C6563.86 4683.7 6522.69 4749.67 6456.6 4764.98C6390.51 4780.29 6324.52 4739.14 6309.21 4673.06C6293.9 4606.99 6335.06 4541.02 6401.15 4525.72Z" fill="#EBE9FF"/>
<path d="M6801.55 5297.49C6867.57 5281.9 6933.73 5322.77 6949.32 5388.78C6964.91 5454.78 6924.02 5520.92 6858 5536.51C6791.98 5552.09 6725.82 5511.22 6710.23 5445.22C6694.64 5379.21 6735.52 5313.07 6801.55 5297.49Z" fill="#EBE9FF"/>
<path d="M6707.02 5029.26C6708.08 4961.45 6763.92 4907.33 6831.76 4908.39C6899.59 4909.45 6953.72 4965.28 6952.67 5033.09C6951.61 5100.91 6895.76 5155.03 6827.93 5153.97C6760.09 5152.91 6705.96 5097.08 6707.02 5029.26Z" fill="#EBE9FF"/>
<path d="M6802.15 4525.72C6868.24 4510.41 6934.23 4551.56 6949.55 4617.63C6964.86 4683.7 6923.69 4749.67 6857.6 4764.98C6791.51 4780.29 6725.52 4739.14 6710.21 4673.06C6694.9 4606.99 6736.06 4541.02 6802.15 4525.72Z" fill="#EBE9FF"/>
<path d="M5999.55 5297.49C6065.57 5281.9 6131.73 5322.77 6147.32 5388.78C6162.91 5454.78 6122.02 5520.92 6056 5536.51C5989.98 5552.09 5923.82 5511.22 5908.23 5445.22C5892.64 5379.21 5933.52 5313.07 5999.55 5297.49Z" fill="#EBE9FF"/>
<path d="M5905.02 5029.26C5906.08 4961.45 5961.92 4907.33 6029.76 4908.39C6097.59 4909.45 6151.72 4965.28 6150.67 5033.09C6149.61 5100.91 6093.76 5155.03 6025.93 5153.97C5958.09 5152.91 5903.96 5097.08 5905.02 5029.26Z" fill="#EBE9FF"/>
<path d="M6000.15 4525.72C6066.24 4510.41 6132.23 4551.56 6147.55 4617.63C6162.86 4683.7 6121.69 4749.67 6055.6 4764.98C5989.51 4780.29 5923.52 4739.14 5908.21 4673.06C5892.9 4606.99 5934.06 4541.02 6000.15 4525.72Z" fill="#EBE9FF"/>
<path d="M7142.82 7904.81V8623.17H5714.35V7186.45H7142.82V7904.81Z" fill="#EBE9FF"/>
<path d="M7142.82 9311.5V10000H5714.35V8623H7142.82V9311.5Z" fill="#EBE9FF"/>
<path d="M6400.53 9577.49C6466.56 9561.9 6532.72 9602.77 6548.31 9668.78C6563.9 9734.78 6523.01 9800.92 6456.99 9816.51C6390.97 9832.09 6324.81 9791.22 6309.22 9725.22C6293.63 9659.21 6334.51 9593.07 6400.53 9577.49Z" fill="#D7D3FF"/>
<path d="M6306.01 9309.26C6307.06 9241.45 6362.91 9187.33 6430.75 9188.39C6498.58 9189.45 6552.71 9245.28 6551.65 9313.09C6550.6 9380.91 6494.75 9435.03 6426.91 9433.97C6359.08 9432.91 6304.95 9377.08 6306.01 9309.26Z" fill="#D7D3FF"/>
<path d="M6401.14 8805.71C6467.23 8790.41 6533.22 8831.56 6548.53 8897.63C6563.85 8963.7 6522.68 9029.67 6456.59 9044.98C6390.5 9060.29 6324.51 9019.13 6309.2 8953.06C6293.89 8886.99 6335.05 8821.02 6401.14 8805.71Z" fill="#D7D3FF"/>
<path d="M6801.55 9577.49C6867.57 9561.9 6933.73 9602.77 6949.32 9668.78C6964.91 9734.78 6924.02 9800.92 6858 9816.51C6791.98 9832.09 6725.82 9791.22 6710.23 9725.22C6694.64 9659.21 6735.52 9593.07 6801.55 9577.49Z" fill="#D7D3FF"/>
<path d="M6707.02 9309.26C6708.08 9241.45 6763.92 9187.33 6831.76 9188.39C6899.59 9189.45 6953.72 9245.28 6952.67 9313.09C6951.61 9380.91 6895.76 9435.03 6827.93 9433.97C6760.09 9432.91 6705.96 9377.08 6707.02 9309.26Z" fill="#D7D3FF"/>
<path d="M6802.15 8805.72C6868.24 8790.41 6934.23 8831.56 6949.55 8897.63C6964.86 8963.7 6923.69 9029.67 6857.6 9044.98C6791.51 9060.29 6725.52 9019.14 6710.21 8953.06C6694.9 8886.99 6736.06 8821.02 6802.15 8805.72Z" fill="#D7D3FF"/>
<path d="M5999.55 9577.49C6065.57 9561.9 6131.73 9602.77 6147.32 9668.78C6162.91 9734.78 6122.02 9800.92 6056 9816.51C5989.98 9832.09 5923.82 9791.22 5908.23 9725.22C5892.64 9659.21 5933.52 9593.07 5999.55 9577.49Z" fill="#D7D3FF"/>
<path d="M5905.02 9309.26C5906.08 9241.45 5961.92 9187.33 6029.76 9188.39C6097.59 9189.45 6151.72 9245.28 6150.67 9313.09C6149.61 9380.91 6093.76 9435.03 6025.93 9433.97C5958.09 9432.91 5903.96 9377.08 5905.02 9309.26Z" fill="#D7D3FF"/>
<path d="M6000.15 8805.72C6066.24 8790.41 6132.23 8831.56 6147.55 8897.63C6162.86 8963.7 6121.69 9029.67 6055.6 9044.98C5989.51 9060.29 5923.52 9019.14 5908.21 8953.06C5892.9 8886.99 5934.06 8821.02 6000.15 8805.72Z" fill="#D7D3FF"/>
<path d="M5714.35 720.137V1440.27H7142.82V0H5714.35V720.137Z" fill="#867CFF"/>
<path d="M5714.35 3595.36V4313.72H7142.82V2877H5714.35V3595.36Z" fill="#867CFF"/>
<path d="M5714.35 6468.36V7186.72H7142.82V5750H5714.35V6468.36Z" fill="#867CFF"/>
<path d="M4285.65 2158.46V1440.1H2857.18V2876.82H4285.65V2158.46Z" fill="#AFA7FF"/>
<path d="M4289 1442H3861.99C3861.99 1998.44 3410.63 2449.37 2853.92 2449.37V1442H2853V2877C3646.02 2877 4289 2234.58 4289 1442Z" fill="#C3BDFF"/>
<path d="M4285.65 5031.81V5750.17H2857.18V4313.45H4285.65V5031.81Z" fill="#AFA7FF"/>
<path d="M4072.19 5032.1L3564.1 4524L3056 5032.1L3564.1 5540.2L4072.19 5032.1Z" fill="#7266FF"/>
<path d="M4285.65 7904.81V8623.17H2857.18V7186.45H4285.65V7904.81Z" fill="#EBE9FF"/>
<path d="M4296 8630H2857C2857 7834.65 3501.2 7190 4296 7190V8630Z" fill="#D7D3FF"/>
<path d="M7137.77 7905.44V7180.89H5696.98V8630H7137.77V7905.44Z" fill="#EBE9FF"/>
<path d="M7148.21 7174H5696.8C5696.8 7976.21 6346.55 8626.42 7148.21 8626.42V7174Z" fill="#D7D3FF"/>
<path d="M4285.65 9311.5V10000H2857.18V8623H4285.65V9311.5Z" fill="#D7D3FF"/>
<path d="M8571.53 720.137V1440.27H10000V0H8571.53V720.137Z" fill="#EBE9FF"/>
<path d="M8571.53 3595.36V4313.72H10000V2877H8571.53V3595.36Z" fill="#867CFF"/>
<path d="M9516.18 3136C9388.99 3136 9285.79 3239.2 9285.79 3366.41C9285.79 3493.62 9388.99 3596.82 9516.18 3596.82C9643.38 3596.82 9746.58 3493.62 9746.58 3366.41C9746.58 3239.09 9643.38 3136 9516.18 3136Z" fill="#AFA7FF"/>
<path d="M9516.19 3311.88C9486.1 3311.88 9461.66 3336.32 9461.66 3366.41C9461.66 3396.5 9486.1 3420.95 9516.19 3420.95C9546.27 3420.95 9570.71 3396.5 9570.71 3366.41C9570.71 3336.21 9546.27 3311.88 9516.19 3311.88Z" fill="#C3BDFF"/>
<path d="M9055.39 3136C8928.2 3136 8825 3239.2 8825 3366.41C8825 3493.62 8928.2 3596.82 9055.39 3596.82C9182.59 3596.82 9285.79 3493.62 9285.79 3366.41C9285.79 3239.09 9182.59 3136 9055.39 3136Z" fill="#4A3AFF"/>
<path d="M9055.4 3311.88C9025.31 3311.88 9000.87 3336.32 9000.87 3366.41C9000.87 3396.5 9025.31 3420.95 9055.4 3420.95C9085.48 3420.95 9109.93 3396.5 9109.93 3366.41C9109.93 3336.21 9085.48 3311.88 9055.4 3311.88Z" fill="#C3BDFF"/>
<path d="M9516.18 3596.82C9388.99 3596.82 9285.79 3700.03 9285.79 3827.24C9285.79 3954.44 9388.99 4057.65 9516.18 4057.65C9643.38 4057.65 9746.58 3954.44 9746.58 3827.24C9746.58 3699.92 9643.38 3596.82 9516.18 3596.82Z" fill="#4A3AFF"/>
<path d="M9516.19 3772.7C9486.1 3772.7 9461.66 3797.15 9461.66 3827.24C9461.66 3857.32 9486.1 3881.77 9516.19 3881.77C9546.27 3881.77 9570.71 3857.32 9570.71 3827.24C9570.71 3797.15 9546.27 3772.7 9516.19 3772.7Z" fill="#C3BDFF"/>
<path d="M9055.39 3596.82C8928.2 3596.82 8825 3700.03 8825 3827.24C8825 3954.44 8928.2 4057.65 9055.39 4057.65C9182.59 4057.65 9285.79 3954.44 9285.79 3827.24C9285.79 3699.92 9182.59 3596.82 9055.39 3596.82Z" fill="#AFA7FF"/>
<path d="M9055.4 3772.7C9025.31 3772.7 9000.87 3797.15 9000.87 3827.24C9000.87 3857.32 9025.31 3881.77 9055.4 3881.77C9085.48 3881.77 9109.93 3857.32 9109.93 3827.24C9109.93 3797.15 9085.48 3772.7 9055.4 3772.7Z" fill="#C3BDFF"/>
<path d="M8571.53 6468.36V7186.72H10000V5750H8571.53V6468.36Z" fill="#867CFF"/>
<path d="M1428.47 2158.36V2876.72H0V1440H1428.47V2158.36Z" fill="#EBE9FF"/>
<path d="M1428.47 5031.81V5750.17H0V4313.45H1428.47V5031.81Z" fill="#AFA7FF"/>
<path d="M1428.47 7904.81V8623.17H0V7186.45H1428.47V7904.81Z" fill="#EBE9FF"/>
<path d="M1428.47 9311.5V10000H0V8623H1428.47V9311.5Z" fill="#D7D3FF"/>
<path d="M1428.59 720.137V1440.27H2857.06V0H1428.59V720.137Z" fill="#D7D3FF"/>
<path d="M1428.59 3595.36V4313.72H2857.06V2877H1428.59V3595.36Z" fill="#C3BDFF"/>
<path d="M1428.59 6468.36V7186.72H2857.06V5750H1428.59V6468.36Z" fill="#9A92FF"/>
<path d="M8582 2158.36V2876.72H7142.94V1440H8582V2158.36Z" fill="#9A92FF"/>
<path d="M8571.41 5031.81V5750.17H7142.94V4313.45H8571.41V5031.81Z" fill="#9A92FF"/>
<path d="M8571.41 7904.81V8623.17H7142.94V7186.45H8571.41V7904.81Z" fill="#9A92FF"/>
<path d="M7491.69 7899.72C7494.83 7698.29 7660.72 7537.55 7862.21 7540.69C8063.69 7543.83 8224.48 7709.67 8221.34 7911.1C8218.19 8112.52 8052.31 8273.26 7850.82 8270.12C7649.34 8266.98 7488.55 8101.14 7491.69 7899.72Z" fill="#D7D3FF"/>
<path d="M8571.41 9311.5V10000H7142.94V8623H8571.41V9311.5Z" fill="#D7D3FF"/>
<path d="M4285.65 720.137V1440.27H5714.12V0H4285.65V720.137Z" fill="#D7D3FF"/>
<path d="M4285.65 3595.36V4313.72H5714.12V2877H4285.65V3595.36Z" fill="#EBE9FF"/>
<path d="M4285.65 6468.36V7186.72H5714.12V5750H4285.65V6468.36Z" fill="#9A92FF"/>
<path d="M5714.35 2158.36V2876.72H4285.88V1440H5714.35V2158.36Z" fill="#9A92FF"/>
<path d="M4997 2877H4992.56C4602.29 2877 4286 2560.84 4286 2170.73V1444H4290.44C4680.71 1444 4997 1760.16 4997 2150.27V2877Z" fill="#EBE9FF"/>
<path d="M5708 1447H5703.56C5313.29 1447 4997 1763.16 4997 2153.27V2880H5001.44C5391.71 2880 5708 2563.84 5708 2173.73V1447Z" fill="#4A3AFF"/>
<path d="M4281.47 6467.36V7185.72H2853V5749H4281.47V6467.36Z" fill="#9A92FF"/>
<path d="M3564.12 7186H3559.68C3169.41 7186 2853.12 6869.84 2853.12 6479.73V5753H2857.56C3247.83 5753 3564.12 6069.16 3564.12 6459.27V7186Z" fill="#EBE9FF"/>
<path d="M3564.12 7186H3569.7C3960.39 7186 4277.12 6869.21 4277.12 6478.44V5753H4271.54C3880.85 5753 3564.12 6069.79 3564.12 6460.56V7186Z" fill="#4A3AFF"/>
<path d="M5714.35 5031.81V5750.17H4285.88V4313.45H5714.35V5031.81Z" fill="#9A92FF"/>
<path d="M5714.35 7904.81V8623.17H4285.88V7186.45H5714.35V7904.81Z" fill="#9A92FF"/>
<path d="M5714.35 9311.5V10000H4285.88V8623H5714.35V9311.5Z" fill="#C3BDFF"/>
<path d="M7142.83 720.137V1440.27H8571.3V0H7142.83V720.137Z" fill="#D7D3FF"/>
<path d="M8582 1444H7143C7143 648.647 7787.2 4 8582 4V1444Z" fill="#4A3AFF"/>
<path d="M8551 2877H7143V1468C7920.51 1467.83 8551 2098.77 8551 2877Z" fill="#867CFF"/>
<path d="M7142.82 3595.36V4313.72H8571.29V2877H7142.82V3595.36Z" fill="#EBE9FF"/>
<path d="M7142.82 6468.36V7186.72H8571.29V5750H7142.82V6468.36Z" fill="#EBE9FF"/>
<path d="M8370.19 6484.1L7862.1 5976L7354 6484.1L7862.1 6992.2L8370.19 6484.1Z" fill="#4A3AFF"/>
<path d="M2857.18 2158.36V2876.72H1428.71V1440H2857.18V2158.36Z" fill="#9A92FF"/>
<path d="M2857.18 5031.81V5750.17H1428.71V4313.45H2857.18V5031.81Z" fill="#9A92FF"/>
<path d="M2857.18 7904.81V8623.17H1428.71V7186.45H2857.18V7904.81Z" fill="#9A92FF"/>
<path d="M2857.18 9311.5V10000H1428.71V8623H2857.18V9311.5Z" fill="#EBE9FF"/>
<path d="M1429 518V1439.65H2350.58C2350.58 930.596 1938.01 518 1429 518Z" fill="#4A3AFF"/>
<path d="M8572 7701V8622.65H9493.58C9493.58 8113.6 9081.01 7701 8572 7701Z" fill="#C3BDFF"/>
<path d="M1430 7701V8622.65H2351.58C2351.58 8113.6 1939.01 7701 1430 7701Z" fill="#4A3AFF"/>
<path d="M1429 907.035V1439.65H1961.57C1961.57 1145.52 1723.1 907.035 1429 907.035Z" fill="#EBE9FF"/>
<path d="M8572 8090.04V8622.65H9104.57C9104.57 8328.52 8866.1 8090.04 8572 8090.04Z" fill="#EBE9FF"/>
<path d="M1427.58 518C918.564 518 506 930.596 506 1439.65H1427.58V518Z" fill="#9A92FF"/>
<path d="M1428.58 7701C919.564 7701 507 8113.6 507 8622.65H1428.58V7701Z" fill="#D7D3FF"/>
<path d="M1427.58 907.035C1133.47 907.035 895.004 1145.52 895.004 1439.65H1427.58V907.035Z" fill="#C3BDFF"/>
<path d="M6659.18 259C6531.99 259 6428.79 362.204 6428.79 489.412C6428.79 616.62 6531.99 719.824 6659.18 719.824C6786.38 719.824 6889.58 616.62 6889.58 489.412C6889.58 362.093 6786.38 259 6659.18 259Z" fill="#AFA7FF"/>
<path d="M6659.19 434.879C6629.1 434.879 6604.66 459.325 6604.66 489.412C6604.66 519.5 6629.1 543.946 6659.19 543.946C6689.27 543.946 6713.71 519.5 6713.71 489.412C6713.71 459.214 6689.27 434.879 6659.19 434.879Z" fill="#C3BDFF"/>
<path d="M6198.39 259C6071.2 259 5968 362.204 5968 489.412C5968 616.62 6071.2 719.824 6198.39 719.824C6325.59 719.824 6428.79 616.62 6428.79 489.412C6428.79 362.093 6325.59 259 6198.39 259Z" fill="#4A3AFF"/>
<path d="M6198.4 434.879C6168.31 434.879 6143.87 459.325 6143.87 489.412C6143.87 519.5 6168.31 543.946 6198.4 543.946C6228.48 543.946 6252.93 519.5 6252.93 489.412C6252.93 459.214 6228.48 434.879 6198.4 434.879Z" fill="#C3BDFF"/>
<path d="M6659.18 719.824C6531.99 719.824 6428.79 823.028 6428.79 950.236C6428.79 1077.44 6531.99 1180.65 6659.18 1180.65C6786.38 1180.65 6889.58 1077.44 6889.58 950.236C6889.58 822.918 6786.38 719.824 6659.18 719.824Z" fill="#4A3AFF"/>
<path d="M6659.19 895.703C6629.1 895.703 6604.66 920.149 6604.66 950.236C6604.66 980.324 6629.1 1004.77 6659.19 1004.77C6689.27 1004.77 6713.71 980.324 6713.71 950.236C6713.71 920.149 6689.27 895.703 6659.19 895.703Z" fill="#C3BDFF"/>
<path d="M6198.39 719.824C6071.2 719.824 5968 823.028 5968 950.236C5968 1077.44 6071.2 1180.65 6198.39 1180.65C6325.59 1180.65 6428.79 1077.44 6428.79 950.236C6428.79 822.918 6325.59 719.824 6198.39 719.824Z" fill="#AFA7FF"/>
<path d="M6198.4 895.703C6168.31 895.703 6143.87 920.149 6143.87 950.236C6143.87 980.324 6168.31 1004.77 6198.4 1004.77C6228.48 1004.77 6252.93 980.324 6252.93 950.236C6252.93 920.149 6228.48 895.703 6198.4 895.703Z" fill="#C3BDFF"/>
<path d="M2904 1440.82H3314.95C3314.95 905.007 3749.34 470.783 4285.12 470.783V1440.82H4286V59C3522.8 59 2904 677.615 2904 1440.82Z" fill="#4A3AFF"/>
<path d="M4332 9999.82H4742.95C4742.95 9464.01 5177.34 9029.78 5713.12 9029.78V9999.82H5714V8618C4950.8 8618 4332 9236.61 4332 9999.82Z" fill="#4A3AFF"/>
<path d="M5713.58 518C5204.56 518 4792 930.596 4792 1439.65H5713.58V518Z" fill="#C3BDFF"/>
<path d="M8570.58 4827C8061.56 4827 7649 5239.6 7649 5748.65H8570.58V4827Z" fill="#D7D3FF"/>
<path d="M5207.58 4C4698.56 4 4286 416.596 4286 925.648H5207.58V4Z" fill="#AFA7FF"/>
<path d="M8064.58 4313C7555.56 4313 7143 4725.6 7143 5234.65H8064.58V4313Z" fill="#EBE9FF"/>
<path d="M9286.79 1180.76C9032.28 1180.76 8826 974.35 8826 719.824C8826 465.298 9032.28 259 9286.79 259C9541.3 259 9747.58 465.298 9747.58 719.824C9747.58 974.35 9541.3 1180.76 9286.79 1180.76Z" fill="#9A92FF"/>
<path d="M3571.79 9772.76C3317.28 9772.76 3111 9566.35 3111 9311.82C3111 9057.3 3317.28 8851 3571.79 8851C3826.3 8851 4032.58 9057.3 4032.58 9311.82C4032.58 9566.35 3826.3 9772.76 3571.79 9772.76Z" fill="#AFA7FF"/>
<path d="M9286.79 925.46C9173.2 925.46 9081.17 833.428 9081.17 719.826C9081.17 606.223 9173.2 514.191 9286.79 514.191C9400.38 514.191 9492.41 606.223 9492.41 719.826C9492.41 833.428 9400.38 925.46 9286.79 925.46Z" fill="#4A3AFF"/>
<path d="M3571.79 9517.46C3458.2 9517.46 3366.17 9425.43 3366.17 9311.83C3366.17 9198.22 3458.2 9106.19 3571.79 9106.19C3685.38 9106.19 3777.41 9198.22 3777.41 9311.83C3777.41 9425.43 3685.38 9517.46 3571.79 9517.46Z" fill="#4A3AFF"/>
<path d="M1428 2361.76V1440.11H2349.58C2349.58 1949.06 1936.9 2361.76 1428 2361.76Z" fill="#7266FF"/>
<path d="M8571 9544.76V8623.11H9492.58C9492.58 9132.06 9079.9 9544.76 8571 9544.76Z" fill="#7266FF"/>
<path d="M1429 9544.76V8623.11H2350.58C2350.58 9132.06 1937.9 9544.76 1429 9544.76Z" fill="#7266FF"/>
<path d="M1428 1973V1440H1961C1960.87 1734.4 1722.27 1973 1428 1973Z" fill="#C3BDFF"/>
<path d="M8571 9156V8623H9104C9103.87 8917.4 8865.27 9156 8571 9156Z" fill="#C3BDFF"/>
<path d="M1427.58 2361.76C918.564 2361.76 506 1949.17 506 1440.11H1427.58V2361.76Z" fill="#4A3AFF"/>
<path d="M1428.58 9544.76C919.564 9544.76 507 9132.17 507 8623.11H1428.58V9544.76Z" fill="#4A3AFF"/>
<path d="M1428 1973C1133.73 1973 895 1734.4 895 1440H1428V1973Z" fill="#9A92FF"/>
<path d="M9035.87 1440H8582V1874.58H9035.87V1440Z" fill="#D7D3FF"/>
<path d="M8573.87 2879H8120V3313.58H8573.87V2879Z" fill="#4A3AFF"/>
<path d="M7596.87 7187H7143V7621.58H7596.87V7187Z" fill="#D7D3FF"/>
<path d="M6167.87 5751H5714V6185.58H6167.87V5751Z" fill="#D7D3FF"/>
<path d="M9009.75 2442H8575V2876.75H9009.75V2442Z" fill="#D7D3FF"/>
<path d="M8574 3881H8120V4316H8574V3881Z" fill="#4A3AFF"/>
<path d="M8120 3314H7497V3890H8120V3314Z" fill="#4A3AFF"/>
<path d="M7597 8188H7143V8623H7597V8188Z" fill="#D7D3FF"/>
<path d="M6168 6753H5714V7188H6168V6753Z" fill="#D7D3FF"/>
<path d="M9009.75 2878.67L9443.36 2444.61L9876.98 2878.67H9009.75Z" fill="#4A3AFF"/>
<path d="M2114.55 3861.49C2180.57 3845.9 2246.73 3886.77 2262.32 3952.78C2277.91 4018.78 2237.02 4084.92 2171 4100.51C2104.98 4116.09 2038.82 4075.22 2023.23 4009.22C2007.64 3943.21 2048.52 3877.07 2114.55 3861.49Z" fill="#EBE9FF"/>
<path d="M2020.02 3593.26C2021.08 3525.45 2076.92 3471.33 2144.76 3472.39C2212.59 3473.45 2266.72 3529.28 2265.67 3597.09C2264.61 3664.91 2208.76 3719.03 2140.93 3717.97C2073.09 3716.91 2018.96 3661.08 2020.02 3593.26Z" fill="#EBE9FF"/>
<path d="M2115.15 3089.72C2181.24 3074.41 2247.23 3115.56 2262.55 3181.63C2277.86 3247.7 2236.69 3313.67 2170.6 3328.98C2104.51 3344.29 2038.52 3303.14 2023.21 3237.06C2007.9 3170.99 2049.06 3105.02 2115.15 3089.72Z" fill="#EBE9FF"/>
<path d="M2515.55 3861.49C2581.57 3845.9 2647.73 3886.77 2663.32 3952.78C2678.91 4018.78 2638.02 4084.92 2572 4100.51C2505.98 4116.09 2439.82 4075.22 2424.23 4009.22C2408.64 3943.21 2449.52 3877.07 2515.55 3861.49Z" fill="#EBE9FF"/>
<path d="M2421.02 3593.26C2422.08 3525.45 2477.92 3471.33 2545.76 3472.39C2613.59 3473.45 2667.72 3529.28 2666.67 3597.09C2665.61 3664.91 2609.76 3719.03 2541.93 3717.97C2474.09 3716.91 2419.96 3661.08 2421.02 3593.26Z" fill="#EBE9FF"/>
<path d="M2516.15 3089.72C2582.24 3074.41 2648.23 3115.56 2663.55 3181.63C2678.86 3247.7 2637.69 3313.67 2571.6 3328.98C2505.51 3344.29 2439.52 3303.14 2424.21 3237.06C2408.9 3170.99 2450.06 3105.02 2516.15 3089.72Z" fill="#EBE9FF"/>
<path d="M1713.55 3861.49C1779.57 3845.9 1845.73 3886.77 1861.32 3952.78C1876.91 4018.78 1836.02 4084.92 1770 4100.51C1703.98 4116.09 1637.82 4075.22 1622.23 4009.22C1606.64 3943.21 1647.52 3877.07 1713.55 3861.49Z" fill="#EBE9FF"/>
<path d="M1619.02 3593.26C1620.08 3525.45 1675.92 3471.33 1743.76 3472.39C1811.59 3473.45 1865.72 3529.28 1864.67 3597.09C1863.61 3664.91 1807.76 3719.03 1739.93 3717.97C1672.09 3716.91 1617.96 3661.08 1619.02 3593.26Z" fill="#EBE9FF"/>
<path d="M1714.15 3089.72C1780.24 3074.41 1846.23 3115.56 1861.55 3181.63C1876.86 3247.7 1835.69 3313.67 1769.6 3328.98C1703.51 3344.29 1637.52 3303.14 1622.21 3237.06C1606.9 3170.99 1648.06 3105.02 1714.15 3089.72Z" fill="#EBE9FF"/>
<path d="M5714 4311V4007.73C5486.04 4007.73 5300.56 3822.52 5300.56 3594.5C5300.56 3366.63 5486.04 3181.55 5714 3181.55V2878C5318.55 2878 4997 3199.55 4997 3594.5C4997 3989.6 5318.55 4311 5714 4311Z" fill="#D7D3FF"/>
<path d="M7143 7187V6883.73C6915.04 6883.73 6729.56 6698.52 6729.56 6470.5C6729.56 6242.63 6915.04 6057.55 7143 6057.55V5754C6747.55 5754 6426 6075.55 6426 6470.5C6426 6865.6 6747.55 7187 7143 7187Z" fill="#D7D3FF"/>
<path d="M-5 4316H1428V5750L-5 4316Z" fill="#4A3AFF"/>
<path d="M5712 2880H7145V4314L5712 2880Z" fill="#4A3AFF"/>
<path d="M1428 7186H-5V5752L1428 7186Z" fill="#C3BDFF"/>
<path d="M1429 5753H2862V7187L1429 5753Z" fill="#4A3AFF"/>
<path d="M2856.67 5248.35C2975.78 5248.35 3072.34 5151.79 3072.34 5032.67C3072.34 4913.56 2975.78 4817 2856.67 4817C2737.56 4817 2641 4913.56 2641 5032.67C2641 5151.79 2737.56 5248.35 2856.67 5248.35Z" fill="#C3BDFF"/>
<path d="M2134.67 5248.35C2253.78 5248.35 2350.34 5151.79 2350.34 5032.67C2350.34 4913.56 2253.78 4817 2134.67 4817C2015.56 4817 1919 4913.56 1919 5032.67C1919 5151.79 2015.56 5248.35 2134.67 5248.35Z" fill="#C3BDFF"/>
<path fill-rule="evenodd" clip-rule="evenodd" d="M5714 4314H5000L4286 5752H5000L5714 4314Z" fill="#EBE9FF"/>
<path fill-rule="evenodd" clip-rule="evenodd" d="M10000 5750H9284L8568 7186H9284L10000 5750Z" fill="#C3BDFF"/>
<path fill-rule="evenodd" clip-rule="evenodd" d="M8566 8618H7850L7134 10000H7850L8566 8618Z" fill="#4A3AFF"/>
<path fill-rule="evenodd" clip-rule="evenodd" d="M5736 5761H5012.5L4289 7206H5012.5L5736 5761Z" fill="#EBE9FF"/>
<path d="M5717.65 7907.36V7189H4289.18V8625.72H5717.65V7907.36Z" fill="#AFA7FF"/>
<path d="M5721 7190.9H5293.99C5293.99 7747.33 4842.63 8198.27 4285.92 8198.27V7190.9H4285V8625.9C5078.02 8625.9 5721 7983.48 5721 7190.9Z" fill="#C3BDFF"/>
</g>
<defs>
<clipPath id="clip0_1702_272">
<rect width="10000" height="10000" fill="white"/>
</clipPath>
</defs>
</svg>
