<svg width="10000" height="10000" viewBox="0 0 10000 10000" fill="none" xmlns="http://www.w3.org/2000/svg">
<g clip-path="url(#clip0_1702_276)">
<rect width="10000" height="10000" fill="white"/>
<path d="M10001 4000H7980V6000H10001V4000Z" fill="white"/>
<path d="M2000 0H-1V2000H2000V0Z" fill="#C3BDFF"/>
<path d="M2013 4000H1V6000H2013V4000Z" fill="#D7D3FF"/>
<path d="M1999 2000H-1V4000H1999V2000Z" fill="#5E50FF"/>
<path d="M2013 5993H1V8000H2013V5993Z" fill="#5E50FF"/>
<path d="M2013 8000H1V10000H2013V8000Z" fill="#D7D3FF"/>
<path fill-rule="evenodd" clip-rule="evenodd" d="M2006 9001C2006 9551.56 1559.12 9998 1008 9998C456.883 9998 10 9551.56 10 9001H2006Z" fill="#4A3AFF"/>
<path fill-rule="evenodd" clip-rule="evenodd" d="M2012 8000C2012 8551.67 1562.43 8999 1008 8999C453.57 8999 4 8551.67 4 8000H2012Z" fill="#9A92FF"/>
<path d="M4000 0H2000V2000H4000V0Z" fill="#AFA7FF"/>
<path d="M1998 0V166.272H3151.94L3236.99 0H1998Z" fill="#4A3AFF"/>
<path d="M4001 149.245H3161.28L3076.39 315.665H4001V149.245Z" fill="#4A3AFF"/>
<path d="M4001 652.503V486.231H2989.28L2904.23 652.503H4001Z" fill="#4A3AFF"/>
<path d="M1998 503.109H2979.94L3064.83 336.837H1998V503.109Z" fill="#4A3AFF"/>
<path d="M1998 840.096H2807.78L2892.83 673.677H1998V840.096Z" fill="#4A3AFF"/>
<path d="M4001 989.485V823.065H2817.13L2732.08 989.485H4001Z" fill="#4A3AFF"/>
<path d="M4001 1326.32V1159.9H2645.13L2560.08 1326.32H4001Z" fill="#4A3AFF"/>
<path d="M1998 1176.93H2635.79L2720.68 1010.51H1998V1176.93Z" fill="#4A3AFF"/>
<path d="M4001 1663.16V1496.74H2472.97L2387.92 1663.16H4001Z" fill="#4A3AFF"/>
<path d="M1998 1513.77H2463.63L2548.68 1347.5H1998V1513.77Z" fill="#4A3AFF"/>
<path d="M1998 1850.75H2291.63L2376.52 1684.33H1998V1850.75Z" fill="#4A3AFF"/>
<path d="M4001 2000V1833.73H2300.97L2215.93 2000H4001Z" fill="#4A3AFF"/>
<path d="M4001 4000H2013V6000H4001V4000Z" fill="#5E50FF"/>
<path d="M3999 2000H1999V4000H3999V2000Z" fill="#D7D3FF"/>
<mask id="mask0_1702_276" style="mask-type:alpha" maskUnits="userSpaceOnUse" x="1999" y="2000" width="2000" height="2000">
<path d="M3999 2000H1999V4000H3999V2000Z" fill="#D7D3FF"/>
</mask>
<g mask="url(#mask0_1702_276)">
<path d="M1772 3517.25C1784.74 3444.67 1879.45 3411.89 1948.96 3436C2018.47 3460.1 2066.57 3523.08 2109.79 3583.07C2153.01 3643.06 2198.27 3706.44 2265.88 3736.1C2375.63 3784.17 2501.78 3727.29 2602.05 3661.61C2702.32 3595.93 2805.97 3517.25 2925.88 3519.55C3017.21 3521.45 3107.72 3571.29 3196.88 3548.67C3267.47 3530.52 3318.82 3468.91 3349.17 3402.41C3379.52 3335.92 3391.04 3263.2 3411.77 3193.46C3509.33 2864.78 3816.23 2608.84 4157 2572" stroke="#4A3AFF" stroke-width="10" stroke-miterlimit="10"/>
<path d="M1802 3175.55C1840.42 3086.77 1975.61 3087.73 2051.65 3147.71C2127.7 3207.69 2165.64 3302.2 2220.48 3381.91C2275.32 3461.62 2367.63 3533.53 2461.21 3509.19C2556.86 3483.41 2600.38 3371.25 2610.27 3272.44C2620.15 3173.64 2613.77 3066.89 2667.82 2983.52C2721.86 2900.15 2819.43 2863.08 2915.56 2851.78C3011.69 2840.49 3108.62 2851.78 3205.23 2848.44C3485.97 2837.3 3867.46 2555.7 4028 2325" stroke="#4A3AFF" stroke-width="10" stroke-miterlimit="10"/>
<path d="M1795 2908C1874.31 2720.33 2096.49 2633.07 2300.08 2627.6C2503.67 2622.12 2703.98 2677.64 2907.42 2684.05C3399.07 2699.69 3886.5 2398.96 4094 1952" stroke="#4A3AFF" stroke-width="10" stroke-miterlimit="10"/>
<path d="M1831 3859.13C1878.9 3799.58 1971.42 3794.58 2041.16 3825.21C2110.9 3855.85 2164.88 3913.53 2219.64 3966.83C2274.4 4020.13 2336.03 4072.17 2411.08 4086.24C2517.01 4105.94 2621.08 4045.13 2703.77 3975.89C2786.46 3906.65 2863.53 3824.43 2965.1 3788.33C3072.6 3749.87 3191.48 3769.1 3301.94 3797.86C3412.4 3826.62 3522.24 3865.07 3636.29 3864.45C3730.85 3862.41 3822.96 3833.96 3902.24 3782.28C3981.53 3730.61 4044.82 3657.78 4085 3572L4053.8 3577.94" stroke="#4A3AFF" stroke-width="10" stroke-miterlimit="10"/>
<path d="M1828.24 1995.27C1818.75 2057.21 1825.25 2120.55 1847.13 2179.27C1869.01 2237.99 1905.54 2290.14 1953.25 2330.79C2001.79 2370.3 2059.61 2396.77 2121.25 2407.7C2182.88 2418.64 2246.29 2413.67 2305.47 2393.26C2360.32 2373.74 2409.54 2341.25 2461.73 2316.42C2513.92 2291.58 2573.93 2274.09 2630.49 2287.21C2713.31 2306.57 2766.91 2383.42 2831.6 2438.4C2947.55 2537.43 3112.88 2569.3 3262.11 2536.65C3411.34 2504.01 3543.38 2411.7 3639.48 2293.45C3735.59 2175.21 3797.78 2032.45 3837 1885" stroke="#4A3AFF" stroke-width="10" stroke-miterlimit="10"/>
<path d="M2199.29 1973.5C2159.01 1992.63 2153.55 2053.93 2181.18 2089.04C2208.81 2124.16 2257.04 2136.08 2301.53 2135.13C2346.02 2134.19 2389.41 2120.55 2433.74 2115.54C2546.44 2101.58 2659.3 2136.55 2764.98 2178.25C2870.66 2219.95 2975.24 2269.18 3087.63 2285.79C3200.02 2302.41 3325.05 2280.78 3403.73 2198.63C3446.07 2151.56 3470.54 2091 3472.82 2027.6C3475.11 1964.2 3455.06 1902.02 3416.21 1852" stroke="#4A3AFF" stroke-width="10" stroke-miterlimit="10"/>
</g>
<path d="M4000 6000H2013V8000H4000V6000Z" fill="#D7D3FF"/>
<path d="M8002 4017L9985 5008H8002V4017Z" fill="#4A3AFF"/>
<path d="M8002 5008L9985 6000H8002V5008Z" fill="#4A3AFF"/>
<path d="M4001 8000H2013V10000H4001V8000Z" fill="#5E50FF"/>
<path d="M2001.5 5666.25V4000.5H2488.1V5666.25H2001.5Z" fill="#D7D3FF" stroke="#C3BDFF"/>
<path d="M2848.07 4000C2844.87 4000 2848.07 5304.87 2848.07 5304.87V4000Z" fill="white"/>
<path d="M2848.07 4000C2844.87 4000 2848.07 5304.87 2848.07 5304.87" stroke="white" stroke-width="10" stroke-miterlimit="10"/>
<path d="M3298.47 4361.88V5666.75" stroke="white" stroke-width="10" stroke-miterlimit="10"/>
<path d="M5999 0H3999V2000H5999V0Z" fill="#D7D3FF"/>
<path d="M4156.54 166H5431.86" stroke="#4A3AFF" stroke-width="10" stroke-miterlimit="10"/>
<path d="M4156.54 236.168H5431.86" stroke="#4A3AFF" stroke-width="10" stroke-miterlimit="10"/>
<path d="M4156.54 306.5H5431.86" stroke="#4A3AFF" stroke-width="10" stroke-miterlimit="10"/>
<path d="M4156.54 376.668H5431.86" stroke="#4A3AFF" stroke-width="10" stroke-miterlimit="10"/>
<path d="M4156.54 446.836H5431.86" stroke="#4A3AFF" stroke-width="10" stroke-miterlimit="10"/>
<path d="M4156.54 517.17H5431.86" stroke="#4A3AFF" stroke-width="10" stroke-miterlimit="10"/>
<path d="M4156.54 587.338H5431.86" stroke="#4A3AFF" stroke-width="10" stroke-miterlimit="10"/>
<path d="M4156.54 657.506H5431.86" stroke="#4A3AFF" stroke-width="10" stroke-miterlimit="10"/>
<path d="M4156.54 727.674H5431.86" stroke="#4A3AFF" stroke-width="10" stroke-miterlimit="10"/>
<path d="M4156.54 798.006H5431.86" stroke="#4A3AFF" stroke-width="10" stroke-miterlimit="10"/>
<path d="M4156.54 868.174H5431.86" stroke="#4A3AFF" stroke-width="10" stroke-miterlimit="10"/>
<path d="M4156.54 938.342H5431.86" stroke="#4A3AFF" stroke-width="10" stroke-miterlimit="10"/>
<path d="M4156.54 1008.68H5431.86" stroke="#4A3AFF" stroke-width="10" stroke-miterlimit="10"/>
<path d="M4156.54 1078.84H5431.86" stroke="#4A3AFF" stroke-width="10" stroke-miterlimit="10"/>
<path d="M4156.54 1149.01H5431.86" stroke="#4A3AFF" stroke-width="10" stroke-miterlimit="10"/>
<path d="M4156.54 1219.34H5431.86" stroke="#4A3AFF" stroke-width="10" stroke-miterlimit="10"/>
<path d="M4156.54 1289.51H5431.86" stroke="#4A3AFF" stroke-width="10" stroke-miterlimit="10"/>
<path d="M6000 4000H4000V6000H6000V4000Z" fill="#D7D3FF"/>
<path d="M5998 2000H3998V4000H5998V2000Z" fill="#AFA7FF"/>
<path d="M5999 6000H3999V8000H5999V6000Z" fill="#9A92FF"/>
<path d="M6000 8000H4000V10000H6000V8000Z" fill="#D7D3FF"/>
<path d="M8002 0H6000V2000H8002V0Z" fill="#AFA7FF"/>
<path d="M8002 4000H6001V6000H8002V4000Z" fill="#4A3AFF"/>
<path d="M7999 2000H5999V4000H7999V2000Z" fill="#D7D3FF"/>
<path d="M8000 5990H6000V8000H8000V5990Z" fill="#EBE9FF"/>
<path d="M8001 8000H6001V10000H8001V8000Z" fill="#4A3AFF"/>
<path d="M10000 0H8000V2000H10000V0Z" fill="#D7D3FF"/>
<path d="M8182.8 664.3L8000 682.5L7997 0H8159.33L8182.8 664.3Z" fill="#4A3AFF"/>
<path d="M8612.4 621.631L8454.27 637.365L8390.4 0H8526.4L8612.4 621.631Z" fill="#4A3AFF"/>
<path d="M8990.27 584.162L8850.8 598.03L8733.33 0H8855.33L8990.27 584.162Z" fill="#4A3AFF"/>
<path d="M9325.07 550.961L9201.2 563.228L9041.73 0H9152L9325.07 550.961Z" fill="#4A3AFF"/>
<path d="M9623.87 521.359L9513.2 532.293L9320.8 0H9420.8L9623.87 521.359Z" fill="#4A3AFF"/>
<path d="M9892.27 494.691L9792.67 504.559L9574.27 0H9665.47L9892.27 494.691Z" fill="#4A3AFF"/>
<path d="M8456 2000H8222L8182.8 664.3L8354.4 647.232L8456 2000Z" fill="#4A3AFF"/>
<path d="M8990.27 1906.1L8798.8 1968.1L8612.4 621.631L8762.93 606.697L8990.27 1906.1Z" fill="#4A3AFF"/>
<path d="M9437.33 1761.56L9274.13 1814.36L8990.27 584.163L9123.33 570.963L9437.33 1761.56Z" fill="#4A3AFF"/>
<path d="M9821.2 1637.28L9680.53 1682.75L9325.07 550.961L9443.6 539.227L9821.2 1637.28Z" fill="#4A3AFF"/>
<path d="M10004 1206V1490L9623.87 521.36L9749 507L10004 1206Z" fill="#4A3AFF"/>
<path d="M9999 2000H7999V4000H9999V2000Z" fill="#9A92FF"/>
<path d="M8183 4000.38L9016.33 3167L9849.67 4000.38H8183Z" fill="#4A3AFF"/>
<path d="M10000 6000H8000V8000H10000V6000Z" fill="#4A3AFF"/>
<path d="M10001 8000H8001V10000H10001V8000Z" fill="#D7D3FF"/>
<path d="M-1 2000L686.757 710H1998V2000H-1Z" fill="#5E50FF"/>
<path d="M6002 4000H7125V5124C6827.16 5124 6541.52 5005.58 6330.92 4794.79C6120.32 4584 6002 4298.1 6002 4000Z" fill="white"/>
<path d="M4001 2000H5152V3152C4846.74 3152 4553.97 3030.63 4338.12 2814.59C4122.27 2598.55 4001 2305.53 4001 2000Z" fill="white"/>
<path d="M8002 2000H6879V3124C7176.84 3124 7462.48 3005.58 7673.08 2794.79C7883.68 2584 8002 2298.1 8002 2000Z" fill="white"/>
<path d="M7125 4753C7357.06 4753 7579.62 4845.83 7743.72 5011.06C7907.81 5176.29 8000 5400.4 8000 5634.07V6008H7125V4753Z" fill="#EBE9FF"/>
<path d="M5152 1756C5152 1432.91 5413.91 1171 5737 1171H5827C6150.09 1171 6412 1432.91 6412 1756V4000H5152V1756Z" fill="#4A3AFF"/>
<path d="M4596 8587C4596 8363.32 4777.32 8182 5001 8182C5224.68 8182 5406 8363.32 5406 8587V10000H4596V8587Z" fill="#4A3AFF"/>
<path d="M7281 8419.65C7281 8469.59 7190.5 9006 7190.5 9006C7190.5 9006 7100 8469.59 7100 8419.65C7100 8395.61 7109.53 8372.55 7126.51 8355.55C7143.48 8338.55 7166.5 8329 7190.5 8329C7214.5 8329 7237.52 8338.55 7254.49 8355.55C7271.47 8372.55 7281 8395.61 7281 8419.65Z" fill="white"/>
<path d="M1235 2419.65C1235 2469.59 1144.5 3006 1144.5 3006C1144.5 3006 1054 2469.59 1054 2419.65C1054 2395.61 1063.53 2372.55 1080.51 2355.55C1097.48 2338.55 1120.5 2329 1144.5 2329C1168.5 2329 1191.52 2338.55 1208.49 2355.55C1225.47 2372.55 1235 2395.61 1235 2419.65Z" fill="#EBE9FF"/>
<path d="M7100 9579.35C7100 9529.41 7190.5 8993 7190.5 8993C7190.5 8993 7281 9529.41 7281 9579.35C7281 9603.39 7271.47 9626.45 7254.49 9643.45C7237.52 9660.45 7214.5 9670 7190.5 9670C7166.5 9670 7143.48 9660.45 7126.51 9643.45C7109.53 9626.45 7100 9603.39 7100 9579.35Z" fill="white"/>
<path d="M1054 3579.35C1054 3529.41 1144.5 2993 1144.5 2993C1144.5 2993 1235 3529.41 1235 3579.35C1235 3603.39 1225.47 3626.45 1208.49 3643.45C1191.52 3660.45 1168.5 3670 1144.5 3670C1120.5 3670 1097.48 3660.45 1080.51 3643.45C1063.53 3626.45 1054 3603.39 1054 3579.35Z" fill="#EBE9FF"/>
<path d="M7770.35 9090C7720.42 9090 7184 8999.5 7184 8999.5C7184 8999.5 7720.42 8909 7770.35 8909C7794.39 8909 7817.45 8918.53 7834.45 8935.51C7851.45 8952.48 7861 8975.5 7861 8999.5C7861 9023.5 7851.45 9046.52 7834.45 9063.49C7817.45 9080.47 7794.39 9090 7770.35 9090Z" fill="white"/>
<path d="M1724.35 3090C1674.42 3090 1138 2999.5 1138 2999.5C1138 2999.5 1674.42 2909 1724.35 2909C1748.39 2909 1771.45 2918.53 1788.45 2935.51C1805.45 2952.48 1815 2975.5 1815 2999.5C1815 3023.5 1805.45 3046.52 1788.45 3063.49C1771.45 3080.47 1748.39 3090 1724.35 3090Z" fill="#EBE9FF"/>
<path d="M6610.65 8909C6660.58 8909 7197 8999.5 7197 8999.5C7197 8999.5 6660.58 9090 6610.65 9090C6586.61 9090 6563.55 9080.47 6546.55 9063.49C6529.55 9046.52 6520 9023.5 6520 8999.5C6520 8975.5 6529.55 8952.48 6546.55 8935.51C6563.55 8918.53 6586.61 8909 6610.65 8909Z" fill="white"/>
<path d="M564.65 2909C614.585 2909 1151 2999.5 1151 2999.5C1151 2999.5 614.585 3090 564.65 3090C540.608 3090 517.551 3080.47 500.551 3063.49C483.55 3046.52 474 3023.5 474 2999.5C474 2975.5 483.55 2952.48 500.551 2935.51C517.551 2918.53 540.608 2909 564.65 2909Z" fill="#EBE9FF"/>
<path d="M7665.4 8653.75C7629.82 8689.06 7186 9004 7186 9004C7186 9004 7501.56 8561.06 7536.94 8525.55C7545.38 8517.13 7555.39 8510.46 7566.41 8505.9C7577.43 8501.34 7589.24 8499 7601.17 8499C7613.1 8499 7624.91 8501.34 7635.93 8505.9C7646.95 8510.46 7656.96 8517.13 7665.4 8525.55C7673.83 8533.97 7680.52 8543.96 7685.09 8554.96C7689.65 8565.96 7692 8577.75 7692 8589.65C7692 8601.56 7689.65 8613.34 7685.09 8624.34C7680.52 8635.34 7673.83 8645.33 7665.4 8653.75Z" fill="white"/>
<path d="M1619.4 2653.75C1583.82 2689.06 1140 3004 1140 3004C1140 3004 1455.56 2561.06 1490.94 2525.55C1499.38 2517.13 1509.39 2510.46 1520.41 2505.9C1531.43 2501.34 1543.24 2499 1555.17 2499C1567.1 2499 1578.91 2501.34 1589.93 2505.9C1600.95 2510.46 1610.96 2517.13 1619.4 2525.55C1627.83 2533.97 1634.52 2543.96 1639.09 2554.96C1643.65 2565.96 1646 2577.75 1646 2589.65C1646 2601.56 1643.65 2613.34 1639.09 2624.34C1634.52 2635.34 1627.83 2645.33 1619.4 2653.75Z" fill="#EBE9FF"/>
<path d="M6716.55 9345.94C6752.06 9310.56 7195 8995 7195 8995C7195 8995 6880.06 9438.82 6844.75 9474.4C6827.75 9491.43 6804.69 9501 6780.65 9501C6756.61 9501 6733.55 9491.43 6716.55 9474.4C6699.55 9457.36 6690 9434.26 6690 9410.17C6690 9386.08 6699.55 9362.98 6716.55 9345.94Z" fill="white"/>
<path d="M670.551 3345.94C706.056 3310.56 1149 2995 1149 2995C1149 2995 834.064 3438.82 798.752 3474.4C781.751 3491.43 758.694 3501 734.652 3501C710.61 3501 687.552 3491.43 670.551 3474.4C653.551 3457.36 644 3434.26 644 3410.17C644 3386.08 653.551 3362.98 670.551 3345.94Z" fill="#EBE9FF"/>
<path d="M7536.94 9474.4C7501.56 9438.82 7186 8995 7186 8995C7186 8995 7629.82 9310.56 7665.4 9345.94C7682.43 9362.98 7692 9386.08 7692 9410.17C7692 9434.26 7682.43 9457.36 7665.4 9474.4C7648.36 9491.43 7625.26 9501 7601.17 9501C7577.08 9501 7553.98 9491.43 7536.94 9474.4Z" fill="white"/>
<path d="M1490.94 3474.4C1455.56 3438.82 1140 2995 1140 2995C1140 2995 1583.82 3310.56 1619.4 3345.94C1636.43 3362.98 1646 3386.08 1646 3410.17C1646 3434.26 1636.43 3457.36 1619.4 3474.4C1602.36 3491.43 1579.26 3501 1555.17 3501C1531.08 3501 1507.98 3491.43 1490.94 3474.4Z" fill="#EBE9FF"/>
<path d="M6844.75 8525.55C6880.06 8561.06 7195 9004 7195 9004C7195 9004 6752.06 8689.06 6716.55 8653.75C6708.13 8645.33 6701.46 8635.34 6696.9 8624.34C6692.34 8613.34 6690 8601.56 6690 8589.65C6690 8577.75 6692.34 8565.96 6696.9 8554.96C6701.46 8543.96 6708.13 8533.97 6716.55 8525.55C6724.97 8517.13 6734.96 8510.46 6745.96 8505.9C6756.96 8501.34 6768.75 8499 6780.65 8499C6792.56 8499 6804.34 8501.34 6815.34 8505.9C6826.34 8510.46 6836.33 8517.13 6844.75 8525.55Z" fill="white"/>
<path d="M798.752 2525.55C834.064 2561.06 1149 3004 1149 3004C1149 3004 706.056 2689.06 670.551 2653.75C662.134 2645.33 655.456 2635.34 650.901 2624.34C646.345 2613.34 644 2601.56 644 2589.65C644 2577.75 646.345 2565.96 650.901 2554.96C655.456 2543.96 662.134 2533.97 670.551 2525.55C678.969 2517.13 688.963 2510.46 699.961 2505.9C710.959 2501.34 722.748 2499 734.652 2499C746.557 2499 758.344 2501.34 769.342 2505.9C780.341 2510.46 790.334 2517.13 798.752 2525.55Z" fill="#EBE9FF"/>
<path d="M6378 6382H7189V7193C7082.52 7193.07 6977.08 7172.14 6878.68 7131.42C6780.29 7090.69 6690.88 7030.96 6615.57 6955.65C6540.25 6880.33 6480.51 6790.91 6439.74 6692.48C6398.98 6594.05 6378 6488.55 6378 6382Z" fill="#4A3AFF"/>
<path d="M2013 6384H2824V7195C2717.52 7195.07 2612.08 7174.14 2513.68 7133.42C2415.29 7092.69 2325.88 7032.96 2250.57 6957.65C2175.25 6882.33 2115.51 6792.91 2074.74 6694.48C2033.98 6596.05 2013 6490.55 2013 6384Z" fill="#4A3AFF"/>
<path d="M6378 7190H7189V8001C7082.52 8001.07 6977.08 7980.14 6878.68 7939.42C6780.29 7898.69 6690.88 7838.96 6615.57 7763.65C6540.25 7688.33 6480.51 7598.91 6439.74 7500.48C6398.98 7402.05 6378 7296.55 6378 7190Z" fill="#4A3AFF"/>
<path d="M2013 7192H2824V8003C2717.52 8003.07 2612.08 7982.14 2513.68 7941.42C2415.29 7900.69 2325.88 7840.96 2250.57 7765.65C2175.25 7690.33 2115.51 7600.91 2074.74 7502.48C2033.98 7404.05 2013 7298.55 2013 7192Z" fill="#4A3AFF"/>
<path d="M8000 8000C7785.11 8000.14 7578.96 7914.89 7426.88 7762.99C7274.79 7611.1 7189.23 7405 7189 7190H8000V8000Z" fill="#4A3AFF"/>
<path d="M3635 8002C3420.11 8002.14 3213.96 7916.89 3061.88 7764.99C2909.79 7613.1 2824.23 7407 2824 7192H3635V8002Z" fill="#4A3AFF"/>
<path d="M2012 8330L3675 9163H2012V8330Z" fill="#EBE9FF"/>
<path d="M2012 9163L3681 10000H2012V9163Z" fill="#EBE9FF"/>
<path d="M1014 5268L2 6000V4000H508.08L1014 5268Z" fill="#5E50FF"/>
<path d="M1001 7268.63L2013 8001V6000H1506.92L1001 7268.63Z" fill="white"/>
<path d="M2001 5268L1014 6000V4000H1520.54L2001 5268Z" fill="#5E50FF"/>
<path d="M14 7268.63L1001 8001V6000H494.461L14 7268.63Z" fill="white"/>
<path d="M6958.8 3584L4726.93 7961.42" stroke="white" stroke-width="10" stroke-miterlimit="10"/>
<path d="M6654.67 3588.93L4645.87 7882.08" stroke="white" stroke-width="10" stroke-miterlimit="10"/>
<path d="M6350.67 3594L4564.93 7802.88" stroke="white" stroke-width="10" stroke-miterlimit="10"/>
<path d="M6046.67 3599.07L4484 7723.54" stroke="white" stroke-width="10" stroke-miterlimit="10"/>
<path d="M5742.67 3604.13L4402.93 7644.34" stroke="white" stroke-width="10" stroke-miterlimit="10"/>
<path d="M5438.67 3609.2L4322 7565" stroke="white" stroke-width="10" stroke-miterlimit="10"/>
<path d="M5134.67 3614.13L4241.07 7485.79" stroke="white" stroke-width="10" stroke-miterlimit="10"/>
<path d="M4830.53 3619.2L4160 7406.46" stroke="white" stroke-width="10" stroke-miterlimit="10"/>
<path d="M4526.53 3624.27L4079.07 7327.26" stroke="white" stroke-width="10" stroke-miterlimit="10"/>
<path d="M4222.53 3629.34L3998 7247.92" stroke="white" stroke-width="10" stroke-miterlimit="10"/>
<path d="M1998 1093H1114V2000" stroke="white" stroke-width="10" stroke-miterlimit="10"/>
<path d="M1998 366H371V2000" stroke="white" stroke-width="10" stroke-miterlimit="10"/>
<path d="M5404.5 1860C5694.17 1860 5929 1625.17 5929 1335.5C5929 1045.83 5694.17 811 5404.5 811C5114.83 811 4880 1045.83 4880 1335.5C4880 1625.17 5114.83 1860 5404.5 1860Z" fill="#C3BDFF"/>
<path d="M6454 270H7285L6454 1101V270Z" stroke="white" stroke-width="10" stroke-miterlimit="10"/>
<path d="M6675 491H7506L6675 1322V491Z" stroke="white" stroke-width="10" stroke-miterlimit="10"/>
<path d="M6895 712H7727L6895 1543V712Z" stroke="white" stroke-width="10" stroke-miterlimit="10"/>
<path d="M8992.02 5990V8000" stroke="white" stroke-width="10" stroke-miterlimit="10"/>
<path d="M9996.97 6995H7987.07" stroke="white" stroke-width="10" stroke-miterlimit="10"/>
<path d="M9702.62 6284.37L8281.42 7705.63" stroke="white" stroke-width="10" stroke-miterlimit="10"/>
<path d="M9702.62 7705.63L8281.42 6284.37" stroke="white" stroke-width="10" stroke-miterlimit="10"/>
<path d="M9382.22 6068.9L8601.81 7921.11" stroke="white" stroke-width="10" stroke-miterlimit="10"/>
<path d="M9918.08 7385.22L8065.96 6604.78" stroke="white" stroke-width="10" stroke-miterlimit="10"/>
<path d="M9922.78 6616.02L8061.26 7373.98" stroke="white" stroke-width="10" stroke-miterlimit="10"/>
<path d="M9370.98 7925.81L8613.06 6064.2" stroke="white" stroke-width="10" stroke-miterlimit="10"/>
<path d="M9188.36 6009.38L8795.68 7980.63" stroke="white" stroke-width="10" stroke-miterlimit="10"/>
<path d="M9977.6 7191.35L8006.45 6798.65" stroke="white" stroke-width="10" stroke-miterlimit="10"/>
<path d="M9827.75 6436.95L8156.29 7553.05" stroke="white" stroke-width="10" stroke-miterlimit="10"/>
<path d="M9550.04 7830.78L8434 6159.23" stroke="white" stroke-width="10" stroke-miterlimit="10"/>
<path d="M9555.63 6162.97L8428.41 7827.03" stroke="white" stroke-width="10" stroke-miterlimit="10"/>
<path d="M9824 7558.64L8160.04 6431.36" stroke="white" stroke-width="10" stroke-miterlimit="10"/>
<path d="M9978.86 6805.26L8005.17 7184.74" stroke="white" stroke-width="10" stroke-miterlimit="10"/>
<path d="M9181.75 7981.89L8802.29 6008.1" stroke="white" stroke-width="10" stroke-miterlimit="10"/>
<path fill-rule="evenodd" clip-rule="evenodd" d="M9986 9003C9986 8455.2 9541.36 8011 8993 8011C8444.64 8011 8000 8455.2 8000 9003H9986Z" fill="#4A3AFF"/>
<path fill-rule="evenodd" clip-rule="evenodd" d="M9986 9997C9986 9448.09 9541.36 9003 8993 9003C8444.64 9003 8000 9448.09 8000 9997H9986Z" fill="#9A92FF"/>
</g>
<defs>
<clipPath id="clip0_1702_276">
<rect width="10000" height="10000" fill="white"/>
</clipPath>
</defs>
</svg>
