<svg width="10000" height="10000" viewBox="0 0 10000 10000" fill="none" xmlns="http://www.w3.org/2000/svg">
<g clip-path="url(#clip0_1702_278)">
<rect width="10000" height="10000" fill="white"/>
<path d="M6662 4753H8331V716C8331 320.564 8010.44 0 7615 0H7378C6982.56 0 6662 320.564 6662 716V4753Z" fill="#4A3AFF"/>
<path d="M3340 6977H5009V2625C5009 2229.56 4688.44 1909 4293 1909H4056C3660.56 1909 3340 2229.56 3340 2625V6977Z" fill="#D7D3FF"/>
<path d="M4994 6977H6662V0H4994V6977Z" fill="#EBE9FF"/>
<path d="M2 10315H1671V6359C1671 5963.56 1350.44 5643 955 5643H718C322.564 5643 2 5963.56 2 6359V10315Z" fill="#EBE9FF"/>
<path d="M3339 9951H5007V4719C5007 4323.56 4686.44 4003 4291 4003H4055C3659.56 4003 3339 4323.56 3339 4719V9951Z" fill="#4A3AFF"/>
<path d="M1 -315H1670V4917C1670 5312.44 1349.44 5633 954 5633H717C321.564 5633 1 5312.44 1 4917V-315Z" fill="#4A3AFF"/>
<path d="M6662 6906H8331V9242.72C8331 9660.93 7957.35 10000 7496.5 10000C7035.65 10000 6662 9660.93 6662 9242.72V6906Z" fill="#4A3AFF"/>
<path d="M6662 4003H8331V7343.08C8331 7899.7 7957.35 8351 7496.5 8351C7035.65 8351 6662 7899.7 6662 7343.08V4003Z" fill="#D7D3FF"/>
<rect x="6662" y="3704" width="1669" height="1049" fill="#D7D3FF"/>
<path d="M10000 1152H8331V3918.24C8331 4379.24 8704.65 4753 9165.5 4753C9626.35 4753 10000 4379.24 10000 3918.24V1152Z" fill="#EBE9FF"/>
<path d="M3339 1152H1670V3918.24C1670 4379.24 2043.65 4753 2504.5 4753C2965.35 4753 3339 4379.24 3339 3918.24V1152Z" fill="#EBE9FF"/>
<path d="M10000 8162H8331V5587.38C8331 5126.59 8704.65 4753 9165.5 4753C9626.35 4753 10000 5126.59 10000 5587.38V8162Z" fill="#4A3AFF"/>
<path d="M3338 8162H1670V5587.38C1670 5126.59 2043.42 4753 2504 4753C2964.58 4753 3338 5126.59 3338 5587.38V8162Z" fill="#867CFF"/>
<path d="M10000 10000H8331V7477.27C8331 7056.86 8704.65 6716 9165.5 6716C9626.35 6716 10000 7056.86 10000 7477.27V10000Z" fill="#D7D3FF"/>
<path d="M3338 10000H1670V7477.27C1670 7056.86 2043.42 6716 2504 6716C2964.58 6716 3338 7056.86 3338 7477.27V10000Z" fill="#D7D3FF"/>
<path d="M1 0H1670V2521.96C1670 2942.24 1296.35 3283 835.5 3283C374.647 3283 1 2942.24 1 2521.96V0Z" fill="#D7D3FF"/>
<path d="M8331 318C8792.22 318 9166 691.416 9166 1152H8331V318Z" fill="#EBE9FF"/>
<path d="M1670 318C2130.67 318 2504 691.416 2504 1152H1670V318Z" fill="#EBE9FF"/>
<path d="M10000 318C9539.33 318 9166 691.416 9166 1152H10000V318Z" fill="#EBE9FF"/>
<path d="M3339 318C2877.78 318 2504 691.416 2504 1152H3339V318Z" fill="#EBE9FF"/>
<path d="M8331 47.6876V0H9166V318C8704.84 318 8331 196.979 8331 47.6876Z" fill="#4A3AFF"/>
<path d="M1670 47.6876V0H2504V318C2043.39 318 1670 196.979 1670 47.6876Z" fill="#4A3AFF"/>
<path d="M9166 318V0H10000V47.6876C10000 196.979 9626.61 318 9166 318Z" fill="#4A3AFF"/>
<path d="M2504 318V0H3339V47.6876C3339 196.979 2965.16 318 2504 318Z" fill="#4A3AFF"/>
<path d="M6662 4539C7123.22 4539 7497 4165.14 7497 3704H6662V4539Z" fill="#4A3AFF"/>
<path d="M8331 4539C7870.33 4539 7497 4165.14 7497 3704H8331V4539Z" fill="#4A3AFF"/>
<path d="M3339 9752.71V10000H5007V8351C4085.78 8351 3339 8978.56 3339 9752.71Z" fill="white"/>
<path d="M5007 8351V10000H6675V9752.71C6675 8978.56 5928.22 8351 5007 8351Z" fill="#D7D3FF"/>
<path d="M5841.5 4563C6302.35 4563 6676 4936.55 6676 5397.29V7327.71C6676 7788.45 6302.35 8162 5841.5 8162C5380.65 8162 5007 7788.45 5007 7327.71V5397.29C5007 4936.55 5380.65 4563 5841.5 4563Z" fill="#867CFF"/>
<path d="M834 6717C1294.58 6717 1668 7057.76 1668 7478.04V9238.96C1668 9659.24 1294.58 10000 834 10000C373.424 10000 0 9659.24 0 9238.96V7478.04C0 7057.76 373.424 6717 834 6717Z" fill="#867CFF"/>
<path d="M6676 0V247.136C6676 1020.82 5929.22 1648 5008 1648V0H6676Z" fill="#4A3AFF"/>
<path d="M5008 0V1648C4086.78 1648 3340 1020.82 3340 247.136V0H5008Z" fill="#D7D3FF"/>
</g>
<defs>
<clipPath id="clip0_1702_278">
<rect width="10000" height="10000" fill="white"/>
</clipPath>
</defs>
</svg>
