<svg width="10000" height="10000" viewBox="0 0 10000 10000" fill="none" xmlns="http://www.w3.org/2000/svg">
<g clip-path="url(#clip0_1772_1362)">
<rect width="10000" height="10000" fill="white"/>
<rect width="2500" height="2500" fill="#C3BDFF"/>
<path d="M7 335L225.725 132.85L422.555 335L630.389 112L838.222 335L1046.06 112L1253.89 335L1461.72 112L1669.56 335L1877.39 112L2085.22 335L2293.17 112L2501 335" stroke="#4A3AFF" stroke-width="20" stroke-miterlimit="10" stroke-linecap="round" stroke-linejoin="round"/>
<path d="M7 1117L225.725 914.85L422.555 1117L630.389 894L838.222 1117L1046.06 894L1253.89 1117L1461.72 894L1669.56 1117L1877.39 894L2085.22 1117L2293.17 894L2501 1117" stroke="#4A3AFF" stroke-width="20" stroke-miterlimit="10" stroke-linecap="round" stroke-linejoin="round"/>
<path d="M10 1899L228.725 1696.85L425.555 1899L633.389 1676L841.222 1899L1049.06 1676L1256.89 1899L1464.72 1676L1672.56 1899L1880.39 1676L2088.22 1899L2296.17 1676L2504 1899" stroke="#4A3AFF" stroke-width="20" stroke-miterlimit="10" stroke-linecap="round" stroke-linejoin="round"/>
<path d="M7 634L225.725 431.85L422.555 634L630.389 411L838.222 634L1046.06 411L1253.89 634L1461.72 411L1669.56 634L1877.39 411L2085.22 634L2293.17 411L2501 634" stroke="#4A3AFF" stroke-width="20" stroke-miterlimit="10" stroke-linecap="round" stroke-linejoin="round"/>
<path d="M7 1416L225.725 1213.85L422.555 1416L630.389 1193L838.222 1416L1046.06 1193L1253.89 1416L1461.72 1193L1669.56 1416L1877.39 1193L2085.22 1416L2293.17 1193L2501 1416" stroke="#4A3AFF" stroke-width="20" stroke-miterlimit="10" stroke-linecap="round" stroke-linejoin="round"/>
<path d="M10 2198L228.725 1995.85L425.555 2198L633.389 1975L841.222 2198L1049.06 1975L1256.89 2198L1464.72 1975L1672.56 2198L1880.39 1975L2088.22 2198L2296.17 1975L2504 2198" stroke="#4A3AFF" stroke-width="20" stroke-miterlimit="10" stroke-linecap="round" stroke-linejoin="round"/>
<path d="M7 818L225.725 615.851L422.555 818L630.389 595L838.222 818L1046.06 595L1253.89 818L1461.72 595L1669.56 818L1877.39 595L2085.22 818L2293.17 595L2501 818" stroke="#4A3AFF" stroke-width="20" stroke-miterlimit="10" stroke-linecap="round" stroke-linejoin="round"/>
<path d="M7 1600L225.725 1397.85L422.555 1600L630.389 1377L838.222 1600L1046.06 1377L1253.89 1600L1461.72 1377L1669.56 1600L1877.39 1377L2085.22 1600L2293.17 1377L2501 1600" stroke="#4A3AFF" stroke-width="20" stroke-miterlimit="10" stroke-linecap="round" stroke-linejoin="round"/>
<path d="M10 2382L228.725 2179.85L425.555 2382L633.389 2159L841.222 2382L1049.06 2159L1256.89 2382L1464.72 2159L1672.56 2382L1880.39 2159L2088.22 2382L2296.17 2159L2504 2382" stroke="#4A3AFF" stroke-width="20" stroke-miterlimit="10" stroke-linecap="round" stroke-linejoin="round"/>
<rect y="2500" width="2500" height="2500" fill="white"/>
<path d="M1228 2494L0 3722V2494H1228Z" fill="#C3BDFF"/>
<rect y="5000" width="2500" height="2500" fill="#C3BDFF"/>
<rect x="2500" width="2500" height="2500" fill="#9A92FF"/>
<rect x="2500" y="2500" width="2500" height="2500" fill="#D7D3FF"/>
<rect x="2500" y="5000" width="2500" height="2500" fill="#9A92FF"/>
<path d="M3750 6248C3059.55 6248 2500 5688.9 2500 4999H3750V6248Z" fill="#C3BDFF"/>
<path d="M3750 6245V4995H5000C5000 5685.45 4440.45 6245 3750 6245Z" fill="#4A3AFF"/>
<path d="M5000 4994H3750V3744C4440.45 3744 5000 4303.78 5000 4994Z" fill="#C3BDFF"/>
<rect x="2500" y="7500" width="2500" height="2500" fill="#EBE9FF"/>
<rect x="5000" width="2500" height="2500" fill="#C3BDFF"/>
<path d="M4997 488V2118C5434.58 2109.96 5787 1748.33 5787 1303.05C5787 857.675 5434.68 496.045 4997 488Z" fill="white"/>
<path d="M5461 488V2118C5900.25 2109.96 6254 1748.33 6254 1303.05C6254 857.675 5900.25 496.045 5461 488Z" fill="#EBE9FF"/>
<rect x="5000" y="2500" width="2500" height="2500" fill="#C3BDFF"/>
<rect x="5000" y="5000" width="2500" height="2500" fill="#C3BDFF"/>
<rect x="5000" y="7500" width="2500" height="2500" fill="#C3BDFF"/>
<rect y="4771" width="2500" height="229" fill="#EBE9FF"/>
<rect y="4440" width="2500" height="229" fill="#EBE9FF"/>
<ellipse cx="308.5" cy="4030" rx="308.5" ry="308" fill="#EBE9FF"/>
<circle cx="936" cy="4030" r="308" fill="#EBE9FF"/>
<circle cx="1564" cy="4030" r="308" fill="#EBE9FF"/>
<circle cx="7349.5" cy="7068.5" r="1105.5" fill="#EBE9FF"/>
<circle cx="6443" cy="6427" r="425" fill="#4A3AFF"/>
<ellipse cx="2191.5" cy="4030" rx="308.5" ry="308" fill="#EBE9FF"/>
<path d="M4997.16 1250V2500H3750C3750 1809.6 4308.33 1250 4997.16 1250Z" fill="white"/>
<path d="M4997.16 0V1250C4308.33 1250 3750 690.4 3750 0H4997.16Z" fill="white"/>
<path d="M2502.84 0H3750C3750 690.4 3191.67 1250 2502.84 1250V0Z" fill="white"/>
<path d="M3750 2500H2502.84V1250C3191.67 1250 3750 1809.6 3750 2500Z" fill="white"/>
<path d="M7499.5 3505C8054.82 3505 8505 3054.82 8505 2499.5C8505 1944.18 8054.82 1494 7499.5 1494C6944.18 1494 6494 1944.18 6494 2499.5C6494 3054.82 6944.18 3505 7499.5 3505Z" stroke="#4A3AFF" stroke-width="200" stroke-miterlimit="10" stroke-linecap="round" stroke-linejoin="round"/>
<rect y="7500" width="2500" height="2500" fill="#4A3AFF"/>
<rect y="9772" width="2500" height="229" fill="#EBE9FF"/>
<rect y="9441" width="2500" height="229" fill="#EBE9FF"/>
<ellipse cx="308.5" cy="9031" rx="308.5" ry="308" fill="#EBE9FF"/>
<circle cx="936" cy="9031" r="308" fill="#EBE9FF"/>
<circle cx="1564" cy="9031" r="308" fill="#EBE9FF"/>
<ellipse cx="2191.5" cy="9031" rx="308.5" ry="308" fill="#EBE9FF"/>
<rect x="7491" y="7500" width="2509" height="2500" fill="#EBE9FF"/>
<path d="M7788 7500V9994C8457.11 9981.69 8996 9428.37 8996 8747.07C8996 8065.62 8457.26 7512.31 7788 7500Z" fill="white"/>
<path d="M8498 7500V9994C9169.9 9981.69 9711 9428.38 9711 8747.07C9711 8065.62 9169.9 7512.31 8498 7500Z" fill="#C3BDFF"/>
<rect x="7500" y="5000" width="2500" height="2500" fill="#4A3AFF"/>
<rect x="7500" y="2500" width="2500" height="2500" fill="#D7D3FF"/>
<path d="M9481.15 2868.67C9972.51 3360.04 9972.51 4156.64 9481.45 4647.71L7702.11 2868.37C8193.47 2377.01 8990.08 2377.31 9481.15 2868.67Z" fill="#4A3AFF"/>
<path d="M9429.04 3220.96C9920.4 3712.33 9920.4 4508.93 9429.34 5000L7650 3220.66C8141.37 2729.6 8937.97 2729.6 9429.04 3220.96Z" stroke="white" stroke-width="25" stroke-miterlimit="10" stroke-linecap="round" stroke-linejoin="round"/>
<path d="M9999.99 7124.25V7500.04H9624.2V7124.25H9999.99ZM9982.02 7482.07V7142.22H9642.17V7482.07H9982.02Z" fill="white"/>
<path d="M9642.18 6766.44V7142.23H9266.39V6766.44H9642.18ZM9624.21 7124.26V6784.41H9284.36V7124.26H9624.21Z" fill="white"/>
<path d="M9642.18 6408.81V6784.36H9266.39V6408.81H9642.18ZM9624.21 6766.39V6426.79H9284.36V6766.63H9624.21V6766.39Z" fill="white"/>
<path d="M9284.36 6766.44V7142.23H8908.81V6766.44H9284.36ZM9266.39 7124.26V6784.41H8926.79V7124.26H9266.39Z" fill="white"/>
<path d="M9999.99 6766.44V7142.23H9624.2V6766.44H9999.99ZM9982.02 7124.26V6784.41H9642.17V7124.26H9982.02Z" fill="white"/>
<path d="M9999.99 6408.81V6784.36H9624.2V6408.81H9999.99ZM9982.02 6766.39V6426.79H9642.17V6766.63H9982.02V6766.39Z" fill="white"/>
<path d="M9999.99 6051V6426.79H9624.2V6051H9999.99ZM9982.02 6408.82V6068.97H9642.17V6408.82H9982.02Z" fill="white"/>
<path d="M9642.18 7124.25V7500.04H9266.39V7124.25H9642.18ZM9624.21 7482.07V7142.22H9284.36V7482.07H9624.21Z" fill="white"/>
<path d="M9284.36 7124.25V7500.04H8908.81V7124.25H9284.36ZM9266.39 7482.07V7142.22H8926.79V7482.07H9266.39Z" fill="white"/>
<path d="M8926.79 7124.25V7500.04H8551V7124.25H8926.79ZM8908.82 7482.07V7142.22H8568.97V7482.07H8908.82Z" fill="white"/>
<rect x="8926.5" y="6784" width="340" height="340" fill="#EBE9FF"/>
<rect x="9284.5" y="7142" width="340" height="341" fill="#EBE9FF"/>
<rect x="9641.5" y="6784" width="341" height="340" fill="#EBE9FF"/>
<rect x="9642.5" y="6068" width="340" height="341" fill="#EBE9FF"/>
<rect x="9283.5" y="6426" width="340" height="340" fill="#EBE9FF"/>
<path d="M5000 2494V4994C5660.4 4961.82 6186 4414.56 6186 3744.14C6186 3073.72 5660.4 2526.18 5000 2494Z" fill="#EBE9FF"/>
<path d="M2 5000V7494C660.729 7461.9 1185 6915.95 1185 6247.14C1185 5578.33 660.729 5032.1 2 5000Z" fill="#EBE9FF"/>
<path d="M6540 3705C6763.68 3705 6945 3523 6945 3298.5C6945 3074 6763.68 2892 6540 2892C6316.32 2892 6135 3074 6135 3298.5C6135 3523 6316.32 3705 6540 3705Z" fill="#9A92FF"/>
<path d="M1539 6208C1762.12 6208 1943 6026.45 1943 5802.5C1943 5578.55 1762.12 5397 1539 5397C1315.88 5397 1135 5578.55 1135 5802.5C1135 6026.45 1315.88 6208 1539 6208Z" fill="#9A92FF"/>
<path d="M5850 3806V4994C6176.32 4994 6441 4728.01 6441 4400C6441 4071.99 6176.32 3806 5850 3806Z" fill="#D7D3FF"/>
<path d="M850 6309V7494C1175.76 7494 1440 7228.68 1440 6901.5C1440 6574.32 1175.76 6309 850 6309Z" fill="#D7D3FF"/>
<path d="M2500 7835L2718.73 7632.85L2915.56 7835L3123.39 7612L3331.22 7835L3539.06 7612L3746.89 7835L3954.72 7612L4162.56 7835L4370.39 7612L4578.22 7835L4786.17 7612L4994 7835" stroke="#4A3AFF" stroke-width="20" stroke-miterlimit="10" stroke-linecap="round" stroke-linejoin="round"/>
<path d="M2500 8617L2718.73 8414.85L2915.56 8617L3123.39 8394L3331.22 8617L3539.06 8394L3746.89 8617L3954.72 8394L4162.56 8617L4370.39 8394L4578.22 8617L4786.17 8394L4994 8617" stroke="#4A3AFF" stroke-width="20" stroke-miterlimit="10" stroke-linecap="round" stroke-linejoin="round"/>
<path d="M2503 9399L2721.73 9196.85L2918.56 9399L3126.39 9176L3334.22 9399L3542.06 9176L3749.89 9399L3957.72 9176L4165.56 9399L4373.39 9176L4581.22 9399L4789.17 9176L4997 9399" stroke="#4A3AFF" stroke-width="20" stroke-miterlimit="10" stroke-linecap="round" stroke-linejoin="round"/>
<path d="M2500 8134L2718.73 7931.85L2915.56 8134L3123.39 7911L3331.22 8134L3539.06 7911L3746.89 8134L3954.72 7911L4162.56 8134L4370.39 7911L4578.22 8134L4786.17 7911L4994 8134" stroke="#4A3AFF" stroke-width="20" stroke-miterlimit="10" stroke-linecap="round" stroke-linejoin="round"/>
<path d="M2500 8916L2718.73 8713.85L2915.56 8916L3123.39 8693L3331.22 8916L3539.06 8693L3746.89 8916L3954.72 8693L4162.56 8916L4370.39 8693L4578.22 8916L4786.17 8693L4994 8916" stroke="#4A3AFF" stroke-width="20" stroke-miterlimit="10" stroke-linecap="round" stroke-linejoin="round"/>
<path d="M2503 9698L2721.73 9495.85L2918.56 9698L3126.39 9475L3334.22 9698L3542.06 9475L3749.89 9698L3957.72 9475L4165.56 9698L4373.39 9475L4581.22 9698L4789.17 9475L4997 9698" stroke="#4A3AFF" stroke-width="20" stroke-miterlimit="10" stroke-linecap="round" stroke-linejoin="round"/>
<path d="M2500 8318L2718.73 8115.85L2915.56 8318L3123.39 8095L3331.22 8318L3539.06 8095L3746.89 8318L3954.72 8095L4162.56 8318L4370.39 8095L4578.22 8318L4786.17 8095L4994 8318" stroke="#4A3AFF" stroke-width="20" stroke-miterlimit="10" stroke-linecap="round" stroke-linejoin="round"/>
<path d="M2500 9100L2718.73 8897.85L2915.56 9100L3123.39 8877L3331.22 9100L3539.06 8877L3746.89 9100L3954.72 8877L4162.56 9100L4370.39 8877L4578.22 9100L4786.17 8877L4994 9100" stroke="#4A3AFF" stroke-width="20" stroke-miterlimit="10" stroke-linecap="round" stroke-linejoin="round"/>
<path d="M2503 9882L2721.73 9679.85L2918.56 9882L3126.39 9659L3334.22 9882L3542.06 9659L3749.89 9882L3957.72 9659L4165.56 9882L4373.39 9659L4581.22 9882L4789.17 9659L4997 9882" stroke="#4A3AFF" stroke-width="20" stroke-miterlimit="10" stroke-linecap="round" stroke-linejoin="round"/>
<path d="M7491.32 8747V9994H6244.16C6244.16 9305.26 6802.49 8747 7491.32 8747Z" fill="white"/>
<path d="M7491.32 7500V8747C6802.49 8747 6244.16 8188.74 6244.16 7500H7491.32Z" fill="white"/>
<path d="M4997 7500H6244.16C6244.16 8188.74 5685.83 8747 4997 8747V7500Z" fill="white"/>
<path d="M6244.16 9994H4997V8747C5685.83 8747 6244.16 9305.26 6244.16 9994Z" fill="white"/>
<rect x="5282" y="6779" width="345" height="345" fill="#9A92FF"/>
<rect x="7500" width="2500" height="2500" fill="#9A92FF"/>
<path d="M8751 2496C8060.55 2496 7501 1936.9 7501 1247H8751V2496Z" fill="#C3BDFF"/>
<path d="M8751 2493V1243H10001C10001 1933.45 9441.45 2493 8751 2493Z" fill="#4A3AFF"/>
<path d="M10001 1242H8751V-8C9441.45 -8 10001 551.782 10001 1242Z" fill="#C3BDFF"/>
</g>
<defs>
<clipPath id="clip0_1772_1362">
<rect width="10000" height="10000" fill="white"/>
</clipPath>
</defs>
</svg>
