<svg width="10000" height="10000" viewBox="0 0 10000 10000" fill="none" xmlns="http://www.w3.org/2000/svg">
<g clip-path="url(#clip0_1786_341)">
<rect width="10000" height="10000" fill="#EBE9FF"/>
<rect x="9000" y="1" width="1006" height="1015" fill="#5E50FF"/>
<rect width="1000" height="1013" fill="#EBE9FF"/>
<rect x="5005" y="7103" width="1000" height="1013" fill="#EBE9FF"/>
<rect x="1991" y="4053" width="1000" height="1013" transform="rotate(180 1991 4053)" fill="#EBE9FF"/>
<rect x="4998" y="5070" width="995" height="1013" transform="rotate(180 4998 5070)" fill="#EBE9FF"/>
<rect x="-6" y="1010" width="1006" height="1019" fill="#EBE9FF"/>
<rect x="1997" y="3043" width="1006" height="1019" transform="rotate(180 1997 3043)" fill="#EBE9FF"/>
<rect x="5000" y="1000" width="1006" height="1019" fill="#EBE9FF"/>
<rect x="1000" width="1000" height="1013" fill="#EBE9FF"/>
<rect x="991" y="4053" width="1000" height="1013" transform="rotate(180 991 4053)" fill="#EBE9FF"/>
<rect x="997" y="6078" width="1000" height="1013" transform="rotate(180 997 6078)" fill="#EBE9FF"/>
<rect x="1997" y="8099" width="1000" height="1013" transform="rotate(180 1997 8099)" fill="#D7D3FF"/>
<rect x="2998" y="7086" width="1000" height="1013" transform="rotate(180 2998 7086)" fill="#D7D3FF"/>
<rect x="7005" y="9117" width="1000" height="1013" transform="rotate(180 7005 9117)" fill="#D7D3FF"/>
<rect x="6997" y="10000" width="1000" height="890" transform="rotate(180 6997 10000)" fill="#D7D3FF"/>
<rect x="1998" y="5064" width="1000" height="1013" transform="rotate(180 1998 5064)" fill="#EBE9FF"/>
<rect x="3999" y="6078" width="1000" height="1013" transform="rotate(180 3999 6078)" fill="#D7D3FF"/>
<rect width="1000" height="1013" transform="matrix(1 0 0 -1 2000 4052)" fill="#EBE9FF"/>
<rect x="2998" y="5059" width="1000" height="1013" transform="rotate(180 2998 5059)" fill="#EBE9FF"/>
<rect x="1000" y="1010" width="1000" height="1015" fill="#5E50FF"/>
<rect x="991" y="3043" width="1000" height="1015" transform="rotate(180 991 3043)" fill="#5E50FF"/>
<rect x="3999" y="5068" width="1000" height="1015" transform="rotate(180 3999 5068)" fill="#5E50FF"/>
<rect x="2000" width="999" height="1013" fill="#C3BDFF"/>
<rect x="2000" y="1013" width="999" height="1013" fill="#EBE9FF"/>
<rect x="6991" y="8109" width="999" height="1013" fill="#EBE9FF"/>
<rect x="1997" y="5065" width="1003" height="1013" fill="#7266FF"/>
<rect x="2999" width="999" height="1013" fill="#EBE9FF"/>
<rect x="7990" y="7096" width="999" height="1013" fill="#EBE9FF"/>
<rect x="4997" width="999" height="1018" fill="#5E50FF"/>
<rect x="6996" width="1006" height="1015" fill="#5E50FF"/>
<rect x="9002" y="1" width="1006" height="1015" fill="#5E50FF"/>
<rect width="1006" height="1026" transform="matrix(-1 0 0 1 7999 2019)" fill="#5E50FF"/>
<rect width="1003" height="1011" transform="matrix(-1 0 0 1 8999 5065)" fill="#7266FF"/>
<rect width="1000" height="1026" transform="matrix(-1 0 0 1 8999 2019)" fill="#5E50FF"/>
<rect width="997" height="1026" transform="matrix(-1 0 0 1 8999 3045)" fill="#5E50FF"/>
<rect x="6997" y="1013" width="999" height="1006" fill="#5E50FF"/>
<rect width="1001" height="1020" transform="matrix(-1 0 0 1 9000 1013)" fill="#5E50FF"/>
<rect width="1001" height="1011" transform="matrix(-1 0 0 1 10000 1016)" fill="#5E50FF"/>
<rect width="1001" height="1011" transform="matrix(-1 0 0 1 10000 2022)" fill="#5E50FF"/>
<rect x="2999" y="1013" width="999" height="1013" fill="#5E50FF"/>
<rect x="7996" y="8109" width="993" height="1013" fill="#5E50FF"/>
<rect x="3000" y="3042" width="999" height="1013" fill="#5E50FF"/>
<rect x="5994" y="3041" width="999" height="1013" fill="#5E50FF"/>
<rect x="3998" width="1000" height="1013" fill="#EBE9FF"/>
<rect x="3998" y="2026" width="1000" height="1013" fill="#C3BDFF"/>
<rect x="4998" y="2019" width="1000" height="1021" fill="#C3BDFF"/>
<rect x="2999" y="2027" width="1000" height="1013" fill="#C3BDFF"/>
<rect x="7990" y="9123" width="1000" height="877" fill="#C3BDFF"/>
<rect x="4996" y="3039" width="1000" height="1016" fill="#C3BDFF"/>
<rect width="1000" height="1016" transform="matrix(1 0 0 -1 5995 5066)" fill="#5E50FF"/>
<rect x="7993" y="5066" width="995" height="1016" transform="rotate(180 7993 5066)" fill="#EBE9FF"/>
<rect width="1007" height="1013" transform="matrix(-1 0 0 1 6999 5065)" fill="#C3BDFF"/>
<rect x="6994" y="5065" width="1000" height="1016" fill="#D7D3FF"/>
<rect x="6992" y="7096" width="1000" height="1016" fill="#D7D3FF"/>
<rect x="5992" y="6078" width="999" height="1008" fill="#D7D3FF"/>
<rect x="7002" y="6078" width="999" height="1008" fill="#D7D3FF"/>
<rect x="9003" y="6075" width="1000" height="1016" fill="#D7D3FF"/>
<rect x="3998" y="3039" width="1000" height="1013" fill="#EBE9FF"/>
<rect x="3998" y="8104" width="1007" height="1002" fill="#EBE9FF"/>
<rect x="3998" y="4052" width="1000" height="1013" fill="#D7D3FF"/>
<rect x="4005" y="7086" width="1000" height="1018" fill="#EBE9FF"/>
<rect x="5996" width="1002" height="1013" fill="#EBE9FF"/>
<rect x="5995" y="7091" width="1000" height="1013" fill="#5E50FF"/>
<rect x="7999" width="1001" height="1013" fill="#EBE9FF"/>
<rect x="7996" y="4050" width="1004" height="1015" fill="#D7D3FF"/>
<rect x="8996" y="4052" width="1004" height="1013" fill="#5E50FF"/>
<rect x="8993" y="3042" width="1004" height="1015" fill="#5E50FF"/>
<rect x="9000" y="5065" width="997" height="1016" fill="#D7D3FF"/>
<rect x="7996" y="7091" width="1001" height="1013" fill="#D7D3FF"/>
<rect x="8989" y="9111" width="1011" height="889" fill="#D7D3FF"/>
<rect x="8990" y="8121" width="1015" height="990" fill="#D7D3FF"/>
<rect x="8996" y="7086" width="1009" height="1023" fill="#D7D3FF"/>
<rect x="9000" y="3039" width="1000" height="1013" fill="#EBE9FF"/>
<rect x="4998" y="1012" width="1000" height="1015" fill="#5E50FF"/>
<rect x="3997" y="3040" width="1001" height="1014" fill="#7266FF"/>
<rect x="5998" y="1012" width="1000" height="1015" fill="#5E50FF"/>
<rect x="5996" width="1008" height="1012" fill="#5E50FF"/>
<rect x="5996" y="2019" width="1002" height="1026" fill="#5E50FF"/>
<rect x="8002" y="1" width="1008" height="1012" fill="#5E50FF"/>
<rect x="3998" y="5058" width="999" height="1020" fill="#C3BDFF"/>
<rect x="2999" y="6066" width="999" height="1020" fill="#C3BDFF"/>
<rect x="1999" y="7078" width="999" height="1020" fill="#C3BDFF"/>
<rect x="1000" y="8101" width="999" height="1020" fill="#C3BDFF"/>
<rect x="997" y="5068" width="999" height="1020" fill="#C3BDFF"/>
<rect x="3" y="6074" width="986" height="1020" fill="#C3BDFF"/>
<rect x="4996" y="5058" width="999" height="1020" fill="#C3BDFF"/>
<rect x="4000" y="6066" width="999" height="1020" fill="#C3BDFF"/>
<rect x="4994" y="6078" width="998" height="1013" fill="#5E50FF"/>
<rect x="6996" y="8116" width="1000" height="1001" fill="#EBE9FF"/>
<path d="M1000 1013L0 7V1013H1000Z" fill="#5E50FF"/>
<path d="M6003 8110L5003 7104V8110H6003Z" fill="#5E50FF"/>
<path d="M5005 9106L3999 8104V9106H5005Z" fill="#5E50FF"/>
<path d="M4998 9106L3998 10000V9106H4998Z" fill="#5E50FF"/>
<path d="M3999 10000L3000 9123V10000H3999Z" fill="#5E50FF"/>
<path d="M991 3040L2000 4046V3040H991Z" fill="#5E50FF"/>
<path d="M4003 4054L4999 5062V4054H4003Z" fill="#5E50FF"/>
<path d="M2000 1020L3000 0V1020H2000Z" fill="#EBE9FF"/>
<path d="M2998 1020L3998 0V1020H2998Z" fill="#C3BDFF"/>
<path d="M7989 8116L8989 7096V8116H7989Z" fill="#C3BDFF"/>
<path d="M9000 10000L10000 9116V10000H9000Z" fill="#C3BDFF"/>
<path d="M8989 9111L10000 8121V9111H8989Z" fill="#5E50FF"/>
<path d="M8989 8121L10005 7101V8121H8989Z" fill="#5E50FF"/>
<path d="M4998 1012L5996 0V1012H4998Z" fill="#C3BDFF"/>
<path d="M7004 1013L8001 -1V1013H7004Z" fill="#EBE9FF"/>
<path d="M8999 1014L10007 0V1014H8999Z" fill="#EBE9FF"/>
<path d="M8002 3045L6994 2019V3045H8002Z" fill="#C3BDFF"/>
<path d="M9000 6076L7996 5065V6076H9000Z" fill="#5E50FF"/>
<path d="M7997 5065L8999 4042V5065H7997Z" fill="#5E50FF"/>
<path d="M8997 5065L10000 4042V5065H8997Z" fill="#D7D3FF"/>
<path d="M8997 4050L10000 3026V4050H8997Z" fill="#D7D3FF"/>
<path d="M8994 6081L10000 5066V6081H8994Z" fill="#EBE9FF"/>
<path d="M8999 2019L8000 3045V2019H8999Z" fill="#C3BDFF"/>
<path d="M9011 4050L8003 3045V4050H9011Z" fill="#C3BDFF"/>
<path d="M6998 2019L7996 1015V2019H6998Z" fill="#C3BDFF"/>
<path d="M8999 2019L7996 1015V2019H8999Z" fill="#EBE9FF"/>
<path d="M10000 2027L8999 1013V2027H10000Z" fill="#EBE9FF"/>
<path d="M10000 3033L8999 2019V3033H10000Z" fill="#C3BDFF"/>
<path d="M3996 3039L4996 2019V3039H3996Z" fill="#EBE9FF"/>
<path d="M3994 2030L4994 1010V2030H3994Z" fill="#7266FF"/>
<path d="M3998 1020L4998 0V1020H3998Z" fill="#7266FF"/>
<path d="M4996 2020L5998 3040V2020H4996Z" fill="#D7D3FF"/>
<path d="M2997 3040L3997 2020V3040H2997Z" fill="#EBE9FF"/>
<path d="M7988 10000L8989 9116V10000H7988Z" fill="#EBE9FF"/>
<path d="M3990 6078L4999 5058V6078H3990Z" fill="#5E50FF"/>
<path d="M3000 7086L4000 6066V7086H3000Z" fill="#5E50FF"/>
<path d="M2999 8105L3999 7085V8105H2999Z" fill="#5E50FF"/>
<path d="M2001 8104L3000 7078V8104H2001Z" fill="#5E50FF"/>
<path d="M1003 9125L2002 8099V9125H1003Z" fill="#5E50FF"/>
<path d="M1000 10000L1999 9125V10000H1000Z" fill="#5E50FF"/>
<path d="M4 9121L1003 9996V9121H4Z" fill="#5E50FF"/>
<path d="M1998 6088L989 5068V6088H1998Z" fill="#5E50FF"/>
<path d="M989 7094L3 6074V7094H989Z" fill="#5E50FF"/>
<path d="M2000 6078L2996 5073V6078H2000Z" fill="#5E50FF"/>
<path d="M4988 5058L5992 6078V5058H4988Z" fill="#EBE9FF"/>
<path d="M3999 6066L5003 7086V6066H3999Z" fill="#EBE9FF"/>
<path d="M4997 4055L5999 3034V4055H4997Z" fill="#EBE9FF"/>
<path d="M5996 4050L6998 5071V4050H5996Z" fill="#D7D3FF"/>
<path d="M7997 4050L6995 5071V4050H7997Z" fill="#C3BDFF"/>
<path d="M7996 3041L6994 4050V3041H7996Z" fill="#C3BDFF"/>
<path d="M7002 5065L5992 6078V5065H7002Z" fill="#5E50FF"/>
<path d="M6991 5065L7996 6086V5065H6991Z" fill="#EBE9FF"/>
<path d="M6989 7096L7994 8112V7096H6989Z" fill="#EBE9FF"/>
<path d="M5988 6078L6991 7091V6078H5988Z" fill="#EBE9FF"/>
<path d="M6998 6078L8001 7091V6078H6998Z" fill="#EBE9FF"/>
<path d="M9000 6075L10005 7096V6075H9000Z" fill="#EBE9FF"/>
<path d="M1000 1010L2000 4V1010H1000Z" fill="#5E50FF"/>
<path d="M991 3043L-3 4049V3043H991Z" fill="#5E50FF"/>
<path d="M997 5068L3 6074V5068H997Z" fill="#5E50FF"/>
<path d="M1994 7082L1000 8095V7082H1994Z" fill="#EBE9FF"/>
<path d="M990 7094L-4 8107V7094H990Z" fill="#7266FF"/>
<path d="M2995 6076L2001 7082V6076H2995Z" fill="#EBE9FF"/>
<path d="M6999 8104L6005 9110V8104H6999Z" fill="#5E50FF"/>
<path d="M6991 9106L6005 10000V9106H6991Z" fill="#5E50FF"/>
<path d="M1984 6088L990 7094V6088H1984Z" fill="#5E50FF"/>
<path d="M6989 7091L5995 8107V7091H6989Z" fill="#EBE9FF"/>
<path d="M2000 4054L997 5060V4054H2000Z" fill="#5E50FF"/>
<path d="M0 4052L994 5058V4052H0Z" fill="#C3BDFF"/>
<path d="M3999 5068L2999 6074V5068H3999Z" fill="#5E50FF"/>
<path d="M2000 3042L3000 4048V3042H2000Z" fill="#5E50FF"/>
<path d="M2998 4049L1998 5055V4049H2998Z" fill="#5E50FF"/>
<path d="M999 2026L2000 1020V2026H999Z" fill="#EBE9FF"/>
<rect x="1998" y="2026" width="1000" height="1015" fill="#5E50FF"/>
<path d="M1997 3042L2998 2036V3042H1997Z" fill="#EBE9FF"/>
<path d="M992 2027L-9 3033V2027H992Z" fill="#EBE9FF"/>
<path d="M4000 4052L2999 5058V4052H4000Z" fill="#EBE9FF"/>
<path d="M994 2026L-6 1020V2026H994Z" fill="#C3BDFF"/>
<path d="M6003 9106L5005 8107V9106H6003Z" fill="#C3BDFF"/>
<path d="M4998 10000L6003 9106V10000H4998Z" fill="#C3BDFF"/>
<path d="M5005 8104L3998 7086V8104H5005Z" fill="#C3BDFF"/>
<path d="M3999 9123L3000 8105V9123H3999Z" fill="#C3BDFF"/>
<path d="M2001 8104L3000 9122V8104H2001Z" fill="#C3BDFF"/>
<path d="M2 8103L1000 9121V8103H2Z" fill="#C3BDFF"/>
<path d="M997 2027L1997 3033V2027H997Z" fill="#C3BDFF"/>
<path d="M1998 1020L2998 2026V1020H1998Z" fill="#C3BDFF"/>
<path d="M6996 8112L7997 9122V8112H6996Z" fill="#C3BDFF"/>
<path d="M5998 2020L4998 1012V2020H5998Z" fill="#C3BDFF"/>
<path d="M4997 4055L3997 3041V4055H4997Z" fill="#C3BDFF"/>
<path d="M6998 2019L5998 1013V2019H6998Z" fill="#EBE9FF"/>
<path d="M6998 1013L5996 0V1013H6998Z" fill="#C3BDFF"/>
<path d="M6999 3045L5997 2019V3045H6999Z" fill="#C3BDFF"/>
<path d="M9004 1.00006L8002 1014V1.00006H9004Z" fill="#C3BDFF"/>
<path d="M4997 4055L5995 5073V4055H4997Z" fill="#C3BDFF"/>
<rect width="1000" height="1016" transform="matrix(-1 0 0 1 8993 6075)" fill="#EBE9FF"/>
<path d="M8996 6075L7994 7096V6075H8996Z" fill="#7266FF"/>
<path d="M1997 10000L2998 9116V10000H1997Z" fill="#7266FF"/>
<path d="M6996 9122L7997 9991V9122H6996Z" fill="#5E50FF"/>
</g>
<defs>
<clipPath id="clip0_1786_341">
<rect width="10000" height="10000" fill="white"/>
</clipPath>
</defs>
</svg>
