<svg width="10000" height="10000" viewBox="0 0 10000 10000" fill="none" xmlns="http://www.w3.org/2000/svg">
<g clip-path="url(#clip0_1790_819)">
<rect width="10000" height="10000" fill="#EBE9FF"/>
<rect y="6078" width="1000" height="1013" fill="#EBE9FF"/>
<rect width="1000" height="1013" transform="matrix(-1 0 0 1 2000 1013)" fill="#EBE9FF"/>
<rect width="1000" height="1013" transform="matrix(-1 0 0 1 4000 3039)" fill="#EBE9FF"/>
<rect width="1000" height="1013" transform="matrix(-1 0 0 1 10000 7091)" fill="#EBE9FF"/>
<rect x="2000" width="1000" height="1013" fill="#EBE9FF"/>
<rect x="4000" y="4038" width="1000" height="1027" fill="#EBE9FF"/>
<rect x="6000" width="1000" height="1013" fill="#EBE9FF"/>
<rect x="6000" y="8104" width="1000" height="1013" fill="#EBE9FF"/>
<rect y="6078" width="1000" height="1013" fill="#EBE9FF"/>
<rect width="1000" height="1013" transform="matrix(-1 0 0 1 2000 1013)" fill="#EBE9FF"/>
<rect width="1000" height="1013" transform="matrix(-1 0 0 1 4000 3039)" fill="#EBE9FF"/>
<rect width="1000" height="1013" transform="matrix(-1 0 0 1 10000 7091)" fill="#EBE9FF"/>
<rect x="6000" width="1000" height="1013" fill="#EBE9FF"/>
<rect x="6000" y="8104" width="1000" height="1013" fill="#EBE9FF"/>
<rect x="1000" y="6069" width="1018" height="1019" fill="#D7D3FF"/>
<rect x="7000" width="1000" height="1013" fill="#D7D3FF"/>
<path d="M7.19128 508.896V4.79199H999.875V1013H7.19128V508.896Z" fill="#D7D3FF"/>
<path d="M0 5H1000C1000 560.642 552.329 1011 0 1011V5Z" fill="#5E50FF"/>
<path d="M3992.81 504.103V-0.000976562H3000.12V1008.21H3992.81V504.103Z" fill="#C3BDFF"/>
<path d="M4000 -6.10352e-05H3000C3000 559.509 3447.67 1013 4000 1013V-6.10352e-05Z" fill="#9A92FF"/>
<path d="M1008.19 506.616V1008.23H2000.88V5H1008.19V506.616Z" fill="#EBE9FF"/>
<path d="M1001 1013H2003C2003 456.253 1554.43 5 1001 5V1013Z" fill="#4A3AFF"/>
<path d="M4008.19 505.616V1007.23H5000.88V4H4008.19V505.616Z" fill="#EBE9FF"/>
<path d="M4001 1007H5003C5003 453.015 4554.43 4 4001 4V1007Z" fill="#867CFF"/>
<path d="M4009.19 1510.62V2012.23H5001.88V1009H4009.19V1510.62Z" fill="#EBE9FF"/>
<path d="M4002 2017H5004C5004 1460.25 4555.43 1009 4002 1009V2017Z" fill="#867CFF"/>
<path d="M4001 5065H4996C4996 4500.52 4550.57 4043 4001 4043V5065Z" fill="#867CFF"/>
<path d="M3009.98 2521.49V3026.98H4006V2016H3009.98V2521.49Z" fill="#4A3AFF"/>
<path d="M3003 3032H3999.02C3999.02 2473.61 3553.13 2021.03 3003 2021.03V3032Z" fill="#EBE9FF"/>
<path d="M6010.19 1510.62V2012.23H7002.88V1009H6010.19V1510.62Z" fill="#EBE9FF"/>
<path d="M6003 2017H7005C7005 1460.25 6556.43 1009 6003 1009V2017Z" fill="#867CFF"/>
<path d="M2999 3542V4052H3999V3032H2999V3542Z" fill="#EBE9FF"/>
<path d="M5994.81 1513.38V1011.77H5002.12V2015H5994.81V1513.38Z" fill="#EBE9FF"/>
<path d="M6002 1007H5000C5000 1565.4 5448.57 2018 6002 2018V1007Z" fill="#4A3AFF"/>
<path d="M5997.81 3531.38V3029.77H5005.12V4033H5997.81V3531.38Z" fill="#EBE9FF"/>
<path d="M6005 3025H5003C5003 3592.24 5451.57 4052 6005 4052V3025Z" fill="#4A3AFF"/>
<path d="M3005 3540V3037H2011V4043H3005V3540Z" fill="#EBE9FF"/>
<path d="M2999.99 3032H2009C2009 3590.4 2452.64 4043 2999.99 4043V3032Z" fill="#7266FF"/>
<path d="M2995.81 501.616V1003.23H2003.12V0H2995.81V501.616Z" fill="#D7D3FF"/>
<path d="M3003 1008H2001C2001 451.253 2449.57 0 3003 0V1008Z" fill="#4A3AFF"/>
<path d="M5000.81 2518.62V3020.23H4008.12V2017H5000.81V2518.62Z" fill="#D7D3FF"/>
<path d="M5002 3025H4006C4006 2468.25 4451.88 2017 5002 2017V3025Z" fill="#4A3AFF"/>
<path d="M1008 7589.5V8091H0V7088H1008V7589.5Z" fill="#D7D3FF"/>
<path d="M1009 8096H0C0 7539.25 451.701 7088 1009 7088V8096Z" fill="#4A3AFF"/>
<path d="M2991.81 2517.62V3019.23H1999.12V2016H2991.81V2517.62Z" fill="#D7D3FF"/>
<path d="M2999 3032H1997C1997 2470.83 2445.57 2016 2999 2016V3032Z" fill="#4A3AFF"/>
<path d="M2018 4551.5V5060H3000V4043H2018V4551.5Z" fill="#D7D3FF"/>
<path d="M2011 5062H2998C2998 4499.18 2556.15 4043 2011 4043V5062Z" fill="#5E50FF"/>
<path d="M1010 5568.5V6077H2018V5060H1010V5568.5Z" fill="#D7D3FF"/>
<path d="M1003 6069H2011C2011 5511.7 1559.75 5060 1003 5060V6069Z" fill="#5E50FF"/>
<path d="M7 9558.5V10000H1000V9117H7V9558.5Z" fill="#D7D3FF"/>
<path d="M-6.10352e-05 10000H1008C1008 9512.29 556.747 9117 -6.10352e-05 9117V10000Z" fill="#5E50FF"/>
<path d="M2009 3534.5V4040H1009V3029H2009V3534.5Z" fill="#4A3AFF"/>
<path d="M2009 4045H1007C1007 3482.73 1455.57 3027 2009 3027V4045Z" fill="#AFA7FF"/>
<path d="M2 4551.5V5057H1002V4046H2V4551.5Z" fill="#D7D3FF"/>
<path d="M2 5062H1004C1004 4499.73 555.433 4044 2 4044V5062Z" fill="#867CFF"/>
<path d="M2011 6579.5V7085H3011V6074H2011V6579.5Z" fill="#D7D3FF"/>
<path d="M2011 7090H3013C3013 6527.73 2564.43 6072 2011 6072V7090Z" fill="#867CFF"/>
<path d="M994.809 1512.1V2016.21H2.125V1008H994.809V1512.1Z" fill="#C3BDFF"/>
<path d="M1002 2021H0C0 1461.49 448.567 1008 1002 1008V2021Z" fill="#4A3AFF"/>
<path d="M1002 3537V3029H0V4045H1002V3537Z" fill="#C3BDFF"/>
<path d="M1009 3029H2C2 3590.17 452.805 4045 1009 4045V3029Z" fill="#4A3AFF"/>
<path d="M1009 4554V4046H2011V5062H1009V4554Z" fill="#AFA7FF"/>
<path d="M1002 4046H2009C2009 4607.17 1558.19 5062 1002 5062V4046Z" fill="#D7D3FF"/>
<path d="M3018 6582V6074H4020V7090H3018V6582Z" fill="#AFA7FF"/>
<path d="M3011 6074H4000C4000 6635.17 3557.25 7090 3011 7090V6074Z" fill="#D7D3FF"/>
<path d="M2993 8609V8101H1991V9117H2993V8609Z" fill="#AFA7FF"/>
<path d="M3000 8101H2011C2011 8662.17 2453.75 9117 3000 9117V8101Z" fill="#D7D3FF"/>
<path d="M4000 9561V9122H3010V10000H4000V9561Z" fill="#AFA7FF"/>
<path d="M4000 9122H3010C3010 9606.94 3453.19 10000 4000 10000V9122Z" fill="#D7D3FF"/>
<path d="M1015.88 7592V7088H2000V8096H1015.88V7592Z" fill="#AFA7FF"/>
<path d="M1009 7088H1998.04C1998.04 7644.75 1555.27 8096 1009 8096V7088Z" fill="#D7D3FF"/>
<path d="M1008 8606.5V8096H2000V9117H1008V8606.5Z" fill="#AFA7FF"/>
<path d="M1008 8105H1998C1998 8653.46 1554.81 9098 1008 9098V8105Z" fill="#D7D3FF"/>
<path d="M0 2525V2021H1002V3029H0V2525Z" fill="#C3BDFF"/>
<path d="M0 2021H1002C1002 2577.75 553.433 3029 0 3029V2021Z" fill="#867CFF"/>
<path d="M6.10352e-05 8606.5V8096H1009V9117H6.10352e-05V8606.5Z" fill="#C3BDFF"/>
<path d="M0 8096H1000C1000 8659.93 552.328 9117 0 9117V8096Z" fill="#867CFF"/>
<path d="M1995.79 1512.1V2016.21H1000.13V1008H1995.79V1512.1Z" fill="#D7D3FF"/>
<path d="M2003 2021H998C998 1461.49 1447.91 1008 2003 1008V2021Z" fill="#867CFF"/>
<path d="M2005.21 1512.1V2016.21H3000.87V1008H2005.21V1512.1Z" fill="#D7D3FF"/>
<path d="M1998 2021H3003C3003 1461.49 2553.09 1008 1998 1008V2021Z" fill="#AFA7FF"/>
<path d="M1008.21 2520.1V3024.21H2003.87V2016H1008.21V2520.1Z" fill="#D7D3FF"/>
<path d="M1001 3029H2006C2006 2469.49 1556.09 2016 1001 2016V3029Z" fill="#EBE9FF"/>
<path d="M4006 1515V1013H3003V2017H4006V1515Z" fill="#D7D3FF"/>
<path d="M4006 1008H3001C3001 1562.56 3450.91 2012.04 4006 2012.04V1008Z" fill="#AFA7FF"/>
<path d="M4001 4551.5V4038H3000V5065H4001V4551.5Z" fill="#D7D3FF"/>
<path d="M4001 4033H3014.97C3014.97 4600.2 3456.39 5059.93 4001 5059.93V4033Z" fill="#AFA7FF"/>
<path d="M1006 6579.5V6066H0V7093H1006V6579.5Z" fill="#D7D3FF"/>
<path d="M1006 6061H0C0 6628.24 450.358 7088 1006 7088V6061Z" fill="#AFA7FF"/>
<path d="M5994.81 503.104V1007.21H5002.12V-1H5994.81V503.104Z" fill="#C3BDFF"/>
<path d="M6002 1007H5000C5000 450.253 5448.57 -1 6002 -1V1007Z" fill="#7266FF"/>
<path d="M6997 505.5V-1H6004V1012H6997V505.5Z" fill="#C3BDFF"/>
<path d="M7004 -1H6002C6002 558.509 6450.57 1012 7004 1012V-1Z" fill="#867CFF"/>
<path d="M6997 509V5H7999V1013H6997V509Z" fill="#C3BDFF"/>
<path d="M6997 0H8001C8001 559.509 7551.54 1013 6997 1013V0Z" fill="#4A3AFF"/>
<path d="M9007 1520.5V1015H10000V2026H9007V1520.5Z" fill="#D7D3FF"/>
<path d="M9000 1010H10002C10002 1569.51 9553.43 2023 9000 2023V1010Z" fill="#AFA7FF"/>
<path d="M9000 3538.5V3025H10003V4052H9000V3538.5Z" fill="#D7D3FF"/>
<path d="M9000 3020H10005C10005 3590 9555.09 4052 9000 4052V3020Z" fill="#AFA7FF"/>
<path d="M9000 7594.5V7081H10003V8108H9000V7594.5Z" fill="#D7D3FF"/>
<path d="M9000 7076H10005C10005 7641.58 9555.09 8100 9000 8100V7076Z" fill="#AFA7FF"/>
<path d="M8994 1514V2013H8001V1015H8994V1514Z" fill="#D7D3FF"/>
<path d="M9001 2018H7999C7999 1458.49 8447.57 1005 9001 1005V2018Z" fill="#9A92FF"/>
<path d="M8988 4559V5065H7995V4053H8988V4559Z" fill="#D7D3FF"/>
<path d="M9002 5066H8000C8000 4506.49 8448.57 4053 9002 4053V5066Z" fill="#9A92FF"/>
<path d="M7015 5571V5065H8008V6077H7015V5571Z" fill="#D7D3FF"/>
<path d="M7001 5059H8003C8003 5621.27 7554.43 6077 7001 6077V5059Z" fill="#9A92FF"/>
<path d="M5989 8607V9113H4996V8101H5989V8607Z" fill="#D7D3FF"/>
<path d="M6003 9119H5001C5001 8556.73 5449.57 8101 6003 8101V9119Z" fill="#9A92FF"/>
<path d="M4993 9558.5V10000H4000V9117H4993V9558.5Z" fill="#D7D3FF"/>
<path d="M5001 10000H4005C4005 9515.06 4450.88 9122 5001 9122V10000Z" fill="#9A92FF"/>
<path d="M7995 2518.5V3025H7002V2012H7995V2518.5Z" fill="#D7D3FF"/>
<path d="M8002 3025H7000C7000 2465.49 7448.57 2012 8002 2012V3025Z" fill="#9A92FF"/>
<path d="M4007 3534V3025H5000V4043H4007V3534Z" fill="#D7D3FF"/>
<path d="M4000 3025H5002C5002 3587.27 4553.43 4043 4000 4043V3025Z" fill="#9A92FF"/>
<path d="M7007 1511V1010H8000V2012H7007V1511Z" fill="#C3BDFF"/>
<path d="M7000 1012.97H8002C8002 1563.12 7553.43 2009.03 7000 2009.03V1012.97Z" fill="#9A92FF"/>
<path d="M6003 3539.5V4054H7007.99V3025H6003V3539.5Z" fill="#C3BDFF"/>
<path d="M6004 4051H7010C7010 3484.31 6559.64 3025 6004 3025V4051Z" fill="#9A92FF"/>
<path d="M9000 506.5V0H7999V1013H9000V506.5Z" fill="#C3BDFF"/>
<path d="M9003 1H7996C7996 559.404 8446.81 1012 9003 1012V1Z" fill="#867CFF"/>
<path d="M9004 2521.5V2018H7995V3025H9004V2521.5Z" fill="#AFA7FF"/>
<path d="M9007 2019H8000C8000 2577.4 8450.81 3030 9007 3030V2019Z" fill="#867CFF"/>
<path d="M9011 6580.5V6077H8002V7084H9011V6580.5Z" fill="#AFA7FF"/>
<path d="M9014 6078H8007C8007 6636.4 8457.81 7089 9014 7089V6078Z" fill="#867CFF"/>
<path d="M8987 9560V9120H7996V10000H8987V9560Z" fill="#AFA7FF"/>
<path d="M8990 9121H7983C7983 9606.5 8433.81 10000 8990 10000V9121Z" fill="#867CFF"/>
<path d="M7996 8609.5V8100H6987V9119H7996V8609.5Z" fill="#D7D3FF"/>
<path d="M7999 8101H6992C6992 8659.4 7442.81 9112 7999 9112V8101Z" fill="#AFA7FF"/>
<path d="M7015 9559.5V9119H6006V10000H7015V9559.5Z" fill="#D7D3FF"/>
<path d="M7008 9120H6006C6006 9606.05 6454.57 10000 7008 10000V9120Z" fill="#AFA7FF"/>
<path d="M9997 4559V4052H9002V5066H9997V4559Z" fill="#AFA7FF"/>
<path d="M10000 4053H9006.93C9006.93 4611.4 9451.5 5064 10000 5064V4053Z" fill="#867CFF"/>
<path d="M6006 5571V6078H7001V5064H6006V5571Z" fill="#AFA7FF"/>
<path d="M6003 6077H6996.07C6996.07 5518.6 6551.5 5066 6003 5066V6077Z" fill="#867CFF"/>
<path d="M8000 4553.5V4048H7004V5059H8000V4553.5Z" fill="#AFA7FF"/>
<path d="M7995 4048H7015C7015 4610.27 7453.72 5066 7995 5066V4048Z" fill="#867CFF"/>
<path d="M8003 5571.5V6077H8999V5066H8003V5571.5Z" fill="#AFA7FF"/>
<path d="M8000 6077H8988C8988 5514.73 8545.7 5059 8000 5059V6077Z" fill="#867CFF"/>
<path d="M4015 5565.5V5060H3019V6071H4015V5565.5Z" fill="#AFA7FF"/>
<path d="M4010 5060H3030C3030 5622.27 3468.72 6078 4010 6078V5060Z" fill="#867CFF"/>
<path d="M9994.81 504.104V1008.21H9002.12V0H9994.81V504.104Z" fill="#C3BDFF"/>
<path d="M10002 1012H9002C9002 453.596 9449.67 1 10002 1V1012Z" fill="#4A3AFF"/>
<path d="M9009.19 2520.12V3021.23H10001.9V2019H9009.19V2520.12Z" fill="#C3BDFF"/>
<path d="M9002 3025H10002C10002 2469.91 9554.33 2019.99 9002 2019.99V3025Z" fill="#4A3AFF"/>
<path d="M9014 6578V7079H10007V6077H9014V6578Z" fill="#C3BDFF"/>
<path d="M9007 7083H10007C10007 6527.91 9559.33 6077.99 9007 6077.99V7083Z" fill="#4A3AFF"/>
<path d="M7995 3538.5V4052H9000V3025H7995V3538.5Z" fill="#C3BDFF"/>
<path d="M7995 4052H9000C9000 3484.76 8550.09 3025 7995 3025V4052Z" fill="#4A3AFF"/>
<path d="M7995 7586.53V8092.06H9000V7081H7995V7586.53Z" fill="#C3BDFF"/>
<path d="M7995 8100H9000C9000 7537.18 8550.09 7081 7995 7081V8100Z" fill="#4A3AFF"/>
<path d="M6003 8609.5V9119H6997V8100H6003V8609.5Z" fill="#C3BDFF"/>
<path d="M6003 9119H7008C7008 8556.18 6558.09 8100 6003 8100V9119Z" fill="#4A3AFF"/>
<path d="M5001 9559.5V10000H6006V9119H5001V9559.5Z" fill="#C3BDFF"/>
<path d="M5001 10000H6006C6006 9513.4 5556.09 9119 5001 9119V10000Z" fill="#4A3AFF"/>
<path d="M7010 3536.5V4048H7995V3025H7010V3536.5Z" fill="#C3BDFF"/>
<path d="M7010 3025H7995C7995 3592.24 7554.04 4052 7010 4052V3025Z" fill="#4A3AFF"/>
<path d="M5000 4554.5V5066H6003V4043H5000V4554.5Z" fill="#C3BDFF"/>
<path d="M5000 4043H6003C6003 4607.48 5553.99 5065 5000 5065V4043Z" fill="#4A3AFF"/>
<path d="M4000 5568.5V6080H5003V5057H4000V5568.5Z" fill="#C3BDFF"/>
<path d="M4000 5057H5003C5003 5621.48 4553.99 6079 4000 6079V5057Z" fill="#4A3AFF"/>
<path d="M2000 7594.5V8106H3011V7083H2000V7594.5Z" fill="#C3BDFF"/>
<path d="M2000 7083H3011C3011 7647.48 2558.4 8105 2000 8105V7083Z" fill="#4A3AFF"/>
<path d="M1000 9558.5V10000H2020V9117H1000V9558.5Z" fill="#C3BDFF"/>
<path d="M2020 9999H1009C1009 9511.85 1461.6 9117 2020 9117V9999Z" fill="#4A3AFF"/>
<path d="M3010 9558.5V10000H2020V9117H3010V9558.5Z" fill="#C3BDFF"/>
<path d="M2020 9999H3000C3000 9511.85 2561.28 9117 2020 9117V9999Z" fill="#9A92FF"/>
<path d="M9000 5570.5V6077H10003V5064H9000V5570.5Z" fill="#C3BDFF"/>
<path d="M9002 5064H10003C10003 5623.51 9554.88 6077 9002 6077V5064Z" fill="#4A3AFF"/>
<path d="M6002.79 2516.1V3020.21H5007.13V2012H6002.79V2516.1Z" fill="#D7D3FF"/>
<path d="M6010 3025H5005C5005 2465.49 5454.91 2012 6010 2012V3025Z" fill="#867CFF"/>
<path d="M7002.79 2516.1V3020.21H6007.13V2012H7002.79V2516.1Z" fill="#D7D3FF"/>
<path d="M7010 3025H6005C6005 2465.49 6454.91 2012 7010 2012V3025Z" fill="#AFA7FF"/>
<path d="M6995.79 4555.1V5059.21H6000.13V4051H6995.79V4555.1Z" fill="#EBE9FF"/>
<path d="M7008 5064H5998C5998 4504.49 6450.15 4051 7008 4051V5064Z" fill="#AFA7FF"/>
<path d="M5991.79 7591.1V8095.21H4996.13V7087H5991.79V7591.1Z" fill="#EBE9FF"/>
<path d="M6004 8100H4994C4994 7540.49 5446.15 7087 6004 7087V8100Z" fill="#AFA7FF"/>
<path d="M9988 8605V9109H8985V8101H9988V8605Z" fill="#EBE9FF"/>
<path d="M10000 9109H8985C8985 8552.25 9439.39 8101 10000 8101V9109Z" fill="#AFA7FF"/>
<path d="M5995.79 5569.1V6073.21H5000.13V5065H5995.79V5569.1Z" fill="#D7D3FF"/>
<path d="M6008 6078H4998C4998 5518.49 5450.15 5065 6008 5065V6078Z" fill="#AFA7FF"/>
<path d="M3010.79 5567.1V6071.21H2015.13V5063H3010.79V5567.1Z" fill="#D7D3FF"/>
<path d="M3023 6076H2013C2013 5516.49 2465.15 5063 3023 5063V6076Z" fill="#AFA7FF"/>
<path d="M3988.25 7593V8101H3011V7085H3988.25V7593Z" fill="#D7D3FF"/>
<path d="M4000 8106H3011C3011 7542.07 3453.75 7085 4000 7085V8106Z" fill="#AFA7FF"/>
<path d="M3005.19 3536.62V4038.23H3997.88V3035H3005.19V3536.62Z" fill="#EBE9FF"/>
<path d="M2998 4043H4000C4000 3486.25 3551.43 3035 2998 3035V4043Z" fill="#867CFF"/>
<path d="M10.1913 5562.62V6064.23H1002.88V5061H10.1913V5562.62Z" fill="#EBE9FF"/>
<path d="M3 6069H1005C1005 5512.25 556.433 5061 3 5061V6069Z" fill="#867CFF"/>
<path d="M1009 7088H1996C1996 6525.18 1554.15 6069 1009 6069V7088Z" fill="#5E50FF"/>
<path d="M4993.81 6584.1V6080H4001.12V7088.21H4993.81V6584.1Z" fill="#C3BDFF"/>
<path d="M5001 6080H4001C4001 6639.51 4448.67 7093 5001 7093V6080Z" fill="#9A92FF"/>
<path d="M4992.81 8613.1V8109H4000.12V9117.21H4992.81V8613.1Z" fill="#C3BDFF"/>
<path d="M5000 8106H4000C4000 8667.17 4447.67 9122 5000 9122V8106Z" fill="#9A92FF"/>
<path d="M5009.19 6585.62V7087.23H6001.88V6084H5009.19V6585.62Z" fill="#EBE9FF"/>
<path d="M5003 7087H6005C6005 6533.01 5556.43 6084 5003 6084V7087Z" fill="#867CFF"/>
<path d="M6996 6574.5V7076H6008V6073H6996V6574.5Z" fill="#D7D3FF"/>
<path d="M6996 7089H6006C6006 6527.83 6449.19 6073 6996 6073V7089Z" fill="#4A3AFF"/>
<path d="M5000 7591.5V8093H4000V7090H5000V7591.5Z" fill="#D7D3FF"/>
<path d="M5000 8106H4000C4000 7544.83 4447.67 7090 5000 7090V8106Z" fill="#4A3AFF"/>
<path d="M4000 8607.5V9109H3000V8106H4000V8607.5Z" fill="#D7D3FF"/>
<path d="M4000 9122H3010C3010 8560.83 3453.19 8106 4000 8106V9122Z" fill="#4A3AFF"/>
<path d="M7006.98 6578.49V7083.98H8003V6073H7006.98V6578.49Z" fill="#4A3AFF"/>
<path d="M7000 7089H7996.02C7996.02 6530.61 7550.13 6078.03 7000 6078.03V7089Z" fill="#EBE9FF"/>
<path d="M8992 9554.5V10000H10000V9109H8992V9554.5Z" fill="#4A3AFF"/>
<path d="M8985 10000H9981C9981 9510.64 9535.12 9114 8985 9114V10000Z" fill="#EBE9FF"/>
<path d="M7008 9560V10000H7996V9120H7008V9560Z" fill="#4A3AFF"/>
<path d="M7008 10000H7996C7996 9513.4 7553.7 9119 7008 9119V10000Z" fill="#EBE9FF"/>
<path d="M6008 7597V7094H7002V8100H6008V7597Z" fill="#EBE9FF"/>
<path d="M6005.01 7089H6996C6996 7647.4 6552.36 8100 6005.01 8100V7089Z" fill="#7266FF"/>
<path d="M7004.19 7593.62V8095.23H7996.88V7092H7004.19V7593.62Z" fill="#EBE9FF"/>
<path d="M6997 8100H7999C7999 7543.25 7550.43 7092 6997 7092V8100Z" fill="#867CFF"/>
<path d="M8003 8602.5V9104H8985V8101H8003V8602.5Z" fill="#EBE9FF"/>
<path d="M7996 9121H8985C8985 8557.63 8542.25 8101 7996 8101V9121Z" fill="#867CFF"/>
</g>
<defs>
<clipPath id="clip0_1790_819">
<rect width="10000" height="10000" fill="white"/>
</clipPath>
</defs>
</svg>
