<svg width="10000" height="10000" viewBox="0 0 10000 10000" fill="none" xmlns="http://www.w3.org/2000/svg">
<g clip-path="url(#clip0_1798_362)">
<rect width="10000" height="10000" fill="#4A3AFF"/>
<path d="M1 1873C1 838.571 839.571 0 1874 0H2003V341C2003 1258.34 1259.34 2002 342 2002H1V1873Z" fill="#EBE9FF"/>
<rect x="4002" width="2000" height="2002" fill="#C3BDFF"/>
<path d="M2003 1392C2003 623.22 2626.22 0 3395 0H4002V1999H2003V1392Z" fill="#D7D3FF"/>
<rect x="6002" width="1999" height="1999" fill="#EBE9FF"/>
<path d="M0 1999H344C1259.69 1999 2002 2741.31 2002 3657V4001H1873C838.571 4001 0 3162.43 0 2128V1999Z" fill="#D7D3FF"/>
<path d="M2002 1999H4001V2713C4001 3423.24 3425.24 3999 2715 3999H2002V1999Z" fill="#EBE9FF"/>
<rect x="6001" y="1999" width="1999" height="2000" fill="#EBE9FF"/>
<path d="M8000 2998.5C8000 2446.49 8447.49 1999 8999.5 1999C9551.51 1999 9999 2446.49 9999 2998.5V3999H8000V2998.5Z" fill="#D7D3FF"/>
<rect x="2" y="3998" width="2002" height="2001" fill="#EBE9FF"/>
<path d="M3 6999C3 6446.16 451.163 5998 1004 5998C1556.84 5998 2005 6446.16 2005 6999V8000H3V6999Z" fill="#D7D3FF"/>
<path d="M0 7997H2002V8999C2002 9551.84 1553.84 10000 1001 10000C448.163 10000 0 9551.84 0 8999V7997Z" fill="#EBE9FF"/>
<path d="M4003 3999H6003V5000C6003 5552.28 5555.28 6000 5003 6000C4450.72 6000 4003 5552.28 4003 5000V3999Z" fill="#EBE9FF"/>
<path d="M6004 5998H5766C4792.87 5998 4004 6786.87 4004 7760V8000H6004V5998Z" fill="#AFA7FF"/>
<path d="M4001 7997H6001V8176C6001 9183.37 5184.37 10000 4177 10000H4001V7997Z" fill="#7266FF"/>
<path d="M2004 3999H3003.5C3555.51 3999 4003 4446.49 4003 4998.5C4003 5550.51 3555.51 5998 3003.5 5998H2004V3999Z" fill="#D7D3FF"/>
<path d="M2005 5998C3109.02 5998 4004 6892.98 4004 7997H2005V5998Z" fill="#EBE9FF"/>
<path d="M2002 7997H4001V9998H3524C2683.42 9998 2002 9316.58 2002 8476V7997Z" fill="#C3BDFF"/>
<path d="M6001 9870C6001 8835.57 6839.57 7997 7874 7997H8000V8492C8000 9323.74 7325.74 9998 6494 9998H6001V9870Z" fill="#EBE9FF"/>
<path d="M8007 7869C8007 6834.57 7168.43 5996 6134 5996H6008V6491C6008 7322.74 6682.26 7997 7514 7997H8007V7869Z" fill="#EBE9FF"/>
<path d="M8002 3999H10001V4998.5C10001 5550.51 9553.51 5998 9001.5 5998C8449.49 5998 8002 5550.51 8002 4998.5V3999Z" fill="#C3BDFF"/>
<rect x="8003" y="5998" width="1999" height="1999" fill="#D7D3FF"/>
<path d="M2002 5000.5V6000H1004.5C1004.5 5447.96 1451.06 5000.5 2002 5000.5Z" fill="#4A3AFF"/>
<path d="M2002 4001V5000.5C1451.06 5000.5 1004.5 4553.04 1004.5 4001H2002Z" fill="#4A3AFF"/>
<path d="M7 4001H1004.5C1004.5 4553.04 557.939 5000.5 7 5000.5V4001Z" fill="#4A3AFF"/>
<path d="M1004.5 6000H7V5000.5C557.939 5000.5 1004.5 5447.96 1004.5 6000Z" fill="#4A3AFF"/>
<path d="M7996 3001.5V4001H6998.5C6998.5 3448.96 7445.06 3001.5 7996 3001.5Z" fill="#4A3AFF"/>
<path d="M7996 2002V3001.5C7445.06 3001.5 6998.5 2554.04 6998.5 2002H7996Z" fill="#4A3AFF"/>
<path d="M6001 2002H6998.5C6998.5 2554.04 6551.94 3001.5 6001 3001.5V2002Z" fill="#4A3AFF"/>
<path d="M6998.5 4001H6001V3001.5C6551.94 3001.5 6998.5 3448.96 6998.5 4001Z" fill="#4A3AFF"/>
<path d="M9134.41 135.131C9134.41 209.568 8999.5 1009.19 8999.5 1009.19C8999.5 1009.19 8864.59 209.568 8864.59 135.131C8864.59 99.2922 8878.81 64.921 8904.11 39.579C8929.41 14.237 8963.72 0 8999.5 0C9035.28 0 9069.59 14.237 9094.89 39.579C9120.19 64.921 9134.41 99.2922 9134.41 135.131Z" fill="#EBE9FF"/>
<path d="M8864.59 1863.87C8864.59 1789.43 8999.5 989.811 8999.5 989.811C8999.5 989.811 9134.41 1789.43 9134.41 1863.87C9134.41 1899.71 9120.19 1934.08 9094.89 1959.42C9069.59 1984.76 9035.28 1999 8999.5 1999C8963.72 1999 8929.41 1984.76 8904.11 1959.42C8878.81 1934.08 8864.59 1899.71 8864.59 1863.87Z" fill="#EBE9FF"/>
<path d="M9863.87 1134.41C9789.43 1134.41 8989.81 999.5 8989.81 999.5C8989.81 999.5 9789.43 864.594 9863.87 864.594C9899.71 864.594 9934.08 878.807 9959.42 904.107C9984.77 929.407 9999 963.721 9999 999.5C9999 1035.28 9984.77 1069.59 9959.42 1094.89C9934.08 1120.19 9899.71 1134.41 9863.87 1134.41Z" fill="#EBE9FF"/>
<path d="M8135.13 864.594C8209.57 864.594 9009.19 999.5 9009.19 999.5C9009.19 999.5 8209.57 1134.41 8135.13 1134.41C8099.29 1134.41 8064.92 1120.19 8039.58 1094.89C8014.24 1069.59 8000 1035.28 8000 999.5C8000 963.721 8014.24 929.407 8039.58 904.107C8064.92 878.807 8099.29 864.594 8135.13 864.594Z" fill="#EBE9FF"/>
<path d="M9707.41 484.101C9654.38 536.741 8992.79 1006.21 8992.79 1006.21C8992.79 1006.21 9463.19 345.921 9515.93 292.995C9528.5 280.447 9543.43 270.493 9559.86 263.702C9576.28 256.911 9593.89 253.416 9611.67 253.416C9629.45 253.416 9647.06 256.911 9663.49 263.702C9679.91 270.493 9694.84 280.447 9707.41 292.995C9719.99 305.544 9729.96 320.44 9736.77 336.835C9743.57 353.23 9747.07 370.802 9747.07 388.548C9747.07 406.294 9743.57 423.866 9736.77 440.261C9729.96 456.656 9719.99 471.553 9707.41 484.101Z" fill="#EBE9FF"/>
<path d="M8292.99 1515.93C8345.92 1463.19 9006.21 992.791 9006.21 992.791C9006.21 992.791 8536.74 1654.39 8484.1 1707.42C8458.76 1732.81 8424.39 1747.07 8388.55 1747.07C8352.71 1747.07 8318.34 1732.81 8292.99 1707.42C8267.65 1682.02 8253.41 1647.58 8253.41 1611.67C8253.41 1575.76 8267.65 1541.33 8292.99 1515.93Z" fill="#EBE9FF"/>
<path d="M9515.93 1707.42C9463.19 1654.39 8992.79 992.791 8992.79 992.791C8992.79 992.791 9654.38 1463.19 9707.41 1515.93C9732.81 1541.33 9747.07 1575.76 9747.07 1611.67C9747.07 1647.58 9732.81 1682.02 9707.41 1707.42C9682.02 1732.81 9647.58 1747.07 9611.67 1747.07C9575.76 1747.07 9541.32 1732.81 9515.93 1707.42Z" fill="#EBE9FF"/>
<path d="M8484.1 292.995C8536.74 345.921 9006.21 1006.21 9006.21 1006.21C9006.21 1006.21 8345.92 536.741 8292.99 484.101C8280.45 471.553 8270.49 456.656 8263.7 440.261C8256.91 423.866 8253.41 406.294 8253.41 388.548C8253.41 370.802 8256.91 353.23 8263.7 336.835C8270.49 320.44 8280.45 305.544 8292.99 292.995C8305.54 280.447 8320.44 270.493 8336.83 263.702C8353.23 256.911 8370.8 253.416 8388.55 253.416C8406.29 253.416 8423.86 256.911 8440.26 263.702C8456.65 270.493 8471.55 280.447 8484.1 292.995Z" fill="#EBE9FF"/>
<circle cx="7003.5" cy="5000.5" r="999.5" transform="rotate(180 7003.5 5000.5)" fill="#AFA7FF"/>
<circle cx="5008.5" cy="3001.5" r="999.5" transform="rotate(180 5008.5 3001.5)" fill="#D7D3FF"/>
<circle cx="9002.5" cy="9000.5" r="999.5" transform="rotate(180 9002.5 9000.5)" fill="#AFA7FF"/>
<path d="M5001.5 500.109L5310.73 49L5295.6 595.811L5810.98 412.586L5477.21 846.109L6002 1000.7L5477.21 1154.89L5810.98 1588.41L5295.6 1405.19L5310.73 1952L5001.5 1500.89L4692.27 1952L4707.4 1405.19L4192.02 1588.41L4525.79 1154.89L4001 1000.7L4525.79 846.109L4192.02 412.586L4707.4 595.811L4692.27 49L5001.5 500.109Z" fill="#9A92FF"/>
<path d="M9007.5 6545.11L9316.73 6094L9301.6 6640.81L9816.98 6457.59L9483.21 6891.11L10008 7045.7L9483.21 7199.89L9816.98 7633.41L9301.6 7450.19L9316.73 7997L9007.5 7545.89L8698.27 7997L8713.4 7450.19L8198.02 7633.41L8531.79 7199.89L8007 7045.7L8531.79 6891.11L8198.02 6457.59L8713.4 6640.81L8698.27 6094L9007.5 6545.11Z" fill="#AFA7FF"/>
</g>
<defs>
<clipPath id="clip0_1798_362">
<rect width="10000" height="10000" fill="white"/>
</clipPath>
</defs>
</svg>
