<svg width="400" height="400" viewBox="0 0 400 400" fill="none" xmlns="http://www.w3.org/2000/svg">
<rect x="200" y="200" width="200" height="200" transform="rotate(180 200 200)" fill="#1D1F22"/>
<rect x="200" y="200" width="200" height="100" transform="rotate(180 200 200)" fill="#C2DBFF"/>
<path d="M100 0C44.7715 0 0 44.7715 0 100L200 100C200 44.7715 155.228 0 100 0Z" fill="#C2DBFF"/>
<rect width="200" height="200" transform="matrix(-1 0 0 1 400 0)" fill="#1D1F22"/>
<path d="M200 200C200 173.736 205.173 147.728 215.224 123.463C225.275 99.1982 240.007 77.1504 258.579 58.5786C277.15 40.0069 299.198 25.275 323.463 15.2241C347.728 5.17315 373.736 -1.14805e-06 400 0L400 200H200Z" fill="#546EF3"/>
<rect x="200" y="400" width="200" height="200" transform="rotate(180 200 400)" fill="#C2DBFF"/>
<rect width="200" height="200" transform="matrix(-1 0 0 1 400 200)" fill="#546EF3"/>
</svg>
