<svg width="400" height="400" viewBox="0 0 400 400" fill="none" xmlns="http://www.w3.org/2000/svg">
<rect width="200" height="200" transform="matrix(1 0 0 -1 0 200)" fill="#546EF3"/>
<path d="M200 0C200 26.2644 194.827 52.2716 184.776 76.5367C174.725 100.802 159.993 122.85 141.421 141.421C122.85 159.993 100.802 174.725 76.5367 184.776C52.2716 194.827 26.2644 200 0 200L1.52588e-05 0H200Z" fill="#C2DBFF"/>
<rect x="200" width="200" height="200" fill="#546EF3"/>
<rect x="200" y="100" width="200" height="100" fill="#1D1F22"/>
<path d="M300 0C355.228 0 400 44.7715 400 100L200 100C200 44.7715 244.772 0 300 0Z" fill="#1D1F22"/>
<rect width="200" height="200" transform="matrix(1 0 0 -1 0 400)" fill="#546EF3"/>
<rect x="200" y="200" width="200" height="200" fill="#1D1F22"/>
</svg>
