<svg width="400" height="400" viewBox="0 0 400 400" fill="none" xmlns="http://www.w3.org/2000/svg">
<rect width="200" height="200" transform="matrix(-1 0 0 1 200 0)" fill="#1D1F22"/>
<rect width="200" height="100" transform="matrix(-1 0 0 1 200 0)" fill="#C2DBFF"/>
<path d="M100 200C44.7715 200 0 155.228 0 100L200 100C200 155.228 155.228 200 100 200Z" fill="#C2DBFF"/>
<rect x="400" y="200" width="200" height="200" transform="rotate(180 400 200)" fill="#1D1F22"/>
<path d="M300 100C244.772 100 200 144.772 200 200H400C400 144.772 355.228 100 300 100Z" fill="#546EF3"/>
<rect width="200" height="200" transform="matrix(-1 0 0 1 200 200)" fill="#1D1F22"/>
<path d="M-1.52588e-05 400C-1.52588e-05 373.736 5.17313 347.728 15.2241 323.463C25.275 299.198 40.0069 277.15 58.5786 258.579C77.1503 240.007 99.1982 225.275 123.463 215.224C147.728 205.173 173.736 200 200 200L200 400H-1.52588e-05Z" fill="#546EF3"/>
<rect x="400" y="400" width="200" height="200" transform="rotate(180 400 400)" fill="#546EF3"/>
<path d="M400 400C400 373.736 394.827 347.728 384.776 323.463C374.725 299.198 359.993 277.15 341.421 258.579C322.85 240.007 300.802 225.275 276.537 215.224C252.272 205.173 226.264 200 200 200L200 400H400Z" fill="#C2DBFF"/>
</svg>
