<svg width="400" height="400" viewBox="0 0 400 400" fill="none" xmlns="http://www.w3.org/2000/svg">
<rect width="200" height="200" transform="matrix(-1 0 0 1 200 0)" fill="#1D1F22"/>
<path d="M-1.52588e-05 200C-1.52588e-05 173.736 5.17313 147.728 15.2241 123.463C25.275 99.1982 40.0069 77.1504 58.5786 58.5786C77.1503 40.0069 99.1982 25.275 123.463 15.2241C147.728 5.17315 173.736 -1.14805e-06 200 0L200 200H-1.52588e-05Z" fill="#546EF3"/>
<rect x="400" y="200" width="200" height="200" transform="rotate(180 400 200)" fill="#546EF3"/>
<path d="M400 200C400 173.736 394.827 147.728 384.776 123.463C374.725 99.1982 359.993 77.1504 341.421 58.5786C322.85 40.0069 300.802 25.275 276.537 15.2241C252.272 5.17315 226.264 -1.14805e-06 200 0L200 200H400Z" fill="#C2DBFF"/>
<rect width="200" height="200" transform="matrix(-1 0 0 1 200 200)" fill="#546EF3"/>
<rect x="400" y="400" width="200" height="200" transform="rotate(180 400 400)" fill="#C2DBFF"/>
</svg>
