<svg width="400" height="400" viewBox="0 0 400 400" fill="none" xmlns="http://www.w3.org/2000/svg">
<rect width="200" height="200" transform="matrix(-1 0 0 1 200 0)" fill="#1D1F22"/>
<path d="M-1.52588e-05 0C-1.52588e-05 26.2644 5.17313 52.2716 15.2241 76.5367C25.275 100.802 40.0069 122.85 58.5786 141.421C77.1503 159.993 99.1982 174.725 123.463 184.776C147.728 194.827 173.736 200 200 200L200 0H-1.52588e-05Z" fill="#546EF3"/>
<rect width="200" height="200" transform="matrix(1 0 0 -1 200 200)" fill="#546EF3"/>
<path d="M400 0C400 26.2644 394.827 52.2716 384.776 76.5367C374.725 100.802 359.993 122.85 341.421 141.421C322.85 159.993 300.802 174.725 276.537 184.776C252.272 194.827 226.264 200 200 200L200 0H400Z" fill="#C2DBFF"/>
<rect width="200" height="200" transform="matrix(-1 0 0 1 200 200)" fill="#1D1F22"/>
<path d="M-1.52588e-05 400C-1.52588e-05 373.736 5.17313 347.728 15.2241 323.463C25.275 299.198 40.0069 277.15 58.5786 258.579C77.1503 240.007 99.1982 225.275 123.463 215.224C147.728 205.173 173.736 200 200 200L200 400H-1.52588e-05Z" fill="#546EF3"/>
<rect width="200" height="200" transform="matrix(1 0 0 -1 200 400)" fill="#546EF3"/>
</svg>
