<svg width="400" height="400" viewBox="0 0 400 400" fill="none" xmlns="http://www.w3.org/2000/svg">
<rect x="200" y="200" width="200" height="200" transform="rotate(180 200 200)" fill="#1D1F22"/>
<rect width="200" height="200" transform="matrix(-1 0 0 1 400 0)" fill="#1D1F22"/>
<path d="M200 0C200 26.2644 205.173 52.2716 215.224 76.5367C225.275 100.802 240.007 122.85 258.579 141.421C277.15 159.993 299.198 174.725 323.463 184.776C347.728 194.827 373.736 200 400 200L400 0H200Z" fill="#546EF3"/>
<rect x="200" y="400" width="200" height="200" transform="rotate(180 200 400)" fill="#1D1F22"/>
<rect x="200" y="400" width="200" height="100" transform="rotate(180 200 400)" fill="#C2DBFF"/>
<path d="M100 200C44.7715 200 0 244.772 0 300H200C200 244.772 155.228 200 100 200Z" fill="#C2DBFF"/>
<rect width="200" height="200" transform="matrix(-1 0 0 1 400 200)" fill="#1D1F22"/>
<path d="M200 400C200 373.736 205.173 347.728 215.224 323.463C225.275 299.198 240.007 277.15 258.579 258.579C277.15 240.007 299.198 225.275 323.463 215.224C347.728 205.173 373.736 200 400 200L400 400H200Z" fill="#546EF3"/>
</svg>
