<svg width="400" height="400" viewBox="0 0 400 400" fill="none" xmlns="http://www.w3.org/2000/svg">
<rect x="200" y="200" width="200" height="200" transform="rotate(180 200 200)" fill="#1D1F22"/>
<path d="M100 100C44.7715 100 0 144.772 0 200H200C200 144.772 155.228 100 100 100Z" fill="#546EF3"/>
<rect width="200" height="200" transform="matrix(-1 0 0 1 400 0)" fill="#546EF3"/>
<rect x="200" y="400" width="200" height="200" transform="rotate(180 200 400)" fill="#546EF3"/>
<path d="M200 400C200 373.736 194.827 347.728 184.776 323.463C174.725 299.198 159.993 277.15 141.421 258.579C122.85 240.007 100.802 225.275 76.5367 215.224C52.2716 205.173 26.2644 200 0 200L1.52588e-05 400H200Z" fill="#C2DBFF"/>
<rect width="200" height="200" transform="matrix(-1 0 0 1 400 200)" fill="#C2DBFF"/>
<path d="M300 300C244.772 300 200 255.228 200 200H400C400 255.228 355.228 300 300 300Z" fill="#546EF3"/>
</svg>
